{"glyphs":{"0":{"ha":833,"x_min":97,"x_max":739,"o":"m 739 376 q 716 209 739 281 q 653 87 694 136 q 553 11 612 37 q 418 -14 494 -14 q 284 11 344 -14 q 183 87 224 37 q 119 209 141 136 q 97 376 97 281 l 97 610 q 119 778 97 705 q 182 901 141 851 q 283 976 224 951 q 417 1002 342 1002 q 552 976 492 1002 q 653 901 611 951 q 716 778 694 851 q 739 610 739 705 l 739 376 m 260 434 l 574 672 q 559 764 571 725 q 526 827 547 802 q 479 859 507 848 q 417 870 452 870 q 351 857 380 870 q 304 819 323 844 q 271 746 281 791 q 260 640 260 701 l 260 507 q 260 467 260 481 q 260 434 260 454 m 575 349 l 575 474 q 575 509 575 491 q 575 547 575 528 l 261 311 q 276 228 264 264 q 306 168 287 192 q 353 130 325 142 q 418 117 381 117 q 483 129 455 117 q 530 166 511 142 q 564 241 553 195 q 575 349 575 287 "},"1":{"ha":833,"x_min":127,"x_max":544,"o":"m 544 0 l 380 0 l 380 787 l 127 694 l 127 837 l 534 987 l 544 987 l 544 0 "},"2":{"ha":833,"x_min":52,"x_max":734,"o":"m 734 0 l 71 0 l 71 113 l 393 463 q 460 542 433 507 q 504 606 487 576 q 527 660 520 635 q 534 711 534 686 q 524 774 534 746 q 494 823 514 803 q 447 855 475 844 q 386 867 420 867 q 311 854 342 867 q 258 820 279 842 q 225 763 236 796 q 214 686 214 729 l 52 686 q 75 808 52 751 q 143 908 99 865 q 249 976 186 951 q 389 1001 312 1001 q 519 980 462 1001 q 616 922 576 959 q 675 832 654 884 q 695 718 695 781 q 680 628 695 671 q 638 541 665 584 q 574 455 611 498 q 494 366 537 412 l 274 131 l 734 131 l 734 0 "},"3":{"ha":833,"x_min":64,"x_max":721,"o":"m 277 567 l 374 567 q 450 579 417 567 q 503 612 482 591 q 533 660 523 631 q 544 720 544 688 q 534 783 544 755 q 505 831 524 811 q 457 859 486 849 q 391 869 429 869 q 330 860 358 869 q 281 831 302 850 q 249 787 260 813 q 237 730 237 762 l 75 730 q 98 838 75 789 q 164 924 122 888 q 263 981 206 960 q 389 1001 321 1001 q 518 983 459 1001 q 618 930 576 965 q 683 842 660 894 q 706 720 706 789 q 697 659 706 690 q 669 600 688 629 q 623 548 651 572 q 558 507 595 524 q 633 468 602 492 q 684 414 664 444 q 712 348 703 383 q 721 276 721 313 q 695 153 721 207 q 626 62 670 99 q 520 6 581 25 q 389 -14 460 -14 q 267 4 326 -14 q 163 57 208 22 q 91 144 118 92 q 64 265 64 196 l 227 265 q 238 205 227 233 q 273 159 250 178 q 325 128 294 139 q 391 117 355 117 q 462 128 431 117 q 515 159 494 138 q 548 209 536 179 q 559 276 559 238 q 546 349 559 319 q 509 400 533 380 q 450 430 484 420 q 374 439 416 439 l 277 439 l 277 567 "},"4":{"ha":833,"x_min":45,"x_max":762,"o":"m 638 352 l 762 352 l 762 220 l 638 220 l 638 0 l 476 0 l 476 220 l 49 220 l 45 320 l 471 987 l 638 987 l 638 352 m 210 352 l 476 352 l 476 770 l 457 735 l 210 352 "},"5":{"ha":833,"x_min":99,"x_max":745,"o":"m 130 490 l 182 987 l 713 987 l 713 844 l 317 844 l 292 607 q 356 634 316 621 q 447 647 395 647 q 572 624 517 647 q 666 558 627 601 q 724 453 704 515 q 745 315 745 392 q 725 188 745 248 q 666 83 706 127 q 566 12 627 38 q 424 -14 506 -14 q 304 4 361 -14 q 203 58 248 22 q 131 146 159 94 q 99 267 103 199 l 257 267 q 310 156 266 195 q 424 117 355 117 q 494 132 465 117 q 545 174 524 147 q 573 238 564 201 q 583 320 583 276 q 571 398 583 363 q 538 460 560 434 q 482 502 515 487 q 405 516 449 516 q 354 511 376 516 q 317 499 333 507 q 286 480 300 491 q 259 458 272 470 l 130 490 "},"6":{"ha":833,"x_min":81,"x_max":734,"o":"m 589 992 l 589 854 l 578 854 q 438 832 498 854 q 338 771 379 810 q 274 677 297 732 q 246 559 252 622 q 284 594 262 577 q 332 625 306 612 q 388 646 357 638 q 452 654 418 654 q 577 627 524 654 q 665 553 631 600 q 717 448 701 507 q 734 323 734 388 q 712 192 734 253 q 650 85 691 130 q 550 13 609 39 q 414 -14 490 -14 q 275 16 336 -14 q 172 97 214 46 q 104 221 127 150 q 81 372 81 293 l 81 439 q 112 667 81 559 q 215 853 143 775 q 366 956 276 920 q 570 992 455 992 l 589 992 m 412 522 q 357 513 383 522 q 308 489 330 505 q 271 453 288 473 q 244 408 255 433 l 244 357 q 257 254 244 298 q 294 179 271 209 q 347 134 317 149 q 412 118 378 118 q 480 133 450 118 q 531 175 510 149 q 563 239 552 202 q 574 319 574 276 q 563 398 574 361 q 532 463 553 435 q 482 506 512 490 q 412 522 452 522 "},"7":{"ha":833,"x_min":59,"x_max":742,"o":"m 742 897 l 347 0 l 176 0 l 571 852 l 59 852 l 59 987 l 742 987 l 742 897 "},"8":{"ha":833,"x_min":94,"x_max":741,"o":"m 720 727 q 705 644 720 682 q 664 574 690 605 q 627 538 648 555 q 580 508 606 521 q 636 475 610 494 q 682 432 663 456 q 726 358 710 399 q 741 269 741 317 q 716 147 741 200 q 648 59 691 94 q 545 5 604 23 q 418 -14 486 -14 q 290 5 349 -14 q 187 59 231 23 q 118 147 143 94 q 94 269 94 199 q 105 346 94 309 q 137 414 116 382 q 188 468 158 444 q 254 509 217 492 q 197 547 222 524 q 154 596 172 569 q 125 657 136 624 q 115 727 115 690 q 138 844 115 793 q 201 930 161 895 q 295 983 240 965 q 416 1001 351 1001 q 537 983 481 1001 q 633 930 592 965 q 696 844 673 895 q 720 727 720 793 m 579 277 q 567 344 579 314 q 534 397 555 374 q 483 429 513 418 q 417 441 453 441 q 350 429 380 441 q 300 397 321 418 q 268 344 279 374 q 256 277 256 314 q 268 209 256 239 q 301 158 279 178 q 352 128 322 138 q 418 117 381 117 q 483 128 454 117 q 534 159 513 139 q 567 210 555 180 q 579 277 579 239 m 558 721 q 548 781 558 754 q 519 829 537 808 q 474 859 500 848 q 416 869 448 869 q 358 859 384 869 q 315 829 333 848 q 288 783 297 810 q 278 721 278 755 q 288 660 278 688 q 316 614 297 633 q 360 583 334 594 q 418 572 386 572 q 475 583 450 572 q 519 614 501 594 q 548 660 538 633 q 558 721 558 688 "},"9":{"ha":833,"x_min":81,"x_max":724,"o":"m 237 134 q 380 153 321 134 q 477 207 439 172 q 536 295 517 245 q 561 403 555 345 l 561 406 q 527 375 546 389 q 484 349 507 360 q 430 331 460 338 q 366 324 401 324 q 240 351 294 324 q 152 424 187 378 q 98 530 116 470 q 81 655 81 589 q 102 789 81 726 q 164 899 123 852 q 264 974 205 946 q 399 1001 323 1001 q 535 972 476 1001 q 636 892 595 943 q 702 761 680 838 q 724 600 724 684 l 724 543 q 697 320 724 426 q 602 135 670 214 q 455 33 546 70 q 237 -5 365 -5 l 224 -5 l 224 134 l 237 134 m 400 452 q 454 461 429 452 q 500 486 479 470 q 537 523 522 502 q 564 570 553 545 l 564 626 q 550 730 564 685 q 515 806 537 776 q 463 853 493 837 q 399 869 433 869 q 332 852 361 869 q 283 807 302 836 q 252 740 262 779 q 241 660 241 702 q 251 582 241 619 q 281 515 260 545 q 330 470 300 487 q 400 452 359 452 "}," ":{"ha":833,"x_min":0,"x_max":0,"o":""},"A":{"ha":833,"x_min":34,"x_max":816,"o":"m 581 227 l 271 227 l 203 0 l 34 0 l 355 987 l 500 987 l 816 0 l 647 0 l 581 227 m 312 367 l 541 367 l 427 758 l 312 367 "},"B":{"ha":833,"x_min":100,"x_max":783,"o":"m 100 0 l 100 987 l 416 987 q 551 971 488 987 q 660 923 614 956 q 732 840 706 890 q 758 720 758 789 q 744 642 758 678 q 704 578 730 606 q 663 542 686 557 q 610 515 640 527 l 610 513 q 686 480 654 502 q 738 430 717 458 q 771 364 760 400 q 782 288 782 328 q 757 163 783 217 q 686 74 731 110 q 577 19 640 37 q 441 0 515 0 l 100 0 m 264 446 l 264 134 l 443 134 q 513 145 481 134 q 568 175 545 156 q 605 223 592 195 q 618 288 618 252 q 608 354 618 325 q 575 403 597 382 q 522 434 553 423 q 451 446 491 446 l 264 446 m 264 570 l 419 570 q 493 581 459 571 q 549 611 526 591 q 583 654 570 629 q 595 711 595 679 q 584 771 595 746 q 552 813 572 797 q 494 843 529 833 q 418 852 460 852 l 264 852 l 264 570 "},"C":{"ha":833,"x_min":62,"x_max":768,"o":"m 768 304 q 734 173 761 232 q 663 73 707 115 q 556 8 618 31 q 420 -14 495 -14 q 308 2 359 -14 q 217 50 257 19 q 150 118 178 78 q 101 207 121 159 q 72 310 81 254 q 62 426 62 366 l 62 561 q 71 672 62 618 q 100 773 81 726 q 152 869 120 826 q 227 943 184 912 q 315 986 267 970 q 421 1002 363 1002 q 561 979 499 1002 q 665 913 622 956 q 735 810 709 871 q 768 676 760 750 l 605 676 q 588 756 601 720 q 554 817 576 791 q 499 855 532 842 q 421 868 467 868 q 364 859 389 868 q 319 834 338 850 q 274 783 292 814 q 244 713 256 751 q 231 641 235 679 q 227 562 227 602 l 227 426 q 232 333 227 376 q 250 254 238 290 q 274 199 260 224 q 309 157 289 175 q 358 129 330 138 q 420 119 385 119 q 495 131 463 119 q 551 167 528 143 q 587 224 573 190 q 604 304 600 259 l 768 304 "},"D":{"ha":833,"x_min":94,"x_max":772,"o":"m 94 0 l 94 987 l 338 987 q 458 973 401 987 q 560 932 514 958 q 649 866 610 906 q 715 777 688 826 q 757 663 742 725 q 772 532 772 602 l 772 454 q 758 327 772 387 q 718 218 744 267 q 657 130 693 170 q 578 63 622 91 q 470 16 530 33 q 343 0 411 0 l 94 0 m 258 854 l 258 132 l 343 132 q 423 143 387 132 q 488 173 459 153 q 542 224 518 193 q 580 295 565 255 q 600 369 593 329 q 606 454 606 409 l 606 533 q 600 618 606 578 q 580 692 593 658 q 536 767 564 733 q 472 821 509 800 q 411 845 445 837 q 338 854 377 854 l 258 854 "},"E":{"ha":833,"x_min":110,"x_max":750,"o":"m 682 443 l 273 443 l 273 134 l 750 134 l 750 0 l 110 0 l 110 987 l 747 987 l 747 852 l 273 852 l 273 574 l 682 574 l 682 443 "},"F":{"ha":833,"x_min":113,"x_max":755,"o":"m 695 420 l 277 420 l 277 0 l 113 0 l 113 987 l 755 987 l 755 852 l 277 852 l 277 555 l 695 555 l 695 420 "},"G":{"ha":833,"x_min":62,"x_max":763,"o":"m 763 121 q 713 74 743 97 q 648 34 684 52 q 547 -1 602 12 q 431 -14 493 -14 q 325 1 374 -14 q 235 43 275 16 q 164 109 195 71 q 111 195 132 148 q 75 304 87 245 q 62 430 63 364 l 62 556 q 74 678 63 620 q 107 786 85 736 q 157 871 128 833 q 224 939 186 910 q 314 985 264 968 q 420 1001 363 1001 q 559 980 498 1001 q 662 920 619 959 q 730 823 705 880 q 762 696 755 766 l 602 696 q 584 766 596 734 q 551 819 572 798 q 498 854 530 842 q 424 867 467 867 q 366 856 393 867 q 319 827 340 846 q 276 775 294 806 q 247 707 258 745 q 232 635 237 673 q 227 557 227 597 l 227 430 q 234 341 227 383 q 253 263 240 299 q 277 212 263 236 q 310 170 291 189 q 365 134 334 146 q 437 120 397 121 q 485 123 460 120 q 532 133 509 126 q 572 150 553 140 q 601 175 590 161 l 602 372 l 422 372 l 422 499 l 762 499 l 763 121 "},"H":{"ha":833,"x_min":89,"x_max":739,"o":"m 739 0 l 580 0 l 580 440 l 248 440 l 248 0 l 89 0 l 89 987 l 248 987 l 248 574 l 580 574 l 580 987 l 739 987 l 739 0 "},"I":{"ha":833,"x_min":125,"x_max":707,"o":"m 125 987 l 707 987 l 707 852 l 496 852 l 496 134 l 707 134 l 707 0 l 125 0 l 125 134 l 332 134 l 332 852 l 125 852 l 125 987 "},"J":{"ha":833,"x_min":72,"x_max":730,"o":"m 566 987 l 730 987 l 730 302 q 704 175 730 233 q 634 75 679 117 q 530 9 590 33 q 400 -14 470 -14 q 269 6 328 -14 q 167 64 210 26 q 99 159 124 102 q 72 288 75 215 l 236 288 q 247 220 237 250 q 275 169 257 190 q 328 132 296 144 q 400 120 359 120 q 469 134 438 120 q 521 173 499 149 q 554 231 542 197 q 566 302 566 264 l 566 987 "},"K":{"ha":833,"x_min":100,"x_max":833,"o":"m 371 428 l 264 309 l 264 0 l 100 0 l 100 987 l 264 987 l 264 523 l 357 643 l 617 987 l 817 987 l 479 553 l 833 0 l 638 0 l 371 428 "},"L":{"ha":833,"x_min":115,"x_max":750,"o":"m 279 134 l 750 134 l 750 0 l 115 0 l 115 987 l 279 987 l 279 134 "},"M":{"ha":833,"x_min":92,"x_max":754,"o":"m 294 987 l 416 565 l 551 987 l 754 987 l 754 0 l 601 0 l 601 335 l 610 776 l 458 304 l 374 304 l 236 760 l 245 335 l 245 0 l 92 0 l 92 987 l 294 987 "},"N":{"ha":833,"x_min":89,"x_max":739,"o":"m 739 0 l 575 0 l 254 680 l 254 0 l 89 0 l 89 987 l 254 987 l 573 311 l 574 987 l 739 987 l 739 0 "},"O":{"ha":833,"x_min":62,"x_max":770,"o":"m 770 428 q 760 313 770 368 q 730 208 749 257 q 677 116 709 158 q 606 45 646 75 q 518 2 566 18 q 414 -14 471 -14 q 306 3 355 -14 q 218 49 256 20 q 149 121 178 79 q 100 213 119 163 q 71 316 81 261 q 62 428 62 370 l 62 558 q 72 675 62 618 q 102 781 82 731 q 151 870 122 829 q 219 940 180 910 q 306 985 257 969 q 412 1001 354 1001 q 521 985 471 1001 q 610 939 570 968 q 678 871 649 910 q 727 785 707 831 q 760 677 749 734 q 770 558 770 620 l 770 428 m 606 559 q 602 633 606 597 q 589 701 598 669 q 563 769 579 739 q 522 822 546 800 q 474 852 501 841 q 412 863 447 863 q 353 852 379 863 q 307 823 326 842 q 267 770 283 801 q 241 701 250 739 q 230 632 233 669 q 226 559 226 596 l 226 428 q 229 357 226 392 q 241 289 233 321 q 265 221 250 252 q 302 168 280 189 q 350 135 323 147 q 414 123 378 123 q 476 135 448 123 q 525 166 505 146 q 565 219 549 189 q 590 288 581 250 q 602 356 598 320 q 606 428 606 391 l 606 559 "},"P":{"ha":833,"x_min":113,"x_max":785,"o":"m 276 376 l 276 0 l 113 0 l 113 987 l 444 987 q 581 965 518 987 q 689 903 644 943 q 760 806 734 863 q 785 678 785 749 q 760 554 785 610 q 689 460 734 499 q 581 398 644 420 q 444 376 518 376 l 276 376 m 276 509 l 444 509 q 518 523 485 510 q 574 557 551 535 q 609 610 597 580 q 621 677 621 641 q 609 748 621 716 q 574 804 597 781 q 518 841 551 828 q 444 854 485 854 l 276 854 l 276 509 "},"Q":{"ha":833,"x_min":60,"x_max":810,"o":"m 778 416 q 768 312 777 363 q 740 214 758 260 q 700 137 724 174 q 644 72 676 100 l 810 -73 l 703 -171 l 512 -1 q 465 -10 489 -7 q 416 -14 441 -14 q 304 4 355 -14 q 214 52 254 22 q 144 126 174 83 q 96 219 115 170 q 69 315 78 264 q 60 416 60 365 l 60 551 q 69 660 60 607 q 95 761 78 713 q 143 859 113 814 q 216 936 174 904 q 306 984 256 966 q 416 1001 355 1001 q 527 984 476 1001 q 618 936 577 966 q 693 856 661 903 q 745 753 726 809 q 769 655 762 707 q 778 551 777 604 l 778 416 m 613 553 q 609 630 613 591 q 595 702 605 668 q 571 767 587 737 q 532 819 555 797 q 482 851 511 839 q 416 863 453 863 q 351 851 379 863 q 302 819 323 840 q 261 760 277 795 q 237 684 245 725 q 228 619 231 652 q 224 553 224 586 l 224 416 q 228 353 224 385 q 239 292 231 321 q 263 221 248 254 q 304 167 279 189 q 352 135 324 146 q 416 123 380 123 q 481 135 452 123 q 531 167 509 147 q 572 221 555 189 q 598 288 588 252 q 609 352 606 319 q 613 416 613 385 l 613 553 "},"R":{"ha":833,"x_min":103,"x_max":796,"o":"m 433 383 l 266 383 l 266 0 l 103 0 l 103 987 l 416 987 q 557 968 493 987 q 669 912 622 949 q 741 820 715 875 q 766 690 766 764 q 753 598 766 640 q 716 524 740 557 q 659 465 692 490 q 585 422 626 440 l 796 9 l 796 0 l 622 0 l 433 383 m 266 516 l 418 516 q 497 529 462 517 q 556 566 532 542 q 590 616 578 586 q 602 684 602 646 q 589 759 602 726 q 550 812 576 791 q 492 843 526 833 q 416 854 458 854 l 266 854 l 266 516 "},"S":{"ha":833,"x_min":68,"x_max":779,"o":"m 616 254 q 602 315 616 289 q 562 363 587 342 q 497 398 534 382 q 415 427 460 414 q 287 476 345 447 q 186 541 228 505 q 122 624 145 577 q 98 728 98 670 q 125 842 98 791 q 199 928 153 892 q 306 982 245 964 q 435 1001 368 1001 q 569 979 507 1001 q 677 918 631 957 q 750 822 724 878 q 777 700 777 767 l 616 700 q 600 768 612 737 q 565 821 587 799 q 509 856 542 843 q 433 868 476 868 q 365 858 396 868 q 310 831 333 848 q 274 787 287 812 q 261 729 261 761 q 279 670 262 695 q 324 625 296 644 q 391 592 353 606 q 470 566 429 578 q 572 529 522 551 q 664 475 622 507 q 748 381 716 436 q 779 256 779 327 q 752 140 779 190 q 678 56 724 90 q 570 4 631 22 q 439 -13 508 -13 q 296 10 367 -13 q 174 76 226 33 q 97 172 125 117 q 68 298 69 227 l 231 298 q 251 219 235 252 q 294 163 267 185 q 358 130 321 141 q 439 119 395 119 q 509 128 477 119 q 565 155 541 137 q 602 197 588 172 q 616 254 616 222 "},"T":{"ha":833,"x_min":33,"x_max":802,"o":"m 802 852 l 497 852 l 497 0 l 335 0 l 335 852 l 33 852 l 33 987 l 802 987 l 802 852 "},"U":{"ha":833,"x_min":89,"x_max":744,"o":"m 743 987 l 744 327 q 721 188 744 250 q 654 80 697 125 q 550 11 611 35 q 414 -14 490 -14 q 281 11 340 -14 q 179 79 221 35 q 113 187 136 124 q 89 327 90 250 l 90 987 l 251 987 l 252 327 q 264 241 253 280 q 296 175 275 202 q 346 135 316 149 q 414 120 375 120 q 485 135 454 120 q 537 176 516 149 q 569 242 558 204 q 581 327 580 281 l 583 987 l 743 987 "},"V":{"ha":833,"x_min":33,"x_max":799,"o":"m 336 0 l 33 987 l 211 987 l 399 304 l 415 245 l 432 304 l 621 987 l 799 987 l 495 0 l 336 0 "},"W":{"ha":833,"x_min":31,"x_max":812,"o":"m 160 0 l 31 987 l 182 987 l 250 381 l 255 342 l 262 383 l 357 987 l 481 987 l 580 380 l 587 340 l 591 381 l 660 987 l 812 987 l 682 0 l 528 0 l 427 604 l 420 651 l 413 604 l 314 0 l 160 0 "},"X":{"ha":833,"x_min":37,"x_max":813,"o":"m 423 619 l 615 987 l 806 987 l 525 498 l 813 0 l 623 0 l 426 374 l 229 0 l 37 0 l 326 498 l 44 987 l 235 987 l 423 619 "},"Y":{"ha":833,"x_min":31,"x_max":808,"o":"m 419 515 l 626 987 l 808 987 l 498 353 l 497 0 l 338 0 l 337 357 l 31 987 l 212 987 l 419 515 "},"Z":{"ha":833,"x_min":67,"x_max":761,"o":"m 262 134 l 761 134 l 761 0 l 68 0 l 67 109 l 551 852 l 72 852 l 72 987 l 745 987 l 747 882 l 262 134 "},"a":{"ha":833,"x_min":90,"x_max":739,"o":"m 574 0 q 562 33 566 14 q 554 73 557 52 q 516 40 537 56 q 468 12 494 24 q 411 -7 441 0 q 345 -14 380 -14 q 241 3 288 -14 q 161 49 194 20 q 108 118 127 77 q 90 205 90 158 q 114 312 90 265 q 184 389 138 358 q 289 432 227 417 q 431 447 352 447 l 549 447 l 549 496 q 539 548 549 525 q 511 588 530 571 q 464 614 492 605 q 399 623 435 623 q 341 615 366 623 q 300 593 316 607 q 276 561 283 580 q 268 522 268 543 l 105 522 q 126 606 106 566 q 186 678 146 647 q 280 729 224 710 q 408 747 336 747 q 528 731 472 747 q 625 684 584 715 q 688 605 665 653 q 711 495 711 557 l 711 169 q 719 80 711 119 q 739 12 726 40 l 739 0 l 574 0 m 376 117 q 436 125 408 117 q 486 146 463 133 q 524 175 508 159 q 549 209 541 191 l 549 345 l 445 345 q 353 335 392 345 q 292 307 315 325 q 261 269 271 291 q 252 220 252 248 q 260 179 252 198 q 283 146 268 159 q 322 124 299 132 q 376 117 345 117 "},"b":{"ha":833,"x_min":108,"x_max":750,"o":"m 750 359 q 743 262 750 309 q 721 177 735 216 q 677 92 705 130 q 612 29 650 54 q 544 -2 582 9 q 463 -14 507 -14 q 381 -3 418 -14 q 315 29 345 8 q 287 53 300 40 q 262 80 274 65 l 254 0 l 108 0 l 108 1042 l 270 1042 l 270 662 q 301 694 284 680 q 338 719 318 708 q 394 740 363 733 q 461 747 425 747 q 548 735 509 747 q 620 699 588 722 q 668 653 647 680 q 706 593 690 625 q 739 492 728 547 q 750 374 750 436 l 750 359 m 588 374 q 584 434 588 405 q 574 490 581 464 q 549 546 564 521 q 508 589 534 572 q 469 608 491 602 q 420 614 448 614 q 361 605 387 614 q 315 578 334 595 q 289 552 300 567 q 270 519 278 536 l 270 215 q 293 178 279 195 q 323 149 306 161 q 367 127 342 135 q 422 119 391 119 q 472 126 450 119 q 512 146 494 134 q 551 189 536 163 q 574 248 566 215 q 585 300 581 272 q 588 359 588 329 l 588 374 "},"c":{"ha":833,"x_min":87,"x_max":732,"o":"m 425 117 q 483 126 455 117 q 533 152 511 135 q 567 192 554 169 q 579 243 579 215 l 732 243 q 708 142 732 189 q 641 61 683 95 q 543 6 598 26 q 427 -14 488 -14 q 278 15 342 -14 q 173 95 215 45 q 109 212 130 145 q 87 355 87 279 l 87 378 q 108 521 87 454 q 172 638 130 588 q 278 718 215 688 q 426 747 342 747 q 549 727 492 747 q 646 670 606 707 q 710 583 687 633 q 732 471 732 532 l 579 471 q 568 527 579 500 q 536 573 557 553 q 487 604 515 593 q 425 616 458 616 q 340 595 374 616 q 287 541 307 574 q 257 465 266 508 q 249 378 249 422 l 249 355 q 257 267 249 310 q 286 191 266 224 q 340 137 306 157 q 425 117 374 117 "},"d":{"ha":833,"x_min":83,"x_max":724,"o":"m 83 372 q 103 525 83 456 q 161 643 123 593 q 253 720 199 692 q 374 747 307 747 q 481 726 435 747 q 562 665 527 705 l 562 1042 l 724 1042 l 724 0 l 577 0 l 570 77 q 486 10 534 33 q 373 -14 437 -14 q 252 15 306 -14 q 161 93 199 43 q 104 211 124 142 q 83 358 83 279 l 83 372 m 245 358 q 255 266 245 309 q 285 191 264 222 q 337 139 305 157 q 414 120 369 120 q 505 144 469 120 q 562 210 541 168 l 562 525 q 505 590 541 566 q 415 614 469 614 q 337 595 370 614 q 286 543 305 576 q 255 466 264 509 q 245 372 245 422 l 245 358 "},"e":{"ha":833,"x_min":83,"x_max":755,"o":"m 448 -14 q 299 14 366 -14 q 183 89 231 41 q 109 201 135 136 q 83 341 83 266 l 83 369 q 110 525 83 455 q 184 644 137 595 q 295 721 232 694 q 429 747 357 747 q 569 721 508 747 q 671 646 630 694 q 734 532 713 598 q 755 387 755 465 l 755 317 l 246 317 l 246 313 q 269 233 254 265 q 312 174 285 200 q 376 132 339 147 q 457 117 413 117 q 570 141 517 117 q 656 208 622 164 l 743 123 q 630 28 706 71 q 448 -14 555 -14 m 428 616 q 364 603 393 616 q 311 568 334 591 q 273 511 288 544 q 250 435 257 477 l 595 435 l 595 446 q 583 510 595 478 q 551 565 572 541 q 499 602 530 588 q 428 616 469 616 "},"f":{"ha":833,"x_min":93,"x_max":776,"o":"m 290 0 l 290 612 l 93 612 l 93 734 l 290 734 l 290 779 q 312 905 290 850 q 374 997 334 960 q 472 1053 415 1034 q 601 1072 530 1072 q 650 1069 626 1072 q 697 1063 674 1067 q 736 1057 716 1061 q 776 1049 755 1053 l 763 920 q 702 932 736 927 q 624 938 667 938 q 546 927 578 938 q 492 895 513 916 q 462 846 472 876 q 452 779 452 817 l 452 734 l 724 734 l 724 612 l 452 612 l 452 0 l 290 0 "},"g":{"ha":833,"x_min":84,"x_max":730,"o":"m 84 372 q 104 525 84 456 q 163 643 125 593 q 257 720 202 692 q 380 747 311 747 q 454 739 420 747 q 514 714 487 730 q 547 690 532 704 q 576 660 563 676 l 583 734 l 730 734 l 730 20 q 706 -111 730 -54 q 639 -208 682 -168 q 533 -268 595 -248 q 398 -289 472 -289 q 330 -282 367 -289 q 255 -261 292 -275 q 184 -224 218 -247 q 125 -168 150 -201 l 202 -70 q 244 -111 222 -94 q 291 -139 267 -128 q 339 -155 315 -150 q 389 -160 363 -160 q 466 -148 432 -160 q 523 -113 499 -136 q 556 -58 545 -90 q 568 16 568 -25 l 568 67 q 539 39 554 52 q 506 17 524 26 q 448 -6 479 2 q 378 -14 416 -14 q 256 15 311 -14 q 163 93 202 43 q 105 211 125 142 q 84 358 84 279 l 84 372 m 247 358 q 257 266 247 309 q 288 191 267 222 q 342 139 309 157 q 419 120 374 120 q 470 126 447 120 q 511 143 492 132 q 543 171 529 155 q 568 207 557 187 l 568 528 q 542 565 557 549 q 507 593 527 581 q 468 608 490 602 q 420 614 446 614 q 342 595 375 614 q 289 543 310 576 q 257 466 267 509 q 247 372 247 422 l 247 358 "},"h":{"ha":833,"x_min":105,"x_max":741,"o":"m 267 629 q 299 669 281 651 q 336 701 317 688 q 404 735 367 724 q 482 747 441 747 q 588 730 540 747 q 669 677 635 713 q 722 586 703 642 q 741 452 741 530 l 741 0 l 578 0 l 578 453 q 569 524 578 494 q 540 574 559 555 q 492 604 520 594 q 427 614 464 614 q 373 607 399 614 q 327 587 348 600 q 294 563 309 577 q 267 531 279 549 l 267 0 l 105 0 l 105 1042 l 267 1042 l 267 629 "},"i":{"ha":833,"x_min":142,"x_max":747,"o":"m 142 734 l 532 734 l 532 134 l 747 134 l 747 0 l 142 0 l 142 134 l 368 134 l 368 599 l 142 599 l 142 734 m 353 924 q 360 960 353 943 q 380 989 367 977 q 409 1007 392 1000 q 448 1013 427 1013 q 508 995 485 1013 q 534 947 530 976 q 524 895 538 917 q 480 865 509 873 q 446 848 466 852 q 403 852 427 844 q 366 879 378 859 q 353 924 353 898 "},"j":{"ha":833,"x_min":148,"x_max":591,"o":"m 206 734 l 579 734 l 579 -12 q 559 -137 579 -84 q 500 -226 538 -191 q 406 -279 461 -261 q 278 -296 350 -296 q 240 -296 259 -296 q 203 -293 222 -295 q 176 -290 190 -292 q 148 -285 162 -288 l 157 -153 q 182 -156 167 -155 q 215 -159 198 -158 q 246 -160 231 -160 q 269 -161 261 -161 q 327 -153 300 -161 q 374 -129 354 -146 q 405 -83 393 -111 q 416 -12 416 -54 l 416 599 l 206 599 l 206 734 m 401 924 q 426 987 401 961 q 495 1013 450 1013 q 566 988 541 1013 q 591 924 591 962 q 566 861 591 886 q 495 836 541 836 q 426 861 451 836 q 401 924 401 886 "},"k":{"ha":833,"x_min":106,"x_max":792,"o":"m 357 319 l 269 236 l 269 0 l 106 0 l 106 1042 l 269 1042 l 269 429 l 336 503 l 555 734 l 751 734 l 465 428 l 792 0 l 591 0 l 357 319 "},"l":{"ha":833,"x_min":136,"x_max":754,"o":"m 136 1042 l 532 1042 l 532 134 l 754 134 l 754 0 l 136 0 l 136 134 l 368 134 l 368 907 l 136 907 l 136 1042 "},"m":{"ha":833,"x_min":56,"x_max":774,"o":"m 197 734 l 202 653 q 260 722 223 697 q 349 747 297 747 q 398 741 376 747 q 435 722 420 735 q 457 700 448 713 q 473 669 467 686 q 495 699 483 685 q 522 722 507 712 q 563 741 540 734 q 612 747 585 747 q 677 735 648 747 q 728 699 707 724 q 762 632 750 673 q 774 534 774 591 l 774 0 l 625 0 l 625 535 q 620 572 625 557 q 606 597 615 587 q 585 610 597 606 q 557 614 572 614 q 530 610 542 614 q 510 598 519 606 q 496 582 502 591 q 488 562 491 573 q 488 555 488 559 q 488 545 488 551 l 488 0 l 342 0 l 342 536 q 337 573 342 557 q 324 597 333 588 q 303 610 315 606 q 277 614 292 614 q 248 609 260 614 q 227 596 235 605 q 215 582 220 590 q 205 564 210 574 l 205 0 l 56 0 l 56 734 l 197 734 "},"n":{"ha":833,"x_min":105,"x_max":739,"o":"m 105 0 l 105 734 l 252 734 l 262 629 q 295 668 277 650 q 333 701 313 686 q 404 735 366 723 q 486 747 443 747 q 589 731 542 747 q 669 680 635 715 q 720 590 702 644 q 739 458 739 535 l 739 0 l 576 0 l 576 455 q 566 531 576 500 q 536 580 556 562 q 489 606 517 598 q 425 614 461 614 q 370 606 395 614 q 323 584 344 598 q 292 557 307 573 q 267 524 278 542 l 267 0 l 105 0 "},"o":{"ha":833,"x_min":75,"x_max":757,"o":"m 75 374 q 98 522 75 454 q 165 640 121 590 q 272 719 209 690 q 416 747 335 747 q 560 719 496 747 q 667 640 623 690 q 734 522 711 590 q 757 374 757 454 l 757 359 q 734 211 757 279 q 667 93 711 143 q 561 14 624 43 q 417 -14 497 -14 q 273 14 336 -14 q 165 93 209 43 q 98 211 121 143 q 75 359 75 279 l 75 374 m 237 359 q 248 266 237 310 q 281 189 258 222 q 336 136 302 155 q 417 117 370 117 q 496 136 463 117 q 552 189 530 155 q 584 266 574 222 q 595 359 595 310 l 595 374 q 584 466 595 422 q 552 543 573 510 q 496 596 530 576 q 416 616 463 616 q 336 596 370 616 q 281 543 302 576 q 248 466 258 510 q 237 374 237 422 l 237 359 "},"p":{"ha":833,"x_min":106,"x_max":747,"o":"m 106 -282 l 106 734 l 256 734 l 262 659 q 294 692 277 677 q 332 718 312 707 q 391 740 359 732 q 458 747 422 747 q 583 720 529 747 q 673 644 637 693 q 728 525 709 594 q 747 374 747 456 l 747 359 q 729 212 747 280 q 673 94 710 143 q 583 15 637 43 q 460 -14 530 -14 q 388 -5 421 -14 q 328 18 355 3 q 296 40 311 28 q 269 66 281 52 l 269 -282 l 106 -282 m 585 374 q 575 467 585 423 q 545 543 566 511 q 492 595 524 576 q 414 614 459 614 q 367 608 389 614 q 328 593 345 603 q 294 566 309 582 q 269 529 279 549 l 269 203 q 292 168 278 184 q 323 141 305 153 q 364 124 341 130 q 415 117 387 117 q 493 137 460 117 q 545 189 525 156 q 576 267 566 223 q 585 359 585 311 l 585 374 "},"q":{"ha":833,"x_min":84,"x_max":725,"o":"m 84 373 q 103 525 84 456 q 161 644 123 594 q 252 720 197 692 q 377 747 307 747 q 447 739 414 747 q 506 715 479 731 q 541 691 524 705 q 571 660 557 677 l 580 734 l 725 734 l 725 -282 l 562 -282 l 562 64 q 530 34 547 47 q 493 12 513 21 q 439 -7 468 -1 q 376 -14 410 -14 q 252 15 306 -14 q 161 93 198 43 q 104 211 123 143 q 84 359 84 279 l 84 373 m 246 359 q 256 266 246 310 q 286 189 266 222 q 339 137 307 156 q 416 117 371 117 q 465 123 443 117 q 505 139 486 129 q 537 166 523 150 q 562 201 551 182 l 562 534 q 537 568 551 553 q 505 593 524 583 q 466 610 488 604 q 418 616 444 616 q 340 596 372 616 q 288 544 308 576 q 256 467 266 511 q 246 373 246 422 l 246 359 "},"r":{"ha":833,"x_min":207,"x_max":747,"o":"m 612 747 q 689 742 652 747 q 747 729 726 736 l 724 569 q 650 581 686 577 q 578 585 614 585 q 505 577 537 585 q 447 552 472 569 q 401 511 420 536 q 369 453 382 486 l 369 0 l 207 0 l 207 734 l 359 734 l 366 632 l 366 615 q 474 712 411 677 q 612 747 536 747 "},"s":{"ha":833,"x_min":98,"x_max":743,"o":"m 585 199 q 576 233 585 218 q 548 261 568 248 q 493 284 527 273 q 408 304 459 295 q 292 336 345 317 q 201 382 239 355 q 143 444 164 408 q 122 526 122 479 q 143 611 122 570 q 205 682 165 651 q 300 730 244 712 q 425 747 356 747 q 556 729 498 747 q 655 680 614 711 q 717 606 695 649 q 739 514 739 564 l 576 514 q 568 553 576 534 q 543 587 559 572 q 494 615 524 604 q 425 625 465 625 q 360 617 388 625 q 315 596 333 610 q 289 567 298 584 q 280 532 280 551 q 288 498 280 513 q 314 471 295 483 q 363 449 332 459 q 443 431 395 439 q 566 401 510 418 q 661 357 621 383 q 722 294 700 330 q 743 207 743 257 q 721 117 743 158 q 656 47 698 77 q 556 2 614 18 q 427 -14 498 -14 q 286 7 347 -14 q 183 62 224 28 q 119 140 141 96 q 98 230 98 184 l 255 230 q 273 173 257 196 q 313 135 289 149 q 368 114 337 120 q 429 107 398 107 q 503 116 471 107 q 553 140 534 125 q 577 166 569 152 q 585 199 585 181 "},"t":{"ha":833,"x_min":90,"x_max":736,"o":"m 431 913 l 431 734 l 707 734 l 707 612 l 431 612 l 431 262 q 440 194 431 221 q 468 151 450 166 q 510 127 486 134 q 564 121 534 121 q 607 123 585 121 q 650 128 629 125 q 689 135 671 131 q 719 141 707 138 l 736 29 q 694 11 719 18 q 641 -3 669 3 q 582 -11 612 -8 q 520 -14 551 -14 q 418 1 465 -14 q 338 49 372 16 q 287 131 305 81 q 268 252 268 181 l 268 612 l 90 612 l 90 734 l 268 734 l 268 913 l 431 913 "},"u":{"ha":833,"x_min":111,"x_max":733,"o":"m 586 0 l 576 102 q 486 17 539 47 q 366 -14 432 -14 q 261 4 309 -14 q 180 60 214 22 q 129 157 147 98 q 111 299 111 216 l 111 734 l 273 734 l 273 298 q 280 213 273 247 q 304 158 288 178 q 345 128 320 137 q 404 119 370 119 q 467 127 439 119 q 516 149 495 135 q 547 177 534 161 q 570 214 561 194 l 570 734 l 733 734 l 733 0 l 586 0 "},"v":{"ha":833,"x_min":56,"x_max":776,"o":"m 345 0 l 56 734 l 224 734 l 406 201 l 417 153 l 428 201 l 608 734 l 776 734 l 488 0 l 345 0 "},"w":{"ha":833,"x_min":24,"x_max":804,"o":"m 166 0 l 24 734 l 171 734 l 239 284 l 250 199 l 265 284 l 361 734 l 467 734 l 563 286 l 578 197 l 591 286 l 657 734 l 804 734 l 663 0 l 525 0 l 430 416 l 413 507 l 397 416 l 304 0 l 166 0 "},"x":{"ha":833,"x_min":66,"x_max":791,"o":"m 427 487 l 603 734 l 783 734 l 525 372 l 791 0 l 612 0 l 429 256 l 246 0 l 66 0 l 332 372 l 75 734 l 254 734 l 427 487 "},"y":{"ha":833,"x_min":40,"x_max":813,"o":"m 197 -296 q 152 -293 174 -296 q 111 -284 131 -289 l 134 -157 q 164 -159 147 -158 q 193 -160 182 -160 q 235 -146 216 -160 q 269 -115 254 -132 q 291 -83 282 -97 q 307 -55 299 -70 l 353 33 l 40 734 l 218 734 l 401 286 l 426 205 l 456 283 l 633 734 l 813 734 l 441 -111 q 409 -172 428 -140 q 360 -231 389 -204 q 291 -278 331 -259 q 197 -296 251 -296 "},"z":{"ha":833,"x_min":92,"x_max":755,"o":"m 309 131 l 755 131 l 755 0 l 92 0 l 92 106 l 514 602 l 100 602 l 100 734 l 735 734 l 735 631 l 309 131 "},"¹":{"ha":833,"x_min":265,"x_max":524,"o":"m 524 449 l 401 449 l 401 838 l 265 804 l 265 902 l 512 983 l 524 983 l 524 449 "},"²":{"ha":833,"x_min":208,"x_max":633,"o":"m 633 452 l 220 452 l 220 536 l 414 715 q 445 745 432 730 q 467 771 458 759 q 485 803 479 789 q 491 829 491 818 q 486 856 491 844 q 472 876 481 868 q 449 890 463 885 q 417 895 435 895 q 379 888 395 895 q 352 870 363 882 q 337 845 342 859 q 332 813 332 830 l 208 813 q 222 884 208 850 q 262 942 236 917 q 327 981 290 966 q 412 995 365 995 q 503 982 464 995 q 568 945 543 969 q 603 895 591 924 q 615 830 615 866 q 606 777 615 802 q 579 730 597 753 q 535 682 561 706 q 476 629 509 657 l 380 551 l 633 551 l 633 452 "},"³":{"ha":833,"x_min":208,"x_max":631,"o":"m 353 767 l 411 767 q 446 771 431 767 q 471 781 461 774 q 492 803 486 790 q 498 833 498 817 q 493 857 498 846 q 479 877 488 868 q 454 889 469 884 q 418 894 439 894 q 384 890 399 894 q 359 878 369 886 q 345 863 350 871 q 339 843 339 854 l 216 843 q 232 907 216 879 q 275 955 248 935 q 338 984 302 974 q 414 994 374 994 q 498 984 460 994 q 564 956 536 975 q 606 907 591 936 q 621 841 621 878 q 613 798 621 818 q 589 762 605 778 q 563 742 578 751 q 530 726 548 732 q 571 709 553 720 q 602 685 590 699 q 624 649 616 670 q 631 602 631 628 q 615 534 631 564 q 570 486 598 505 q 500 455 540 465 q 415 444 460 444 q 339 453 376 444 q 273 482 302 462 q 225 532 243 502 q 208 607 208 563 l 332 607 q 337 584 332 595 q 353 564 342 572 q 382 549 364 555 q 421 544 399 544 q 460 549 444 544 q 488 565 477 555 q 503 585 498 574 q 507 610 507 597 q 502 640 507 628 q 486 661 496 652 q 455 676 475 671 q 411 681 435 681 l 353 681 l 353 767 "},"ª":{"ha":833,"x_min":189,"x_max":640,"o":"m 523 478 q 514 509 518 493 q 509 543 511 526 q 487 517 500 530 q 456 494 473 504 q 412 476 437 483 q 357 469 387 469 q 285 479 317 469 q 232 511 253 490 q 199 559 210 531 q 189 623 189 588 q 204 692 189 662 q 248 741 219 722 q 318 770 277 760 q 413 780 359 780 l 507 780 l 507 814 q 502 853 507 836 q 486 880 496 869 q 461 897 476 891 q 425 903 446 903 q 380 897 400 903 q 349 880 361 892 q 334 860 339 872 q 328 834 328 848 l 215 843 q 230 906 215 878 q 273 956 245 935 q 339 989 300 977 q 425 1001 378 1001 q 506 989 469 1001 q 568 954 542 977 q 608 896 593 930 q 622 814 622 861 l 622 601 q 626 538 622 568 q 640 478 630 508 l 523 478 m 385 564 q 422 570 403 564 q 459 585 442 576 q 488 607 475 595 q 507 630 501 618 l 507 702 l 414 702 q 365 695 386 702 q 329 677 343 688 q 310 654 316 667 q 303 626 303 641 q 307 602 303 612 q 320 583 311 591 q 347 569 330 574 q 385 564 363 564 "},"º":{"ha":833,"x_min":182,"x_max":650,"o":"m 182 774 q 199 865 182 823 q 245 937 215 907 q 318 984 275 967 q 416 1001 361 1001 q 513 984 470 1001 q 587 937 556 967 q 633 865 617 907 q 650 774 650 823 l 650 694 q 633 604 650 646 q 587 532 617 562 q 514 485 557 502 q 417 468 471 468 q 319 485 363 468 q 245 532 276 502 q 199 604 215 562 q 182 694 182 646 l 182 774 m 297 694 q 304 643 297 667 q 327 602 312 619 q 364 575 342 585 q 417 565 387 565 q 469 575 446 565 q 505 602 491 585 q 527 643 519 619 q 534 694 534 667 l 534 774 q 527 825 534 801 q 505 866 519 848 q 468 893 490 883 q 416 903 446 903 q 364 893 386 903 q 327 866 342 883 q 304 825 312 848 q 297 774 297 801 l 297 694 "},"½":{"ha":833,"x_min":20,"x_max":809,"o":"m 253 509 l 142 509 l 142 859 l 20 829 l 20 916 l 242 989 l 253 989 l 253 509 m 809 0 l 437 0 l 437 75 l 612 237 q 641 265 629 252 q 661 290 653 278 q 676 317 671 305 q 681 339 681 330 q 677 362 681 351 q 665 380 673 372 q 644 394 656 389 q 614 398 631 398 q 579 392 594 398 q 555 375 565 386 q 542 352 546 366 q 537 324 537 339 l 425 324 q 438 388 425 358 q 475 441 451 418 q 533 475 499 463 q 610 488 568 488 q 689 478 654 488 q 747 447 724 467 q 781 401 770 428 q 793 340 793 374 q 785 292 793 314 q 760 250 777 271 q 721 206 744 228 q 667 159 697 184 l 581 89 l 809 89 l 809 0 m 237 155 l 154 201 l 501 841 l 585 796 l 237 155 "},"¼":{"ha":833,"x_min":39,"x_max":791,"o":"m 273 509 l 162 509 l 162 859 l 39 829 l 39 918 l 262 989 l 273 989 l 273 509 m 732 191 l 791 191 l 791 100 l 732 100 l 732 0 l 621 0 l 621 100 l 401 100 l 397 172 l 620 481 l 732 481 l 732 191 m 505 191 l 621 191 l 621 341 l 612 328 l 505 191 m 281 155 l 198 201 l 545 841 l 629 796 l 281 155 "},"¾":{"ha":833,"x_min":24,"x_max":820,"o":"m 760 191 l 820 191 l 820 100 l 760 100 l 760 0 l 649 0 l 649 100 l 430 100 l 425 172 l 648 481 l 760 481 l 760 191 m 533 191 l 649 191 l 649 341 l 640 328 l 533 191 m 155 788 l 207 788 q 240 792 226 788 q 265 803 255 796 q 281 823 275 811 q 286 848 286 834 q 282 868 286 859 q 270 886 277 878 q 247 898 260 894 q 213 903 233 903 q 183 899 197 903 q 159 888 170 895 q 147 874 151 882 q 142 857 142 866 l 31 857 q 46 915 31 889 q 85 958 60 940 q 141 984 109 975 q 210 993 174 993 q 286 984 252 993 q 345 958 320 975 q 383 915 370 941 q 397 855 397 888 q 389 815 397 833 q 367 783 380 798 q 343 765 356 773 q 314 751 330 757 q 348 738 333 746 q 375 720 363 730 q 398 685 390 705 q 406 640 406 665 q 391 579 406 606 q 350 535 376 553 q 288 507 323 517 q 211 498 252 498 q 143 506 176 498 q 83 532 109 514 q 40 577 57 550 q 24 644 24 605 l 136 644 q 140 624 136 633 q 155 606 145 614 q 180 593 165 598 q 216 587 196 587 q 252 592 237 587 q 277 606 267 597 q 290 625 286 614 q 294 648 294 635 q 289 673 294 663 q 277 691 285 684 q 248 706 266 701 q 207 711 230 711 l 155 711 l 155 788 m 334 155 l 250 200 l 597 841 l 681 795 l 334 155 "},"Æ":{"ha":833,"x_min":28,"x_max":804,"o":"m 804 0 l 441 0 l 441 232 l 267 232 l 195 0 l 28 0 l 376 987 l 789 987 l 789 854 l 595 854 l 595 576 l 767 576 l 767 444 l 595 444 l 596 132 l 804 132 l 804 0 m 311 376 l 441 376 l 440 786 l 311 376 "},"æ":{"ha":833,"x_min":31,"x_max":810,"o":"m 597 -14 q 524 -5 557 -14 q 465 20 491 3 q 433 44 448 31 q 406 75 418 58 q 377 41 393 57 q 340 13 360 24 q 293 -6 318 1 q 239 -14 269 -14 q 150 2 188 -14 q 85 44 111 17 q 44 111 58 71 q 31 198 31 150 q 46 292 31 250 q 92 363 62 334 q 187 417 129 399 q 323 436 245 436 l 342 436 l 342 525 q 337 568 342 549 q 321 597 332 586 q 301 611 313 606 q 275 616 290 616 q 240 610 255 616 q 216 591 225 604 q 202 566 207 581 q 198 531 198 551 l 45 536 q 60 624 45 585 q 105 690 76 663 q 176 732 134 718 q 269 747 217 747 q 328 742 300 747 q 378 725 355 736 q 406 709 393 718 q 430 688 419 699 q 454 708 441 699 q 482 724 467 718 q 530 742 504 736 q 587 747 557 748 q 680 729 639 747 q 750 676 722 710 q 794 593 779 642 q 810 483 810 544 l 810 320 l 488 320 l 488 260 q 491 224 488 241 q 498 193 494 207 q 513 165 503 178 q 536 142 522 152 q 574 123 551 130 q 626 117 597 117 q 669 120 650 117 q 704 130 688 124 q 733 142 720 136 q 759 156 746 149 l 793 42 q 763 23 782 33 q 720 5 745 13 q 664 -8 695 -3 q 597 -14 633 -14 m 277 110 q 297 113 286 110 q 317 121 307 116 q 331 131 324 125 q 342 142 337 136 q 342 182 342 165 q 342 224 342 198 q 342 272 342 253 q 342 323 342 291 l 324 323 q 268 313 292 323 q 226 286 243 302 q 200 244 209 267 q 191 195 191 221 q 196 161 191 177 q 212 135 201 146 q 239 116 222 123 q 277 110 255 110 m 659 435 l 659 515 q 653 555 659 537 q 639 587 648 574 q 614 608 629 600 q 578 616 599 616 q 550 612 563 616 q 528 600 537 608 q 507 575 515 589 q 495 542 499 560 q 490 512 492 528 q 488 479 488 496 l 488 435 l 659 435 "},"Œ":{"ha":833,"x_min":50,"x_max":807,"o":"m 807 0 l 519 0 q 432 -10 477 -5 q 339 -14 387 -14 q 222 8 275 -14 q 131 73 169 30 q 71 183 92 117 q 50 338 50 250 l 50 649 q 71 803 50 737 q 130 913 92 869 q 220 980 168 958 q 338 1002 273 1002 q 431 997 385 1002 q 519 987 477 993 l 800 987 l 800 859 l 550 859 l 550 576 l 765 576 l 765 448 l 550 448 l 550 134 l 807 134 l 807 0 m 339 120 q 371 121 355 120 q 404 122 387 121 l 404 870 q 371 872 387 871 q 338 873 354 873 q 278 862 304 873 q 235 826 252 852 q 208 758 217 800 q 198 650 198 715 l 198 338 q 208 233 198 275 q 235 166 217 191 q 279 131 253 141 q 339 120 306 120 "},"œ":{"ha":833,"x_min":28,"x_max":808,"o":"m 28 434 q 44 564 28 506 q 91 663 60 622 q 166 725 121 703 q 269 747 211 747 q 332 739 302 747 q 386 716 361 731 q 410 698 399 708 q 431 676 421 688 q 455 701 443 690 q 481 720 468 712 q 530 741 504 734 q 583 747 555 748 q 681 726 639 747 q 751 667 723 705 q 793 575 779 628 q 808 457 808 522 l 808 320 l 512 320 l 512 288 q 514 247 512 266 q 520 210 515 227 q 533 173 526 189 q 552 145 541 157 q 583 124 565 132 q 625 117 602 117 q 662 120 646 117 q 691 128 677 123 q 715 139 704 133 q 738 153 727 145 l 777 46 q 751 24 766 35 q 718 5 736 14 q 671 -8 696 -3 q 614 -14 646 -14 q 545 -5 577 -14 q 486 18 513 3 q 459 37 472 27 q 435 60 446 47 q 412 35 425 46 q 385 16 399 24 q 332 -6 361 1 q 270 -14 303 -14 q 167 8 212 -14 q 91 70 122 30 q 44 168 60 111 q 28 298 28 226 l 28 434 m 184 298 q 189 218 184 254 q 205 159 194 182 q 231 128 216 139 q 270 117 247 117 q 301 124 288 117 q 323 144 315 132 q 340 174 334 157 q 349 208 346 191 q 354 250 352 227 q 355 298 355 273 l 355 434 q 354 478 355 457 q 351 516 353 498 q 345 543 348 530 q 336 566 341 556 q 310 603 326 590 q 269 616 293 616 q 229 603 245 616 q 203 566 213 589 q 188 509 193 543 q 184 434 184 475 l 184 298 m 583 616 q 561 611 571 616 q 543 597 551 606 q 527 569 534 586 q 517 527 521 551 q 513 491 515 511 q 512 450 512 472 l 512 439 l 654 439 l 654 496 q 650 545 654 523 q 637 583 646 567 q 615 607 628 598 q 583 616 602 616 "},"ð":{"ha":833,"x_min":36,"x_max":736,"o":"m 594 863 q 699 677 661 785 q 736 435 736 569 l 736 391 q 727 288 736 336 q 701 198 718 239 q 640 102 676 144 q 557 33 604 60 q 474 -2 519 9 q 380 -14 429 -14 q 240 12 304 -14 q 132 83 177 37 q 61 188 85 127 q 36 317 36 248 q 60 457 36 394 q 127 565 83 520 q 232 634 171 610 q 368 659 294 659 q 471 640 422 659 q 557 589 519 621 q 516 700 542 651 q 455 786 490 749 l 284 690 l 233 762 l 383 848 q 333 877 359 864 q 279 899 307 889 l 330 1029 q 436 989 387 1015 q 529 928 486 964 l 673 1009 l 724 937 l 594 863 m 383 117 q 435 124 411 117 q 481 147 460 132 q 524 191 505 165 q 554 252 543 217 q 569 312 564 279 q 574 380 574 345 l 574 425 q 574 437 574 431 q 574 455 574 444 q 502 509 552 486 q 374 532 452 532 q 300 514 333 532 q 245 467 268 497 q 210 399 222 438 q 198 317 198 360 q 211 242 198 278 q 247 178 223 206 q 305 133 271 150 q 383 117 339 117 "},"Þ":{"ha":833,"x_min":101,"x_max":780,"o":"m 264 987 l 264 798 l 432 798 q 581 775 516 798 q 690 714 646 753 q 757 620 734 675 q 780 500 780 565 q 757 381 780 435 q 690 287 734 326 q 581 225 646 247 q 432 203 516 203 l 264 203 l 264 0 l 101 0 l 101 987 l 264 987 m 264 666 l 264 334 l 432 334 q 516 348 481 334 q 574 385 551 361 q 607 437 597 408 q 618 499 618 467 q 607 562 618 532 q 574 615 597 592 q 516 652 551 638 q 432 666 481 666 l 264 666 "},"þ":{"ha":833,"x_min":106,"x_max":747,"o":"m 747 359 q 729 212 747 280 q 675 94 711 143 q 585 15 638 43 q 463 -14 532 -14 q 389 -5 423 -14 q 328 19 355 3 q 296 41 311 28 q 269 68 281 53 l 269 -282 l 106 -282 l 106 1050 l 269 1050 l 269 665 q 301 696 283 682 q 338 720 319 710 q 395 741 364 734 q 461 747 425 747 q 585 720 531 747 q 675 644 638 693 q 729 525 711 594 q 747 374 747 456 l 747 359 m 585 374 q 575 467 585 423 q 546 543 566 511 q 493 595 525 576 q 416 614 460 614 q 369 608 391 614 q 330 593 347 603 q 295 565 310 582 q 269 528 279 549 l 269 203 q 292 169 279 184 q 323 142 305 154 q 365 124 341 131 q 417 117 389 117 q 494 137 463 117 q 547 189 526 156 q 576 267 567 223 q 585 359 585 311 l 585 374 "},"ĸ":{"ha":833,"x_min":115,"x_max":799,"o":"m 386 304 l 277 210 l 277 0 l 115 0 l 115 734 l 277 734 l 277 396 l 351 480 l 581 734 l 781 734 l 499 421 l 799 0 l 592 0 l 386 304 "},"ß":{"ha":833,"x_min":112,"x_max":778,"o":"m 273 0 l 112 0 l 112 733 q 134 872 112 811 q 195 975 156 933 q 288 1037 234 1015 q 407 1058 342 1058 q 506 1043 459 1058 q 589 999 553 1029 q 645 924 624 968 q 665 818 665 879 q 652 732 665 765 q 625 674 639 699 q 598 624 610 649 q 586 562 586 598 q 600 512 586 535 q 635 466 614 488 q 682 419 656 443 q 728 368 707 395 q 764 305 749 339 q 778 228 778 271 q 760 123 778 168 q 709 47 743 78 q 629 1 676 17 q 522 -14 581 -14 q 467 -11 495 -14 q 412 -2 438 -8 q 363 11 385 3 q 327 29 340 19 l 359 160 q 388 145 371 153 q 425 132 404 138 q 468 121 445 125 q 514 117 490 117 q 557 124 538 117 q 589 144 576 132 q 609 179 602 159 q 616 222 616 199 q 602 276 616 252 q 566 323 587 300 q 520 368 545 345 q 473 418 495 391 q 438 479 452 445 q 423 558 423 513 q 434 624 423 596 q 460 677 446 652 q 483 719 472 697 q 498 770 493 741 q 500 813 502 793 q 490 853 498 834 q 468 890 482 876 q 437 913 454 905 q 395 917 416 920 q 355 903 374 915 q 296 846 318 889 q 273 731 273 803 l 273 0 "},"ə":{"ha":833,"x_min":112,"x_max":767,"o":"m 412 748 q 560 720 494 748 q 672 644 626 692 q 742 529 718 595 q 767 385 767 463 l 767 357 q 742 208 767 276 q 671 92 716 140 q 565 14 627 42 q 431 -13 503 -14 q 292 11 352 -13 q 193 79 232 35 q 132 182 152 121 q 112 316 112 243 l 112 413 l 603 413 q 603 417 603 415 q 602 421 602 418 q 583 496 597 461 q 546 557 569 531 q 485 601 521 585 q 402 617 449 617 q 330 612 362 617 q 270 597 297 606 q 223 577 245 589 q 182 554 201 566 l 130 661 q 177 692 150 677 q 240 721 204 708 q 318 741 275 733 q 412 748 361 748 m 431 118 q 494 131 465 118 q 544 169 522 144 q 579 224 565 192 q 600 294 593 256 l 272 294 l 272 277 q 281 215 272 243 q 310 164 291 186 q 360 131 330 143 q 431 118 390 118 "},"$":{"ha":833,"x_min":96,"x_max":760,"o":"m 597 257 q 588 310 597 286 q 559 354 579 334 q 505 391 538 374 q 427 423 473 408 q 306 472 360 446 q 214 535 252 499 q 155 617 176 570 q 134 728 134 665 q 153 832 134 785 q 205 915 172 880 q 288 971 239 949 q 396 999 336 992 l 396 1146 l 501 1146 l 501 998 q 603 967 557 990 q 681 909 648 945 q 736 811 717 868 q 755 682 755 755 l 594 682 q 583 762 594 727 q 551 821 572 797 q 505 854 532 842 q 444 867 477 867 q 377 856 405 867 q 330 827 349 846 q 304 784 313 808 q 296 729 296 759 q 305 676 296 699 q 335 634 314 653 q 389 597 355 614 q 470 564 422 581 q 590 513 536 540 q 682 451 644 486 q 740 368 720 415 q 760 258 760 321 q 741 152 760 199 q 686 71 722 104 q 600 15 650 36 q 488 -12 550 -5 l 488 -143 l 383 -143 l 383 -12 q 276 14 328 -6 q 184 71 224 33 q 120 164 144 108 q 96 300 96 221 l 258 300 q 274 213 258 248 q 314 158 290 178 q 370 129 338 137 q 433 120 401 120 q 505 130 473 120 q 557 159 536 140 q 587 202 577 177 q 597 257 597 227 "},"¢":{"ha":833,"x_min":98,"x_max":743,"o":"m 435 117 q 494 126 466 117 q 544 152 522 135 q 578 192 566 169 q 590 243 591 215 l 743 243 q 724 154 743 195 q 671 79 705 112 q 593 22 638 45 q 496 -9 547 0 l 496 -166 l 365 -166 l 365 -7 q 249 38 298 5 q 165 119 199 71 q 115 227 132 167 q 98 355 98 288 l 98 378 q 115 505 98 445 q 165 614 132 566 q 249 696 199 663 q 365 741 298 729 l 365 894 l 496 894 l 496 743 q 597 711 551 734 q 675 652 642 688 q 725 570 707 616 q 743 471 743 524 l 590 471 q 579 527 591 500 q 547 573 568 553 q 498 604 526 593 q 435 616 469 616 q 351 595 385 616 q 298 541 317 574 q 269 465 277 508 q 260 378 260 422 l 260 355 q 268 267 260 310 q 297 191 277 224 q 351 137 317 157 q 435 117 385 117 "},"£":{"ha":833,"x_min":77,"x_max":789,"o":"m 352 408 l 357 283 q 353 232 357 257 q 342 185 350 208 q 331 157 338 171 q 315 132 324 144 l 789 132 l 788 0 l 80 0 l 80 132 l 136 132 q 164 152 153 136 q 182 189 175 168 q 190 234 188 210 q 193 278 193 258 l 188 408 l 77 408 l 77 538 l 184 538 l 178 705 q 201 830 178 774 q 264 923 224 885 q 361 981 304 961 q 484 1001 417 1001 q 607 981 553 1001 q 699 926 662 962 q 755 840 736 890 q 775 728 775 790 l 616 728 q 605 793 616 767 q 574 837 594 820 q 530 861 555 854 q 477 869 505 869 q 424 858 448 869 q 380 827 399 847 q 352 775 363 806 q 342 705 342 744 l 348 538 l 561 538 l 561 408 l 352 408 "},"¥":{"ha":833,"x_min":18,"x_max":822,"o":"m 336 0 l 336 205 l 93 205 l 93 304 l 336 304 l 336 401 l 93 401 l 93 501 l 289 501 l 18 987 l 200 987 l 396 598 l 419 551 l 420 551 l 444 598 l 640 987 l 822 987 l 551 501 l 740 501 l 740 401 l 499 401 l 499 304 l 740 304 l 740 205 l 499 205 l 499 0 l 336 0 "},"ƒ":{"ha":833,"x_min":104,"x_max":758,"o":"m 627 612 l 485 612 l 485 -20 q 467 -138 485 -87 q 416 -225 450 -190 q 334 -278 382 -260 q 224 -296 286 -296 q 163 -291 193 -296 q 104 -271 134 -286 l 114 -142 q 163 -159 130 -153 q 212 -165 196 -165 q 253 -158 235 -165 q 284 -140 271 -151 q 313 -91 304 -121 q 323 -20 323 -60 l 323 612 l 209 612 l 209 734 l 323 734 l 323 793 q 344 913 323 861 q 404 1000 365 965 q 500 1053 444 1035 q 627 1072 557 1072 q 692 1064 661 1072 q 758 1044 724 1056 l 741 918 q 700 932 723 927 q 648 938 676 938 q 574 927 606 937 q 523 899 543 918 q 494 854 503 880 q 485 793 485 827 l 485 734 l 627 734 l 627 612 "},"₣":{"ha":833,"x_min":5,"x_max":755,"o":"m 695 420 l 277 420 l 277 0 l 113 0 l 113 987 l 755 987 l 755 852 l 277 852 l 277 555 l 695 555 l 695 420 m 458 163 l 5 163 l 5 277 l 458 277 l 458 163 "},"₤":{"ha":833,"x_min":73,"x_max":785,"o":"m 560 319 l 351 319 l 353 283 q 350 236 353 259 q 340 192 347 213 q 328 160 336 176 q 311 132 321 145 l 785 132 l 784 0 l 76 0 l 76 132 l 132 132 q 160 152 149 136 q 178 189 171 168 q 186 234 184 210 q 189 278 189 258 l 186 319 l 73 319 l 73 414 l 184 414 l 181 498 l 73 498 l 73 593 l 178 593 l 174 705 q 197 830 174 774 q 260 923 219 885 q 356 981 300 961 q 479 1001 412 1001 q 603 981 549 1001 q 694 926 657 962 q 751 840 732 890 q 771 728 771 790 l 612 728 q 601 793 612 767 q 570 837 589 820 q 525 861 551 854 q 472 869 500 869 q 419 858 444 869 q 376 827 394 847 q 348 775 358 806 q 338 705 338 744 l 341 593 l 560 593 l 560 498 l 345 498 l 348 414 l 560 414 l 560 319 "},"₧":{"ha":833,"x_min":85,"x_max":817,"o":"m 802 634 l 684 634 l 684 201 q 689 151 684 172 q 703 119 694 131 q 723 102 711 107 q 749 97 735 97 q 777 100 762 97 q 798 106 791 104 l 817 14 q 772 -6 801 1 q 715 -14 744 -14 q 651 -2 680 -14 q 599 37 621 10 q 565 103 577 62 q 553 202 553 144 l 553 634 l 494 634 q 470 532 488 578 q 422 452 452 486 q 351 400 392 419 q 257 382 309 382 l 216 382 l 216 0 l 85 0 l 85 987 l 257 987 q 351 969 310 987 q 422 917 393 950 q 471 836 452 883 q 494 734 489 789 l 553 734 l 553 911 l 684 911 l 684 734 l 802 734 l 802 634 m 216 488 l 257 488 q 307 505 286 488 q 340 549 327 522 q 359 611 353 576 q 365 683 365 646 q 359 756 365 721 q 340 821 353 792 q 307 864 328 848 q 257 881 286 881 l 216 881 l 216 488 "},"¤":{"ha":833,"x_min":62,"x_max":785,"o":"m 621 55 q 529 4 579 22 q 422 -14 478 -14 q 316 4 366 -14 q 224 54 266 22 l 155 -18 l 62 77 l 136 153 q 99 244 112 195 q 85 347 85 293 q 100 455 85 404 q 142 549 115 506 l 62 631 l 155 726 l 233 645 q 321 690 273 674 q 422 705 369 705 q 523 689 475 705 q 612 644 571 673 l 692 726 l 785 631 l 703 546 q 743 453 729 503 q 758 347 758 403 q 745 245 758 293 q 708 156 732 197 l 785 77 l 692 -18 l 621 55 m 208 347 q 224 254 208 297 q 270 179 241 211 q 338 128 298 146 q 422 109 377 109 q 506 128 467 109 q 574 179 545 146 q 619 254 603 211 q 635 347 635 297 q 619 439 635 396 q 574 514 603 482 q 506 564 545 545 q 422 583 467 583 q 338 564 377 583 q 270 514 298 545 q 224 439 241 482 q 208 347 208 396 "},"!":{"ha":833,"x_min":316,"x_max":509,"o":"m 488 334 l 336 334 l 329 987 l 494 987 l 488 334 m 316 81 q 341 147 316 121 q 412 174 366 174 q 484 147 458 174 q 509 81 509 121 q 484 17 509 43 q 412 -9 458 -9 q 341 17 366 -9 q 316 81 316 43 "},"¡":{"ha":833,"x_min":332,"x_max":525,"o":"m 351 396 l 503 396 l 509 -256 l 344 -256 l 351 396 m 525 654 q 499 590 525 616 q 428 564 473 564 q 357 590 382 564 q 332 654 332 616 q 357 721 332 694 q 428 748 382 748 q 499 721 473 748 q 525 654 525 694 "},"?":{"ha":833,"x_min":117,"x_max":733,"o":"m 342 291 q 345 371 342 338 q 357 429 348 403 q 386 476 367 454 q 437 526 405 498 q 484 572 460 548 q 527 623 507 596 q 558 676 546 648 q 570 733 570 704 q 561 790 570 766 q 534 831 551 815 q 488 857 515 848 q 425 865 460 865 q 372 858 397 865 q 326 836 346 851 q 293 798 305 821 q 280 741 280 774 l 117 741 q 142 854 118 805 q 208 935 166 903 q 304 985 249 968 q 425 1002 360 1002 q 555 984 498 1002 q 652 934 612 967 q 712 852 691 901 q 733 740 733 803 q 716 650 733 691 q 673 573 700 609 q 615 505 648 537 q 549 444 582 473 q 517 408 529 425 q 501 374 506 391 q 494 337 496 357 q 493 291 493 317 l 342 291 m 319 82 q 345 149 319 122 q 416 175 370 175 q 487 149 461 175 q 513 82 513 122 q 487 18 513 44 q 416 -8 461 -8 q 345 18 370 -8 q 319 82 319 44 "},"¿":{"ha":833,"x_min":138,"x_max":723,"o":"m 517 443 q 515 364 517 396 q 504 307 513 332 q 476 259 494 281 q 425 210 458 237 q 381 163 404 187 q 341 112 359 138 q 311 57 323 85 q 300 -3 300 28 q 308 -57 300 -33 q 332 -97 316 -81 q 372 -122 347 -114 q 427 -131 397 -131 q 477 -124 454 -131 q 520 -102 501 -117 q 549 -64 538 -87 q 561 -8 560 -41 l 723 -8 q 700 -120 722 -72 q 637 -201 677 -168 q 545 -250 598 -233 q 429 -267 491 -267 q 307 -249 361 -267 q 215 -198 252 -232 q 157 -116 177 -165 q 138 -5 138 -68 q 153 85 138 43 q 195 163 169 126 q 251 232 219 199 q 313 293 282 264 q 345 329 334 313 q 360 361 355 345 q 366 397 365 378 q 367 443 366 416 l 517 443 m 357 652 q 376 712 357 688 q 441 736 395 736 q 507 712 487 736 q 527 652 527 688 q 507 595 527 618 q 441 572 487 572 q 376 595 395 572 q 357 652 357 618 "},",":{"ha":833,"x_min":242,"x_max":463,"o":"m 463 21 q 427 -128 463 -52 q 333 -256 391 -203 l 242 -208 q 287 -106 271 -159 q 303 15 303 -52 l 303 158 l 463 158 l 463 21 "},".":{"ha":833,"x_min":307,"x_max":543,"o":"m 307 98 q 337 178 307 144 q 425 211 368 211 q 511 178 480 211 q 543 98 543 145 q 511 18 543 50 q 425 -14 479 -14 q 338 19 369 -14 q 307 98 307 51 "},":":{"ha":833,"x_min":327,"x_max":562,"o":"m 327 98 q 357 178 327 144 q 444 211 387 211 q 531 178 500 211 q 562 98 562 145 q 531 18 562 50 q 444 -14 499 -14 q 358 19 389 -14 q 327 98 327 51 m 327 672 q 357 752 327 719 q 444 785 387 785 q 531 752 500 785 q 562 672 562 720 q 531 593 562 625 q 444 561 499 561 q 358 593 389 561 q 327 672 327 625 "},";":{"ha":833,"x_min":310,"x_max":575,"o":"m 340 672 q 370 752 340 719 q 457 785 400 785 q 544 752 513 785 q 575 672 575 720 q 544 593 575 625 q 457 561 512 561 q 371 593 401 561 q 340 672 340 625 m 530 21 q 495 -128 530 -52 q 401 -256 459 -203 l 310 -208 q 355 -106 339 -159 q 371 15 371 -52 l 371 158 l 530 158 l 530 21 "},"…":{"ha":833,"x_min":115,"x_max":880,"o":"m 115 97 q 145 177 115 144 q 233 210 176 210 q 319 177 288 210 q 351 97 351 144 q 319 18 351 50 q 233 -14 288 -14 q 146 18 177 -14 q 115 97 115 50 m 382 97 q 412 177 382 144 q 499 210 442 210 q 586 177 555 210 q 617 97 617 144 q 586 18 617 50 q 499 -14 554 -14 q 413 18 444 -14 q 382 97 382 50 m 644 97 q 674 177 644 144 q 762 210 705 210 q 848 177 817 210 q 880 97 880 144 q 848 18 880 50 q 762 -14 817 -14 q 675 18 706 -14 q 644 97 644 50 "},"·":{"ha":833,"x_min":338,"x_max":528,"o":"m 338 484 q 363 548 338 522 q 433 574 388 574 q 502 549 477 574 q 528 484 528 523 q 502 419 528 444 q 433 393 477 393 q 363 419 388 393 q 338 484 338 445 "},"•":{"ha":833,"x_min":276,"x_max":576,"o":"m 276 534 q 287 593 276 566 q 316 639 297 620 q 363 669 335 658 q 425 680 391 680 q 488 669 460 680 q 536 639 516 658 q 566 593 555 620 q 576 534 576 566 l 576 495 q 565 437 576 463 q 536 391 555 410 q 488 361 516 372 q 426 351 460 351 q 363 361 391 351 q 317 391 336 372 q 287 437 297 410 q 276 495 276 463 l 276 534 "},"_":{"ha":833,"x_min":102,"x_max":722,"o":"m 722 -128 l 102 -128 l 102 0 l 722 0 l 722 -128 "},"-":{"ha":833,"x_min":173,"x_max":719,"o":"m 719 368 l 173 368 l 173 500 l 719 500 l 719 368 "},"–":{"ha":833,"x_min":45,"x_max":794,"o":"m 794 422 l 45 422 l 45 554 l 794 554 l 794 422 "},"—":{"ha":833,"x_min":45,"x_max":793,"o":"m 793 422 l 45 422 l 45 554 l 793 554 l 793 422 "},"'":{"ha":833,"x_min":321,"x_max":450,"o":"m 450 954 l 433 692 l 321 692 l 321 950 l 321 1042 l 450 1042 l 450 954 "},"\"":{"ha":833,"x_min":212,"x_max":599,"o":"m 336 968 l 318 698 l 212 698 l 212 962 l 212 1042 l 336 1042 l 336 968 m 599 968 l 582 698 l 475 698 l 475 963 l 475 1042 l 599 1042 l 599 968 "},"‘":{"ha":833,"x_min":333,"x_max":534,"o":"m 333 805 q 342 874 333 838 q 367 946 351 911 q 405 1012 383 981 q 455 1067 427 1043 l 534 1015 q 489 919 506 970 q 473 806 473 869 l 473 694 l 333 694 l 333 805 "},"’":{"ha":833,"x_min":315,"x_max":515,"o":"m 515 947 q 506 878 515 914 q 481 807 497 842 q 443 741 465 772 q 393 686 420 709 l 315 737 q 359 833 343 783 q 376 947 376 884 l 376 1057 l 515 1057 l 515 947 "},"‚":{"ha":833,"x_min":309,"x_max":513,"o":"m 513 47 q 504 -22 513 14 q 479 -93 495 -58 q 440 -159 463 -127 q 391 -214 418 -190 l 309 -162 q 353 -66 337 -117 q 368 46 368 -16 l 368 170 l 513 170 l 513 47 "},"“":{"ha":833,"x_min":222,"x_max":649,"o":"m 222 805 q 231 874 222 838 q 256 946 239 911 q 294 1012 272 981 q 344 1067 316 1043 l 422 1015 q 378 919 395 970 q 361 806 361 869 l 361 694 l 222 694 l 222 805 m 448 805 q 457 874 448 838 q 482 946 466 911 q 520 1012 498 981 q 570 1067 543 1043 l 649 1015 q 605 919 621 970 q 588 806 588 869 l 588 694 l 448 694 l 448 805 "},"”":{"ha":833,"x_min":203,"x_max":640,"o":"m 404 947 q 395 878 404 914 q 371 807 387 842 q 332 741 354 772 q 283 686 310 709 l 204 737 q 249 833 233 783 q 265 947 265 884 l 265 1057 l 404 1057 l 404 947 m 640 947 q 631 878 640 914 q 606 807 622 842 q 567 741 589 772 q 518 686 545 709 l 439 737 q 484 833 468 783 q 500 947 500 884 l 500 1057 l 640 1057 l 640 947 "},"„":{"ha":833,"x_min":212,"x_max":628,"o":"m 416 46 q 408 -23 416 13 q 384 -94 399 -60 q 346 -160 368 -129 q 297 -216 324 -192 l 212 -163 q 256 -68 241 -118 q 272 45 272 -18 l 272 156 l 416 156 l 416 46 m 627 46 q 618 -23 627 13 q 594 -94 610 -60 q 556 -160 578 -129 q 507 -216 534 -192 l 422 -163 q 467 -68 450 -118 q 484 45 484 -18 l 484 156 l 628 156 l 627 46 "},"′":{"ha":833,"x_min":321,"x_max":450,"o":"m 450 954 l 433 692 l 321 692 l 321 950 l 321 1042 l 450 1042 l 450 954 "},"″":{"ha":833,"x_min":212,"x_max":599,"o":"m 336 968 l 318 698 l 212 698 l 212 962 l 212 1042 l 336 1042 l 336 968 m 599 968 l 582 698 l 475 698 l 475 963 l 475 1042 l 599 1042 l 599 968 "},"(":{"ha":833,"x_min":237,"x_max":605,"o":"m 237 401 q 252 582 237 497 q 292 740 267 667 q 352 871 318 811 q 422 977 385 930 q 498 1055 459 1023 q 572 1105 536 1087 l 605 1010 q 562 971 583 994 q 519 919 540 948 q 464 822 490 878 q 420 701 439 766 q 394 564 404 639 q 384 403 384 490 l 384 389 q 393 231 384 304 q 416 107 403 158 q 453 -6 432 46 q 498 -98 475 -58 q 551 -170 524 -139 q 605 -222 578 -201 l 572 -313 q 498 -263 536 -296 q 422 -185 459 -231 q 351 -80 385 -139 q 292 52 317 -20 q 252 209 267 124 q 237 390 237 293 l 237 401 "},")":{"ha":833,"x_min":216,"x_max":589,"o":"m 589 390 q 573 211 589 295 q 532 55 558 127 q 473 -77 507 -18 q 401 -183 439 -137 q 323 -263 363 -231 q 248 -313 284 -296 l 216 -222 q 267 -174 241 -203 q 317 -107 293 -145 q 366 -12 343 -65 q 404 106 389 41 q 428 236 419 165 q 436 389 436 307 l 436 403 q 427 559 436 488 q 403 686 417 630 q 357 818 384 760 q 301 919 330 876 q 259 974 281 949 q 216 1014 237 998 l 248 1105 q 324 1054 284 1087 q 401 975 363 1021 q 473 868 439 928 q 532 736 507 809 q 573 582 557 665 q 589 401 589 498 l 589 390 "},"[":{"ha":833,"x_min":279,"x_max":568,"o":"m 568 1011 l 437 1011 l 437 -93 l 568 -93 l 568 -220 l 279 -220 l 279 1139 l 568 1139 l 568 1011 "},"]":{"ha":833,"x_min":273,"x_max":562,"o":"m 273 1139 l 562 1139 l 562 -220 l 273 -220 l 273 -93 l 404 -93 l 404 1011 l 273 1011 l 273 1139 "},"{":{"ha":833,"x_min":214,"x_max":667,"o":"m 648 -246 q 533 -216 582 -245 q 453 -141 484 -187 q 406 -40 421 -96 q 391 70 391 16 l 391 182 q 348 317 391 275 q 214 358 304 358 l 214 478 q 348 519 304 478 q 391 655 391 561 l 391 768 q 407 884 391 824 q 456 989 422 943 q 533 1056 486 1030 q 648 1083 581 1082 l 667 989 q 598 969 623 989 q 561 917 573 949 q 546 846 549 885 q 544 768 544 806 l 544 655 q 505 512 544 574 q 385 418 466 450 q 505 325 467 386 q 544 182 543 263 l 544 70 q 549 -8 544 31 q 568 -79 554 -47 q 606 -131 583 -111 q 667 -151 630 -151 l 648 -246 "},"}":{"ha":833,"x_min":222,"x_max":677,"o":"m 222 -151 q 283 -131 259 -151 q 321 -79 307 -111 q 341 -8 336 -47 q 347 70 347 31 l 347 182 q 359 267 347 227 q 396 338 371 307 q 440 384 414 363 q 500 418 467 404 q 447 447 471 430 q 404 486 422 465 q 361 563 375 519 q 347 655 347 606 l 347 768 q 344 846 347 806 q 330 917 341 885 q 292 969 317 949 q 223 989 267 989 l 242 1083 q 360 1054 312 1082 q 439 980 409 1026 q 485 878 471 935 q 499 768 499 821 l 499 655 q 506 586 499 616 q 529 535 513 556 q 587 492 549 506 q 677 478 624 478 l 677 358 q 587 344 623 358 q 529 300 550 330 q 507 250 514 279 q 499 182 499 220 l 499 70 q 484 -40 499 16 q 437 -141 468 -96 q 357 -216 406 -187 q 242 -246 309 -245 l 222 -151 "},"‹":{"ha":833,"x_min":267,"x_max":573,"o":"m 405 364 l 573 94 l 462 94 l 267 358 l 267 371 l 462 635 l 573 635 l 405 364 "},"›":{"ha":833,"x_min":264,"x_max":571,"o":"m 376 635 l 571 370 l 571 357 l 376 93 l 264 93 l 433 363 l 264 635 l 376 635 "},"+":{"ha":833,"x_min":73,"x_max":749,"o":"m 490 542 l 749 542 l 749 389 l 490 389 l 490 99 l 333 99 l 333 389 l 73 389 l 73 542 l 333 542 l 333 818 l 490 818 l 490 542 "},"−":{"ha":833,"x_min":106,"x_max":683,"o":"m 683 422 l 106 422 l 106 554 l 683 554 l 683 422 "},"±":{"ha":833,"x_min":102,"x_max":724,"o":"m 490 610 l 724 610 l 724 476 l 490 476 l 490 212 l 346 212 l 346 476 l 102 476 l 102 610 l 346 610 l 346 866 l 490 866 l 490 610 m 699 0 l 123 0 l 123 133 l 699 133 l 699 0 "},"×":{"ha":833,"x_min":113,"x_max":741,"o":"m 113 239 l 329 460 l 114 679 l 213 778 l 427 559 l 642 778 l 741 679 l 526 460 l 741 239 l 642 140 l 427 359 l 212 140 l 113 239 "},"÷":{"ha":833,"x_min":75,"x_max":762,"o":"m 762 396 l 75 396 l 75 538 l 762 538 l 762 396 m 328 741 q 351 802 328 778 q 418 827 375 827 q 486 802 461 827 q 510 741 510 778 q 486 680 510 704 q 418 655 461 655 q 351 680 375 655 q 328 741 328 704 m 326 190 q 350 251 326 226 q 417 276 374 276 q 484 251 460 276 q 509 190 509 227 q 484 129 509 153 q 417 104 460 104 q 350 129 374 104 q 326 190 326 153 "},"=":{"ha":833,"x_min":111,"x_max":738,"o":"m 738 504 l 111 504 l 111 640 l 738 640 l 738 504 m 738 216 l 111 216 l 111 351 l 738 351 l 738 216 "},"≠":{"ha":833,"x_min":108,"x_max":734,"o":"m 734 216 l 366 216 l 307 102 l 237 142 l 275 216 l 108 216 l 108 351 l 346 351 l 425 504 l 108 504 l 108 640 l 496 640 l 551 745 l 621 705 l 587 640 l 734 640 l 734 504 l 516 504 l 437 351 l 734 351 l 734 216 "},"≈":{"ha":833,"x_min":96,"x_max":743,"o":"m 103 595 q 176 668 135 642 q 263 694 218 694 q 349 681 312 695 q 432 643 387 667 q 504 610 471 622 q 579 598 537 598 q 665 625 625 598 q 736 697 705 651 l 743 566 q 673 493 711 519 q 589 467 634 467 q 507 481 544 467 q 427 517 469 495 q 350 552 382 541 q 271 563 319 564 q 184 537 227 563 q 110 464 142 511 l 103 595 m 96 305 q 169 377 129 351 q 254 404 209 404 q 335 393 301 405 q 414 356 368 381 q 491 320 456 334 q 570 307 526 307 q 656 334 615 307 q 730 407 697 361 l 736 275 q 664 203 705 229 q 579 176 624 176 q 500 190 534 176 q 420 226 466 203 q 340 262 371 250 q 263 273 310 273 q 176 246 218 273 q 103 174 135 219 l 96 305 "},"<":{"ha":833,"x_min":110,"x_max":699,"o":"m 699 113 l 110 365 l 110 495 l 699 747 l 699 585 l 309 444 l 268 429 l 309 414 l 699 275 l 699 113 "},">":{"ha":833,"x_min":114,"x_max":720,"o":"m 114 113 l 114 273 l 524 418 l 565 431 l 524 444 l 114 587 l 114 747 l 720 496 l 720 365 l 114 113 "},"≤":{"ha":833,"x_min":121,"x_max":710,"o":"m 710 258 l 121 485 l 121 602 l 710 829 l 710 683 l 321 555 l 279 543 l 321 529 l 710 404 l 710 258 m 701 16 l 125 16 l 125 149 l 701 149 l 701 16 "},"≥":{"ha":833,"x_min":123,"x_max":728,"o":"m 123 267 l 123 411 l 532 542 l 573 553 l 532 565 l 123 694 l 123 838 l 728 611 l 728 493 l 123 267 m 701 16 l 124 16 l 124 148 l 701 148 l 701 16 "},"¬":{"ha":833,"x_min":127,"x_max":692,"o":"m 692 254 l 560 254 l 560 431 l 127 431 l 127 545 l 692 545 l 692 254 "},"/":{"ha":833,"x_min":158,"x_max":694,"o":"m 307 -85 l 158 -85 l 546 987 l 694 987 l 307 -85 "},"∕":{"ha":833,"x_min":158,"x_max":694,"o":"m 307 -85 l 694 987 l 546 987 l 158 -85 l 307 -85 "},"\\":{"ha":833,"x_min":160,"x_max":698,"o":"m 160 987 l 310 987 l 698 -85 l 548 -85 l 160 987 "},"⁄":{"ha":833,"x_min":195,"x_max":627,"o":"m 279 150 l 195 195 l 543 836 l 627 791 l 279 150 "},"%":{"ha":833,"x_min":26,"x_max":806,"o":"m 26 810 q 38 884 26 850 q 74 945 50 919 q 132 986 97 971 q 214 1002 168 1002 q 297 986 262 1002 q 356 945 332 971 q 391 884 379 919 q 403 810 403 850 l 403 758 q 391 685 403 720 q 356 625 379 651 q 297 584 332 599 q 216 568 262 568 q 133 584 169 568 q 74 625 98 599 q 39 685 51 651 q 26 758 26 720 l 26 810 m 140 758 q 143 724 140 741 q 157 694 147 707 q 180 674 165 682 q 216 667 195 667 q 250 674 236 667 q 273 694 264 682 q 286 724 281 707 q 290 758 290 741 l 290 810 q 286 845 290 828 q 273 876 281 862 q 250 896 264 888 q 214 903 235 903 q 179 896 193 903 q 157 876 165 888 q 144 845 148 862 q 140 810 140 828 l 140 758 m 429 229 q 441 302 429 267 q 477 363 453 336 q 536 404 500 389 q 617 419 571 419 q 700 404 665 419 q 759 363 735 389 q 794 302 782 336 q 806 229 806 267 l 806 176 q 794 102 806 137 q 759 42 783 68 q 700 1 735 16 q 618 -14 665 -14 q 536 1 572 -14 q 477 42 500 16 q 441 102 453 68 q 429 176 429 137 l 429 229 m 542 176 q 547 141 542 158 q 561 112 551 125 q 584 91 570 99 q 618 83 598 83 q 655 91 641 83 q 677 112 669 99 q 689 141 686 125 q 692 176 692 157 l 692 229 q 688 263 692 247 q 676 293 684 280 q 652 313 667 305 q 617 321 637 321 q 582 313 596 321 q 559 293 568 306 q 546 263 550 280 q 542 229 542 247 l 542 176 m 277 132 l 191 175 l 574 874 l 659 831 l 277 132 "},"‰":{"ha":833,"x_min":45,"x_max":811,"o":"m 223 203 q 234 276 223 241 q 268 337 245 311 q 322 378 290 363 q 396 393 354 393 q 438 389 419 393 q 474 376 458 385 q 497 362 486 370 q 517 345 508 354 q 534 360 525 353 q 553 373 543 367 q 592 388 571 382 q 637 393 613 393 q 713 378 680 393 q 767 337 745 363 q 800 276 789 311 q 811 203 811 241 l 811 176 q 800 102 811 137 q 768 42 789 68 q 713 1 746 16 q 639 -14 681 -14 q 592 -8 614 -14 q 553 7 571 -3 q 534 19 543 12 q 517 34 525 26 q 499 18 509 25 q 478 5 490 10 q 441 -9 462 -4 q 397 -14 421 -14 q 322 1 355 -14 q 268 42 290 16 q 234 102 245 68 q 223 176 223 137 l 223 203 m 45 810 q 56 884 45 850 q 88 945 66 919 q 141 986 110 970 q 213 1001 172 1001 q 288 986 256 1001 q 342 945 321 970 q 376 884 365 919 q 387 810 387 850 l 387 784 q 376 711 387 745 q 342 651 364 677 q 289 610 321 625 q 214 595 256 595 q 142 610 174 595 q 89 651 111 625 q 56 711 67 677 q 45 784 45 745 l 45 810 m 336 176 q 340 141 336 158 q 351 112 343 125 q 369 91 357 99 q 397 83 381 83 q 427 91 416 83 q 446 112 439 99 q 454 141 452 125 q 456 176 456 157 l 456 203 q 453 237 456 220 q 444 267 450 254 q 425 287 436 279 q 396 295 413 295 q 368 287 379 295 q 349 267 356 279 q 339 237 342 254 q 336 203 336 220 l 336 176 m 153 784 q 156 750 153 766 q 167 721 159 733 q 186 700 174 707 q 214 692 197 692 q 242 700 231 692 q 260 721 254 707 q 271 750 268 733 q 274 784 274 766 l 274 810 q 271 845 274 828 q 260 875 268 861 q 241 895 253 887 q 213 903 230 903 q 184 895 196 903 q 166 875 173 887 q 156 845 159 861 q 153 810 153 828 l 153 784 m 577 176 q 581 141 577 158 q 592 112 584 125 q 611 91 599 99 q 639 83 623 83 q 669 91 657 83 q 687 112 681 99 q 695 141 693 125 q 698 176 698 157 l 698 203 q 695 237 698 220 q 685 267 692 254 q 666 287 677 279 q 637 295 654 295 q 609 287 621 295 q 590 267 597 279 q 580 237 583 254 q 577 203 577 220 l 577 176 m 129 314 l 71 375 l 618 793 l 675 732 l 129 314 "},"|":{"ha":833,"x_min":363,"x_max":474,"o":"m 474 -275 l 363 -275 l 363 987 l 474 987 l 474 -275 "},"¦":{"ha":833,"x_min":338,"x_max":490,"o":"m 338 -183 l 338 355 l 490 355 l 490 -183 l 338 -183 m 490 473 l 338 473 l 338 987 l 490 987 l 490 473 "},"†":{"ha":833,"x_min":75,"x_max":747,"o":"m 747 599 l 491 599 l 491 0 l 328 0 l 328 599 l 75 599 l 75 734 l 328 734 l 328 987 l 491 987 l 491 734 l 747 734 l 747 599 "},"‡":{"ha":833,"x_min":85,"x_max":755,"o":"m 755 0 l 498 0 l 498 -282 l 336 -282 l 336 0 l 85 0 l 85 131 l 336 131 l 336 602 l 85 602 l 85 734 l 336 734 l 336 987 l 498 987 l 498 734 l 755 734 l 755 602 l 498 602 l 498 131 l 755 131 l 755 0 "},"©":{"ha":833,"x_min":60,"x_max":783,"o":"m 585 300 q 574 234 585 262 q 545 186 564 205 q 490 152 524 163 q 415 140 457 140 q 341 155 374 140 q 286 196 308 170 q 250 258 262 222 q 238 337 238 294 l 238 397 q 250 476 238 440 q 286 539 262 513 q 341 580 308 565 q 415 595 374 595 q 491 583 458 595 q 546 549 524 572 q 575 500 565 529 q 585 434 585 471 l 508 434 q 503 475 508 458 q 486 503 497 492 q 457 521 475 515 q 415 526 439 526 q 371 516 390 526 q 340 490 353 507 q 321 449 327 473 q 315 398 315 425 l 315 337 q 321 285 315 309 q 340 245 327 262 q 371 218 353 228 q 415 208 390 208 q 458 214 440 208 q 488 232 476 220 q 502 260 497 243 q 507 300 507 277 l 585 300 m 121 368 q 144 242 121 300 q 208 141 168 184 q 304 72 249 97 q 422 47 359 47 q 539 73 485 47 q 635 141 594 98 q 699 242 675 184 q 722 368 722 300 q 699 492 722 434 q 635 593 675 550 q 539 660 594 635 q 422 684 485 684 q 304 660 359 684 q 208 593 249 635 q 144 492 168 550 q 121 368 121 434 m 60 368 q 90 519 61 449 q 168 640 119 589 q 283 719 217 690 q 422 747 349 747 q 564 718 498 747 q 678 637 629 688 q 754 517 726 586 q 783 368 783 448 q 754 218 783 288 q 678 97 726 149 q 564 16 629 45 q 422 -14 498 -14 q 281 16 347 -14 q 166 97 215 45 q 89 218 117 149 q 60 368 60 288 "},"®":{"ha":833,"x_min":60,"x_max":781,"o":"m 60 367 q 88 516 60 447 q 165 637 116 586 q 279 718 213 688 q 420 747 345 747 q 562 718 496 747 q 676 637 627 688 q 753 516 725 586 q 781 367 781 447 q 753 217 781 286 q 676 96 725 147 q 562 15 627 45 q 420 -14 496 -14 q 279 15 345 -14 q 165 96 213 45 q 88 217 116 147 q 60 367 60 286 m 120 367 q 143 242 120 300 q 207 141 166 184 q 302 73 248 98 q 420 48 357 48 q 538 73 483 48 q 633 141 593 98 q 697 242 674 184 q 721 367 721 300 q 697 492 721 433 q 633 593 674 550 q 538 660 593 635 q 420 684 483 684 q 302 660 357 684 q 207 593 248 635 q 143 492 166 550 q 120 367 120 433 m 346 328 l 346 157 l 271 157 l 271 589 l 414 589 q 534 556 489 589 q 578 458 578 524 q 555 394 578 420 q 486 352 531 368 l 586 157 l 509 157 l 429 328 l 346 328 m 346 396 l 425 396 q 455 400 440 396 q 480 412 469 404 q 497 431 491 420 q 504 456 504 441 q 484 507 504 493 q 414 522 464 522 l 346 522 l 346 396 "},"™":{"ha":833,"x_min":75,"x_max":754,"o":"m 680 874 l 595 621 l 553 621 l 468 874 l 468 621 l 394 621 l 394 987 l 486 987 l 574 728 l 665 987 l 754 987 l 754 621 l 680 621 l 680 874 m 343 923 l 250 923 l 250 623 l 170 623 l 170 923 l 75 923 l 75 987 l 343 987 l 343 923 "},"°":{"ha":833,"x_min":243,"x_max":598,"o":"m 243 819 q 258 889 243 856 q 296 947 272 922 q 353 986 321 972 q 422 1001 386 1001 q 490 986 458 1001 q 546 947 522 972 q 584 889 570 922 q 598 819 598 856 q 584 749 598 782 q 546 692 570 716 q 490 653 522 667 q 422 640 458 640 q 353 653 386 640 q 296 692 321 667 q 258 749 272 716 q 243 819 243 781 m 336 819 q 342 785 336 801 q 361 759 349 770 q 389 740 373 747 q 422 734 405 734 q 455 740 440 734 q 482 758 471 747 q 499 785 493 769 q 506 819 506 801 q 499 854 506 838 q 482 882 493 870 q 455 901 471 895 q 422 907 440 907 q 389 901 405 907 q 361 882 373 895 q 342 854 349 870 q 336 819 336 838 "},"*":{"ha":833,"x_min":106,"x_max":782,"o":"m 368 610 l 106 675 l 147 806 l 399 698 l 378 987 l 515 987 l 491 694 l 741 800 l 782 667 l 517 605 l 695 385 l 583 303 l 439 553 l 296 311 l 184 389 l 368 610 "},"#":{"ha":833,"x_min":33,"x_max":790,"o":"m 456 278 l 302 278 l 251 0 l 140 0 l 191 278 l 33 278 l 33 384 l 210 384 l 250 598 l 85 598 l 85 705 l 270 705 l 323 987 l 433 987 l 381 705 l 536 705 l 588 987 l 699 987 l 646 705 l 790 705 l 790 598 l 627 598 l 587 384 l 739 384 l 739 278 l 568 278 l 516 0 l 405 0 l 456 278 m 321 384 l 476 384 l 515 598 l 361 598 l 321 384 "},"&":{"ha":833,"x_min":60,"x_max":826,"o":"m 60 252 q 73 335 60 297 q 110 406 86 373 q 159 461 131 435 q 222 513 187 488 l 239 526 q 204 580 220 553 q 177 631 188 606 q 156 691 163 661 q 149 753 149 722 q 167 858 149 811 q 219 936 185 904 q 299 985 252 968 q 405 1002 347 1002 q 495 984 454 1002 q 565 936 536 966 q 609 865 593 905 q 625 781 625 825 q 614 716 625 746 q 585 660 604 686 q 540 609 566 633 q 485 564 515 586 l 427 516 l 612 277 q 647 366 634 317 q 659 470 659 414 l 801 470 q 776 302 801 380 q 701 162 751 224 l 826 0 l 638 0 l 589 64 q 548 37 569 50 q 507 16 528 25 q 434 -6 472 1 q 355 -14 397 -14 q 232 5 287 -14 q 139 60 177 25 q 80 145 101 96 q 60 252 60 194 m 359 117 q 406 121 383 117 q 452 134 429 125 q 482 148 467 140 q 511 166 497 156 l 316 423 l 305 414 q 263 371 280 394 q 237 327 246 347 q 225 289 229 307 q 222 258 222 272 q 232 202 222 229 q 258 157 241 176 q 301 127 276 138 q 359 117 327 117 m 301 754 q 305 719 301 736 q 317 684 309 702 q 333 649 323 667 q 355 612 343 631 l 425 666 q 458 695 446 680 q 476 725 471 710 q 483 752 481 739 q 484 774 484 765 q 479 810 484 793 q 463 840 473 827 q 438 862 453 854 q 405 870 423 870 q 359 861 379 870 q 328 836 340 851 q 308 799 314 819 q 301 754 301 778 "},"@":{"ha":833,"x_min":33,"x_max":793,"o":"m 790 549 q 777 429 788 489 q 742 320 765 368 q 683 242 719 272 q 595 212 646 212 q 555 218 573 212 q 522 236 536 224 q 503 258 511 245 q 488 285 494 270 q 467 259 478 271 q 442 237 455 247 q 406 219 425 225 q 365 212 387 212 q 299 230 328 212 q 254 282 271 248 q 230 361 237 315 q 229 464 223 408 q 254 594 235 536 q 304 692 273 652 q 375 755 334 733 q 466 777 416 777 q 548 761 515 777 q 600 722 580 744 l 570 371 q 571 334 568 348 q 580 313 574 321 q 593 304 585 306 q 610 302 601 302 q 647 320 630 302 q 675 372 663 339 q 693 449 687 404 q 699 546 699 494 q 686 694 702 630 q 638 800 671 758 q 557 865 606 843 q 446 886 509 886 q 323 856 378 886 q 229 771 269 826 q 163 636 186 715 q 136 465 139 558 q 149 303 133 373 q 200 187 165 234 q 288 116 235 140 q 412 92 341 92 q 454 95 432 92 q 497 103 475 98 q 536 116 517 109 q 571 132 555 123 l 593 45 q 553 23 575 33 q 506 7 530 14 q 457 -2 481 1 q 410 -5 432 -5 q 238 28 310 -5 q 121 123 167 62 q 54 271 75 184 q 36 465 33 358 q 72 668 40 572 q 159 834 104 764 q 288 943 214 903 q 450 983 361 983 q 596 951 532 983 q 705 863 661 920 q 771 726 749 806 q 790 549 793 646 m 332 464 q 333 399 330 428 q 343 352 336 371 q 363 322 351 332 q 392 312 376 312 q 421 316 407 312 q 447 332 435 321 q 462 348 454 338 q 475 369 469 357 l 476 377 l 502 677 q 489 680 496 679 q 473 682 482 682 q 416 667 441 682 q 375 624 392 652 q 347 556 358 596 q 332 464 336 515 "},"§":{"ha":833,"x_min":58,"x_max":785,"o":"m 785 310 q 770 230 785 266 q 729 168 756 195 q 701 144 716 155 q 668 124 686 133 q 701 96 686 111 q 726 63 715 81 q 752 4 744 37 q 761 -69 761 -28 q 736 -177 761 -130 q 667 -255 712 -223 q 560 -304 623 -288 q 420 -321 497 -321 q 288 -306 353 -321 q 172 -258 222 -292 q 90 -170 121 -225 q 58 -33 58 -115 l 220 -32 q 238 -107 220 -77 q 284 -156 256 -138 q 349 -182 313 -174 q 420 -189 385 -189 q 504 -178 468 -189 q 562 -149 539 -168 q 590 -114 580 -134 q 600 -71 600 -94 q 589 -24 600 -44 q 552 14 578 -3 q 508 37 534 26 q 447 60 482 48 q 361 86 409 73 q 273 114 313 99 q 204 144 236 128 q 148 181 172 161 q 84 259 106 214 q 62 368 62 304 q 75 443 62 408 q 112 504 87 477 q 141 530 125 518 q 178 553 158 543 q 149 577 162 564 q 125 605 136 591 q 96 668 106 633 q 85 747 85 703 q 110 852 85 805 q 179 932 134 899 q 287 983 224 965 q 427 1001 350 1001 q 571 982 507 1001 q 679 926 634 963 q 747 834 723 889 q 771 710 771 780 l 608 710 q 596 772 608 743 q 562 823 585 802 q 505 858 539 845 q 427 870 471 870 q 348 860 382 870 q 292 834 314 850 q 258 796 269 818 q 248 749 248 774 q 257 698 248 719 q 292 661 267 677 q 318 645 303 652 q 353 630 334 637 q 402 614 374 622 q 464 596 429 606 q 526 578 496 587 q 583 558 556 568 q 647 529 618 545 q 700 495 677 513 q 763 417 741 462 q 785 310 785 372 m 404 458 q 350 473 376 465 q 301 490 324 481 q 270 475 283 484 q 248 454 257 466 q 229 420 235 439 q 223 378 223 401 q 238 318 223 342 q 290 274 253 294 q 350 247 313 260 q 440 218 387 234 q 494 203 469 210 q 543 186 519 195 q 573 201 559 193 q 597 222 587 210 q 617 256 610 237 q 625 298 625 276 q 613 348 625 326 q 576 387 602 369 q 547 405 563 397 q 511 422 530 414 q 462 439 489 430 q 404 458 435 448 "},"¶":{"ha":833,"x_min":145,"x_max":674,"o":"m 536 0 l 536 353 l 479 353 q 336 376 398 353 q 231 443 274 400 q 167 543 189 485 q 145 670 145 602 q 167 796 145 738 q 231 897 189 854 q 336 963 274 939 q 479 987 398 987 l 674 987 l 674 0 l 536 0 "},"^":{"ha":833,"x_min":150,"x_max":697,"o":"m 150 463 l 366 987 l 481 987 l 697 463 l 561 463 l 435 780 l 422 833 l 410 780 l 287 463 l 150 463 "},"~":{"ha":833,"x_min":24,"x_max":786,"o":"m 786 507 q 771 411 786 456 q 729 334 756 367 q 663 282 701 301 q 579 263 625 263 q 522 269 549 263 q 470 286 495 275 q 419 315 444 298 q 368 356 395 332 q 332 383 350 371 q 297 402 315 395 q 267 413 282 410 q 235 416 251 416 q 196 407 214 416 q 163 382 177 397 q 141 345 149 366 q 133 301 133 324 l 24 315 q 39 409 24 365 q 81 484 54 452 q 146 534 108 516 q 230 553 184 553 q 288 546 260 553 q 342 528 316 540 q 392 499 368 517 q 442 460 417 482 q 476 435 460 446 q 507 416 492 424 q 540 404 524 408 q 574 399 557 399 q 613 410 595 399 q 644 437 631 420 q 666 475 658 453 q 674 519 674 496 l 786 507 "},"Á":{"ha":833,"x_min":34,"x_max":816,"o":"m 581 227 l 271 227 l 203 0 l 34 0 l 355 987 l 500 987 l 816 0 l 647 0 l 581 227 m 312 367 l 541 367 l 427 758 l 312 367 m 484 1236 l 668 1236 l 483 1051 l 358 1051 l 484 1236 "},"Ă":{"ha":833,"x_min":34,"x_max":816,"o":"m 581 227 l 271 227 l 203 0 l 34 0 l 355 987 l 500 987 l 816 0 l 647 0 l 581 227 m 312 367 l 541 367 l 427 758 l 312 367 m 647 1262 q 632 1184 647 1220 q 589 1124 616 1149 q 519 1085 559 1099 q 429 1071 479 1071 q 337 1085 378 1071 q 269 1124 297 1099 q 224 1184 240 1149 q 209 1262 209 1219 l 330 1262 q 336 1226 330 1243 q 353 1195 342 1208 q 384 1174 365 1182 q 429 1166 402 1166 q 473 1174 454 1166 q 503 1196 491 1182 q 520 1226 515 1208 q 526 1262 526 1243 l 647 1262 "},"Â":{"ha":833,"x_min":34,"x_max":816,"o":"m 581 227 l 271 227 l 203 0 l 34 0 l 355 987 l 500 987 l 816 0 l 647 0 l 581 227 m 312 367 l 541 367 l 427 758 l 312 367 m 662 1101 l 662 1082 l 531 1082 l 428 1175 l 326 1082 l 197 1082 l 197 1101 l 380 1264 l 475 1264 l 662 1101 "},"Ä":{"ha":833,"x_min":34,"x_max":816,"o":"m 581 227 l 271 227 l 203 0 l 34 0 l 355 987 l 500 987 l 816 0 l 647 0 l 581 227 m 312 367 l 541 367 l 427 758 l 312 367 m 185 1164 q 208 1220 185 1197 q 270 1243 231 1243 q 332 1220 309 1243 q 355 1164 355 1197 q 332 1107 355 1130 q 270 1084 309 1084 q 208 1107 231 1084 q 185 1164 185 1130 m 496 1163 q 519 1219 496 1196 q 581 1242 542 1242 q 643 1219 621 1242 q 666 1163 666 1196 q 643 1106 666 1129 q 581 1083 620 1083 q 519 1106 542 1083 q 496 1163 496 1129 "},"À":{"ha":833,"x_min":34,"x_max":816,"o":"m 581 227 l 271 227 l 203 0 l 34 0 l 355 987 l 500 987 l 816 0 l 647 0 l 581 227 m 312 367 l 541 367 l 427 758 l 312 367 m 496 1053 l 367 1053 l 193 1238 l 376 1238 l 496 1053 "},"Ā":{"ha":833,"x_min":34,"x_max":816,"o":"m 581 227 l 271 227 l 203 0 l 34 0 l 355 987 l 500 987 l 816 0 l 647 0 l 581 227 m 312 367 l 541 367 l 427 758 l 312 367 m 676 1103 l 185 1103 l 185 1208 l 676 1208 l 676 1103 "},"Ą":{"ha":833,"x_min":34,"x_max":816,"o":"m 500 987 l 816 0 l 775 0 q 727 -26 747 -12 q 694 -56 707 -41 q 672 -92 679 -73 q 665 -132 665 -111 q 675 -167 665 -153 q 713 -180 686 -180 q 749 -175 734 -181 q 774 -165 764 -170 l 802 -260 q 753 -280 783 -271 q 678 -290 724 -290 q 622 -281 648 -290 q 577 -256 596 -273 q 547 -213 558 -239 q 536 -155 536 -188 q 547 -102 536 -128 q 576 -50 557 -75 q 605 -17 588 -33 q 643 13 623 -1 l 581 227 l 271 227 l 203 0 l 34 0 l 355 987 l 500 987 m 312 367 l 541 367 l 427 758 l 312 367 "},"Å":{"ha":833,"x_min":34,"x_max":816,"o":"m 581 227 l 271 227 l 203 0 l 34 0 l 355 987 l 500 987 l 816 0 l 647 0 l 581 227 m 312 367 l 541 367 l 427 758 l 312 367 m 286 1175 q 297 1228 286 1203 q 328 1270 309 1253 q 373 1298 347 1288 q 429 1308 399 1308 q 483 1298 458 1308 q 527 1270 508 1288 q 557 1228 546 1253 q 568 1175 568 1203 q 557 1121 568 1145 q 527 1080 546 1097 q 483 1053 508 1063 q 429 1044 458 1044 q 373 1053 399 1044 q 328 1080 347 1063 q 297 1121 309 1097 q 286 1175 286 1145 m 359 1175 q 365 1147 359 1160 q 380 1125 370 1135 q 401 1111 389 1116 q 429 1106 414 1106 q 454 1111 442 1106 q 475 1124 467 1116 q 490 1146 485 1134 q 495 1175 495 1159 q 490 1203 495 1190 q 476 1226 485 1217 q 455 1240 467 1235 q 429 1245 443 1245 q 401 1240 414 1245 q 379 1225 389 1235 q 365 1203 370 1216 q 359 1175 359 1190 "},"Ǻ":{"ha":833,"x_min":34,"x_max":816,"o":"m 581 227 l 271 227 l 203 0 l 34 0 l 355 987 l 500 987 l 816 0 l 647 0 l 581 227 m 312 367 l 541 367 l 427 758 l 312 367 m 502 1430 l 661 1430 l 495 1297 l 389 1297 l 502 1430 m 302 1147 q 312 1195 302 1173 q 340 1234 322 1217 q 380 1258 357 1249 q 429 1267 404 1267 q 478 1258 455 1267 q 518 1234 501 1249 q 544 1195 534 1217 q 554 1147 554 1173 q 544 1100 554 1122 q 518 1063 534 1078 q 478 1039 501 1047 q 429 1030 455 1030 q 380 1039 404 1030 q 340 1063 357 1047 q 312 1100 322 1078 q 302 1147 302 1122 m 370 1147 q 387 1105 370 1122 q 429 1088 404 1088 q 471 1105 454 1088 q 487 1147 487 1122 q 471 1191 487 1174 q 429 1208 454 1208 q 387 1191 404 1208 q 370 1147 370 1174 "},"Ã":{"ha":833,"x_min":34,"x_max":816,"o":"m 581 227 l 271 227 l 203 0 l 34 0 l 355 987 l 500 987 l 816 0 l 647 0 l 581 227 m 312 367 l 541 367 l 427 758 l 312 367 m 669 1257 q 659 1198 669 1227 q 630 1147 648 1168 q 585 1111 611 1124 q 526 1097 558 1097 q 476 1105 498 1097 q 437 1122 455 1112 q 400 1140 418 1131 q 362 1152 382 1149 q 337 1154 349 1154 q 312 1148 324 1154 q 283 1127 294 1143 q 272 1088 273 1111 l 187 1107 q 198 1166 187 1137 q 227 1218 208 1196 q 272 1255 245 1241 q 330 1269 298 1269 q 381 1259 358 1269 q 427 1239 405 1250 q 472 1217 449 1227 q 520 1208 494 1208 q 546 1213 534 1208 q 567 1229 559 1219 q 580 1250 575 1238 q 585 1278 585 1263 l 669 1257 "},"Ǽ":{"ha":833,"x_min":28,"x_max":804,"o":"m 804 0 l 441 0 l 441 232 l 267 232 l 195 0 l 28 0 l 376 987 l 789 987 l 789 854 l 595 854 l 595 576 l 767 576 l 767 444 l 595 444 l 596 132 l 804 132 l 804 0 m 311 376 l 441 376 l 440 786 l 311 376 m 545 1236 l 729 1236 l 544 1051 l 419 1051 l 545 1236 "},"Ć":{"ha":833,"x_min":62,"x_max":768,"o":"m 768 304 q 734 173 761 232 q 663 73 707 115 q 556 8 618 31 q 420 -14 495 -14 q 308 2 359 -14 q 217 50 257 19 q 150 118 178 78 q 101 207 121 159 q 72 310 81 254 q 62 426 62 366 l 62 561 q 71 672 62 618 q 100 773 81 726 q 152 869 120 826 q 227 943 184 912 q 315 986 267 970 q 421 1002 363 1002 q 561 979 499 1002 q 665 913 622 956 q 735 810 709 871 q 768 676 760 750 l 605 676 q 588 756 601 720 q 554 817 576 791 q 499 855 532 842 q 421 868 467 868 q 364 859 389 868 q 319 834 338 850 q 274 783 292 814 q 244 713 256 751 q 231 641 235 679 q 227 562 227 602 l 227 426 q 232 333 227 376 q 250 254 238 290 q 274 199 260 224 q 309 157 289 175 q 358 129 330 138 q 420 119 385 119 q 495 131 463 119 q 551 167 528 143 q 587 224 573 190 q 604 304 600 259 l 768 304 m 513 1242 l 698 1242 l 513 1057 l 388 1057 l 513 1242 "},"Č":{"ha":833,"x_min":62,"x_max":768,"o":"m 768 304 q 734 173 761 232 q 663 73 707 115 q 556 8 618 31 q 420 -14 495 -14 q 308 2 359 -14 q 217 50 257 19 q 150 118 178 78 q 101 207 121 159 q 72 310 81 254 q 62 426 62 366 l 62 561 q 71 672 62 618 q 100 773 81 726 q 152 869 120 826 q 227 943 184 912 q 315 986 267 970 q 421 1002 363 1002 q 561 979 499 1002 q 665 913 622 956 q 735 810 709 871 q 768 676 760 750 l 605 676 q 588 756 601 720 q 554 817 576 791 q 499 855 532 842 q 421 868 467 868 q 364 859 389 868 q 319 834 338 850 q 274 783 292 814 q 244 713 256 751 q 231 641 235 679 q 227 562 227 602 l 227 426 q 232 333 227 376 q 250 254 238 290 q 274 199 260 224 q 309 157 289 175 q 358 129 330 138 q 420 119 385 119 q 495 131 463 119 q 551 167 528 143 q 587 224 573 190 q 604 304 600 259 l 768 304 m 458 1178 l 558 1271 l 697 1271 l 697 1258 l 509 1088 l 407 1088 l 219 1257 l 219 1271 l 357 1271 l 458 1178 "},"Ç":{"ha":833,"x_min":62,"x_max":768,"o":"m 768 304 q 734 173 761 232 q 663 73 707 115 q 556 8 618 31 q 420 -14 495 -14 q 308 2 359 -14 q 217 50 257 19 q 150 118 178 78 q 101 207 121 159 q 72 310 81 254 q 62 426 62 366 l 62 561 q 71 672 62 618 q 100 773 81 726 q 152 869 120 826 q 227 943 184 912 q 315 986 267 970 q 421 1002 363 1002 q 561 979 499 1002 q 665 913 622 956 q 735 810 709 871 q 768 676 760 750 l 605 676 q 588 756 601 720 q 554 817 576 791 q 499 855 532 842 q 421 868 467 868 q 364 859 389 868 q 319 834 338 850 q 274 783 292 814 q 244 713 256 751 q 231 641 235 679 q 227 562 227 602 l 227 426 q 232 333 227 376 q 250 254 238 290 q 274 199 260 224 q 309 157 289 175 q 358 129 330 138 q 420 119 385 119 q 495 131 463 119 q 551 167 528 143 q 587 224 573 190 q 604 304 600 259 l 768 304 m 481 4 l 473 -33 q 511 -44 492 -36 q 544 -66 529 -52 q 567 -100 558 -79 q 576 -150 576 -121 q 559 -216 576 -187 q 511 -264 543 -245 q 444 -292 484 -282 q 354 -302 405 -302 l 349 -209 q 386 -205 369 -209 q 416 -195 403 -202 q 435 -176 428 -188 q 443 -148 443 -165 q 437 -122 443 -133 q 419 -105 431 -112 q 387 -95 406 -98 q 340 -90 367 -92 l 361 4 l 481 4 "},"Ĉ":{"ha":833,"x_min":62,"x_max":768,"o":"m 768 304 q 734 173 761 232 q 663 73 707 115 q 556 8 618 31 q 420 -14 495 -14 q 308 2 359 -14 q 217 50 257 19 q 150 118 178 78 q 101 207 121 159 q 72 310 81 254 q 62 426 62 366 l 62 561 q 71 672 62 618 q 100 773 81 726 q 152 869 120 826 q 227 943 184 912 q 315 986 267 970 q 421 1002 363 1002 q 561 979 499 1002 q 665 913 622 956 q 735 810 709 871 q 768 676 760 750 l 605 676 q 588 756 601 720 q 554 817 576 791 q 499 855 532 842 q 421 868 467 868 q 364 859 389 868 q 319 834 338 850 q 274 783 292 814 q 244 713 256 751 q 231 641 235 679 q 227 562 227 602 l 227 426 q 232 333 227 376 q 250 254 238 290 q 274 199 260 224 q 309 157 289 175 q 358 129 330 138 q 420 119 385 119 q 495 131 463 119 q 551 167 528 143 q 587 224 573 190 q 604 304 600 259 l 768 304 m 692 1106 l 692 1088 l 562 1088 l 458 1181 l 356 1088 l 227 1088 l 227 1107 l 411 1270 l 506 1270 l 692 1106 "},"Ď":{"ha":833,"x_min":94,"x_max":772,"o":"m 94 0 l 94 987 l 338 987 q 458 973 401 987 q 560 932 514 958 q 649 866 610 906 q 715 777 688 826 q 757 663 742 725 q 772 532 772 602 l 772 454 q 758 327 772 387 q 718 218 744 267 q 657 130 693 170 q 578 63 622 91 q 470 16 530 33 q 343 0 411 0 l 94 0 m 258 854 l 258 132 l 343 132 q 423 143 387 132 q 488 173 459 153 q 542 224 518 193 q 580 295 565 255 q 600 369 593 329 q 606 454 606 409 l 606 533 q 600 618 606 578 q 580 692 593 658 q 536 767 564 733 q 472 821 509 800 q 411 845 445 837 q 338 854 377 854 l 258 854 m 376 1168 l 476 1261 l 615 1261 l 615 1249 l 427 1079 l 325 1079 l 137 1248 l 137 1261 l 275 1261 l 376 1168 "},"Đ":{"ha":833,"x_min":-33,"x_max":782,"o":"m 104 0 l 104 443 l -33 443 l -33 556 l 104 556 l 104 987 l 348 987 q 528 953 448 987 q 665 860 608 920 q 752 716 722 800 q 782 532 782 633 l 782 454 q 752 271 782 354 q 666 127 722 187 q 530 34 610 67 q 353 0 451 0 l 104 0 m 420 443 l 269 443 l 269 132 l 353 132 q 467 156 418 132 q 549 221 516 179 q 600 323 583 264 q 616 454 616 382 l 616 533 q 600 662 616 604 q 549 764 583 721 q 465 830 515 806 q 348 854 415 854 l 269 854 l 269 556 l 420 556 l 420 443 "},"É":{"ha":833,"x_min":110,"x_max":750,"o":"m 682 443 l 273 443 l 273 134 l 750 134 l 750 0 l 110 0 l 110 987 l 747 987 l 747 852 l 273 852 l 273 574 l 682 574 l 682 443 m 484 1233 l 669 1233 l 484 1048 l 359 1048 l 484 1233 "},"Ĕ":{"ha":833,"x_min":110,"x_max":750,"o":"m 682 443 l 273 443 l 273 134 l 750 134 l 750 0 l 110 0 l 110 987 l 747 987 l 747 852 l 273 852 l 273 574 l 682 574 l 682 443 m 648 1259 q 632 1181 648 1217 q 589 1120 617 1145 q 520 1081 560 1095 q 429 1067 479 1067 q 338 1081 378 1067 q 269 1120 298 1095 q 225 1181 241 1145 q 210 1259 210 1216 l 331 1259 q 337 1222 331 1240 q 354 1192 342 1205 q 384 1171 366 1179 q 429 1163 403 1163 q 473 1171 455 1163 q 504 1192 492 1179 q 521 1222 515 1205 q 526 1259 526 1240 l 648 1259 "},"Ě":{"ha":833,"x_min":110,"x_max":750,"o":"m 682 443 l 273 443 l 273 134 l 750 134 l 750 0 l 110 0 l 110 987 l 747 987 l 747 852 l 273 852 l 273 574 l 682 574 l 682 443 m 429 1168 l 529 1261 l 668 1261 l 668 1249 l 479 1079 l 378 1079 l 190 1248 l 190 1261 l 328 1261 l 429 1168 "},"Ê":{"ha":833,"x_min":110,"x_max":750,"o":"m 682 443 l 273 443 l 273 134 l 750 134 l 750 0 l 110 0 l 110 987 l 747 987 l 747 852 l 273 852 l 273 574 l 682 574 l 682 443 m 663 1097 l 663 1079 l 532 1079 l 429 1172 l 326 1079 l 197 1079 l 197 1098 l 381 1261 l 476 1261 l 663 1097 "},"Ë":{"ha":833,"x_min":110,"x_max":750,"o":"m 682 443 l 273 443 l 273 134 l 750 134 l 750 0 l 110 0 l 110 987 l 747 987 l 747 852 l 273 852 l 273 574 l 682 574 l 682 443 m 186 1160 q 209 1217 186 1194 q 271 1240 231 1240 q 332 1217 309 1240 q 355 1160 355 1194 q 332 1104 355 1126 q 271 1081 309 1081 q 209 1104 232 1081 q 186 1160 186 1126 m 497 1160 q 520 1216 497 1192 q 582 1239 543 1239 q 644 1216 621 1239 q 667 1160 667 1192 q 644 1103 667 1126 q 582 1080 621 1080 q 520 1103 543 1080 q 497 1160 497 1126 "},"Ė":{"ha":833,"x_min":110,"x_max":750,"o":"m 682 443 l 273 443 l 273 134 l 750 134 l 750 0 l 110 0 l 110 987 l 747 987 l 747 852 l 273 852 l 273 574 l 682 574 l 682 443 m 336 1162 q 360 1224 336 1199 q 428 1249 385 1249 q 496 1224 472 1249 q 520 1162 520 1199 q 496 1100 520 1125 q 428 1076 472 1076 q 360 1100 385 1076 q 336 1162 336 1125 "},"È":{"ha":833,"x_min":110,"x_max":750,"o":"m 682 443 l 273 443 l 273 134 l 750 134 l 750 0 l 110 0 l 110 987 l 747 987 l 747 852 l 273 852 l 273 574 l 682 574 l 682 443 m 496 1050 l 368 1050 l 193 1235 l 377 1235 l 496 1050 "},"Ē":{"ha":833,"x_min":110,"x_max":750,"o":"m 682 443 l 273 443 l 273 134 l 750 134 l 750 0 l 110 0 l 110 987 l 747 987 l 747 852 l 273 852 l 273 574 l 682 574 l 682 443 m 676 1099 l 185 1099 l 185 1204 l 676 1204 l 676 1099 "},"Ŋ":{"ha":833,"x_min":108,"x_max":730,"o":"m 730 987 l 730 -41 q 714 -150 730 -102 q 668 -230 698 -197 q 593 -279 637 -262 q 492 -296 549 -296 q 449 -294 469 -296 q 406 -285 429 -292 l 415 -155 q 448 -161 429 -159 q 481 -163 466 -163 q 512 -158 498 -163 q 536 -141 526 -152 q 559 -100 552 -125 q 567 -41 567 -75 l 567 1 l 271 651 l 271 0 l 108 0 l 108 987 l 271 987 l 273 985 l 567 336 l 567 987 l 730 987 "},"Ę":{"ha":833,"x_min":110,"x_max":750,"o":"m 682 443 l 273 443 l 273 134 l 750 134 l 750 0 l 677 0 q 629 -26 650 -12 q 596 -56 609 -41 q 574 -92 581 -73 q 567 -132 567 -111 q 578 -167 567 -153 q 615 -180 589 -180 q 651 -175 636 -181 q 677 -165 667 -170 l 704 -260 q 655 -280 685 -271 q 580 -290 626 -290 q 525 -281 551 -290 q 479 -256 498 -273 q 449 -213 460 -239 q 438 -155 438 -188 q 446 -106 438 -130 q 471 -59 454 -82 q 496 -28 481 -43 q 527 0 510 -14 l 110 0 l 110 987 l 747 987 l 747 852 l 273 852 l 273 574 l 682 574 l 682 443 "},"Ð":{"ha":833,"x_min":-33,"x_max":782,"o":"m 104 0 l 104 443 l -33 443 l -33 556 l 104 556 l 104 987 l 348 987 q 528 953 448 987 q 665 860 608 920 q 752 716 722 800 q 782 532 782 633 l 782 454 q 752 271 782 354 q 666 127 722 187 q 530 34 610 67 q 353 0 451 0 l 104 0 m 420 443 l 269 443 l 269 132 l 353 132 q 467 156 418 132 q 549 221 516 179 q 600 323 583 264 q 616 454 616 382 l 616 533 q 600 662 616 604 q 549 764 583 721 q 465 830 515 806 q 348 854 415 854 l 269 854 l 269 556 l 420 556 l 420 443 "},"Ğ":{"ha":833,"x_min":62,"x_max":763,"o":"m 763 121 q 713 74 743 97 q 648 34 684 52 q 547 -1 602 12 q 431 -14 493 -14 q 325 1 374 -14 q 235 43 275 16 q 164 109 195 71 q 111 195 132 148 q 75 304 87 245 q 62 430 63 364 l 62 556 q 74 678 63 620 q 107 786 85 736 q 157 871 128 833 q 224 939 186 910 q 314 985 264 968 q 420 1001 363 1001 q 559 980 498 1001 q 662 920 619 959 q 730 823 705 880 q 762 696 755 766 l 602 696 q 584 766 596 734 q 551 819 572 798 q 498 854 530 842 q 424 867 467 867 q 366 856 393 867 q 319 827 340 846 q 276 775 294 806 q 247 707 258 745 q 232 635 237 673 q 227 557 227 597 l 227 430 q 234 341 227 383 q 253 263 240 299 q 277 212 263 236 q 310 170 291 189 q 365 134 334 146 q 437 120 397 121 q 485 123 460 120 q 532 133 509 126 q 572 150 553 140 q 601 175 590 161 l 602 372 l 422 372 l 422 499 l 762 499 l 763 121 m 659 1267 q 643 1190 659 1225 q 600 1129 628 1154 q 531 1090 571 1104 q 440 1076 490 1076 q 349 1090 389 1076 q 280 1129 309 1104 q 236 1190 252 1154 q 220 1267 220 1225 l 342 1267 q 348 1231 342 1249 q 365 1200 353 1214 q 395 1180 376 1187 q 440 1172 414 1172 q 484 1180 466 1172 q 515 1201 503 1187 q 532 1231 526 1214 q 537 1267 537 1249 l 659 1267 "},"Ĝ":{"ha":833,"x_min":62,"x_max":763,"o":"m 763 121 q 713 74 743 97 q 648 34 684 52 q 547 -1 602 12 q 431 -14 493 -14 q 325 1 374 -14 q 235 43 275 16 q 164 109 195 71 q 111 195 132 148 q 75 304 87 245 q 62 430 63 364 l 62 556 q 74 678 63 620 q 107 786 85 736 q 157 871 128 833 q 224 939 186 910 q 314 985 264 968 q 420 1001 363 1001 q 559 980 498 1001 q 662 920 619 959 q 730 823 705 880 q 762 696 755 766 l 602 696 q 584 766 596 734 q 551 819 572 798 q 498 854 530 842 q 424 867 467 867 q 366 856 393 867 q 319 827 340 846 q 276 775 294 806 q 247 707 258 745 q 232 635 237 673 q 227 557 227 597 l 227 430 q 234 341 227 383 q 253 263 240 299 q 277 212 263 236 q 310 170 291 189 q 365 134 334 146 q 437 120 397 121 q 485 123 460 120 q 532 133 509 126 q 572 150 553 140 q 601 175 590 161 l 602 372 l 422 372 l 422 499 l 762 499 l 763 121 m 673 1106 l 673 1088 l 543 1088 l 439 1181 l 337 1088 l 208 1088 l 208 1107 l 392 1270 l 487 1270 l 673 1106 "},"Ģ":{"ha":833,"x_min":62,"x_max":763,"o":"m 763 121 q 713 74 743 97 q 648 34 684 52 q 547 -1 602 12 q 431 -14 493 -14 q 325 1 374 -14 q 235 43 275 16 q 164 109 195 71 q 111 195 132 148 q 75 304 87 245 q 62 430 63 364 l 62 556 q 74 678 63 620 q 107 786 85 736 q 157 871 128 833 q 224 939 186 910 q 314 985 264 968 q 420 1001 363 1001 q 559 980 498 1001 q 662 920 619 959 q 730 823 705 880 q 762 696 755 766 l 602 696 q 584 766 596 734 q 551 819 572 798 q 498 854 530 842 q 424 867 467 867 q 366 856 393 867 q 319 827 340 846 q 276 775 294 806 q 247 707 258 745 q 232 635 237 673 q 227 557 227 597 l 227 430 q 234 341 227 383 q 253 263 240 299 q 277 212 263 236 q 310 170 291 189 q 365 134 334 146 q 437 120 397 121 q 485 123 460 120 q 532 133 509 126 q 572 150 553 140 q 601 175 590 161 l 602 372 l 422 372 l 422 499 l 762 499 l 763 121 m 509 -94 q 484 -219 509 -155 q 408 -328 458 -283 l 333 -278 q 371 -192 358 -235 q 383 -96 383 -148 l 383 -47 l 509 -47 l 509 -94 "},"Ħ":{"ha":833,"x_min":16,"x_max":833,"o":"m 718 812 l 833 812 l 833 703 l 718 703 l 718 0 l 559 0 l 559 440 l 227 440 l 227 0 l 68 0 l 68 703 l 16 703 l 16 812 l 68 812 l 68 987 l 227 987 l 227 812 l 559 812 l 559 987 l 718 987 l 718 812 m 227 574 l 559 574 l 559 703 l 227 703 l 227 574 "},"Ĥ":{"ha":833,"x_min":89,"x_max":739,"o":"m 739 0 l 580 0 l 580 440 l 248 440 l 248 0 l 89 0 l 89 987 l 248 987 l 248 574 l 580 574 l 580 987 l 739 987 l 739 0 m 646 1097 l 646 1079 l 515 1079 l 412 1172 l 309 1079 l 180 1079 l 180 1098 l 364 1261 l 459 1261 l 646 1097 "},"Í":{"ha":833,"x_min":125,"x_max":707,"o":"m 125 987 l 707 987 l 707 852 l 496 852 l 496 134 l 707 134 l 707 0 l 125 0 l 125 134 l 332 134 l 332 852 l 125 852 l 125 987 m 452 1236 l 637 1236 l 452 1051 l 327 1051 l 452 1236 "},"Ĭ":{"ha":833,"x_min":125,"x_max":707,"o":"m 125 987 l 707 987 l 707 852 l 496 852 l 496 134 l 707 134 l 707 0 l 125 0 l 125 134 l 332 134 l 332 852 l 125 852 l 125 987 m 617 1262 q 602 1184 617 1220 q 559 1124 587 1149 q 489 1085 530 1099 q 399 1071 449 1071 q 308 1085 348 1071 q 239 1124 267 1099 q 195 1184 210 1149 q 179 1262 179 1219 l 300 1262 q 306 1226 300 1243 q 323 1195 312 1208 q 354 1174 335 1182 q 399 1166 372 1166 q 443 1174 425 1166 q 473 1196 461 1182 q 490 1226 485 1208 q 496 1262 496 1243 l 617 1262 "},"Î":{"ha":833,"x_min":125,"x_max":707,"o":"m 125 987 l 707 987 l 707 852 l 496 852 l 496 134 l 707 134 l 707 0 l 125 0 l 125 134 l 332 134 l 332 852 l 125 852 l 125 987 m 631 1101 l 631 1082 l 500 1082 l 397 1175 l 295 1082 l 166 1082 l 166 1101 l 350 1264 l 445 1264 l 631 1101 "},"Ï":{"ha":833,"x_min":125,"x_max":707,"o":"m 125 987 l 707 987 l 707 852 l 496 852 l 496 134 l 707 134 l 707 0 l 125 0 l 125 134 l 332 134 l 332 852 l 125 852 l 125 987 m 155 1164 q 177 1220 155 1197 q 239 1243 200 1243 q 301 1220 278 1243 q 324 1164 324 1197 q 301 1107 324 1130 q 239 1084 278 1084 q 178 1107 201 1084 q 155 1164 155 1130 m 466 1163 q 489 1219 466 1196 q 551 1242 511 1242 q 613 1219 590 1242 q 635 1163 635 1196 q 612 1106 635 1129 q 551 1083 589 1083 q 489 1106 511 1083 q 466 1163 466 1129 "},"İ":{"ha":833,"x_min":125,"x_max":707,"o":"m 125 987 l 707 987 l 707 852 l 496 852 l 496 134 l 707 134 l 707 0 l 125 0 l 125 134 l 332 134 l 332 852 l 125 852 l 125 987 m 305 1165 q 329 1227 305 1202 q 397 1252 353 1252 q 465 1227 441 1252 q 489 1165 489 1202 q 465 1104 489 1128 q 397 1079 441 1079 q 329 1104 353 1079 q 305 1165 305 1128 "},"Ì":{"ha":833,"x_min":125,"x_max":707,"o":"m 125 987 l 707 987 l 707 852 l 496 852 l 496 134 l 707 134 l 707 0 l 125 0 l 125 134 l 332 134 l 332 852 l 125 852 l 125 987 m 465 1053 l 336 1053 l 162 1238 l 346 1238 l 465 1053 "},"Ī":{"ha":833,"x_min":125,"x_max":707,"o":"m 125 987 l 707 987 l 707 852 l 496 852 l 496 134 l 707 134 l 707 0 l 125 0 l 125 134 l 332 134 l 332 852 l 125 852 l 125 987 m 646 1103 l 155 1103 l 155 1208 l 646 1208 l 646 1103 "},"Į":{"ha":833,"x_min":125,"x_max":707,"o":"m 125 987 l 707 987 l 707 852 l 496 852 l 496 134 l 707 134 l 707 0 l 523 0 q 475 -26 495 -12 q 442 -55 456 -40 q 420 -92 427 -73 q 412 -132 412 -111 q 424 -167 412 -153 q 461 -180 435 -180 q 497 -175 481 -181 q 522 -165 512 -170 l 549 -260 q 501 -280 530 -271 q 426 -290 471 -290 q 370 -281 396 -290 q 325 -256 345 -273 q 295 -213 306 -239 q 283 -155 283 -188 q 292 -105 283 -130 q 319 -56 301 -79 q 343 -27 330 -41 q 373 0 356 -13 l 125 0 l 125 134 l 332 134 l 332 852 l 125 852 l 125 987 "},"Ĩ":{"ha":833,"x_min":125,"x_max":707,"o":"m 125 987 l 707 987 l 707 852 l 496 852 l 496 134 l 707 134 l 707 0 l 125 0 l 125 134 l 332 134 l 332 852 l 125 852 l 125 987 m 638 1257 q 628 1198 638 1227 q 599 1147 617 1168 q 553 1111 580 1124 q 495 1097 527 1097 q 445 1105 467 1097 q 406 1122 424 1112 q 369 1140 387 1131 q 331 1152 351 1149 q 306 1154 318 1154 q 281 1148 293 1154 q 252 1127 263 1143 q 241 1088 241 1111 l 156 1107 q 166 1166 156 1137 q 196 1218 177 1196 q 241 1255 214 1241 q 299 1269 267 1269 q 350 1259 327 1269 q 396 1239 374 1250 q 440 1217 418 1227 q 489 1208 463 1208 q 515 1213 503 1208 q 536 1229 528 1219 q 549 1250 544 1238 q 554 1278 554 1263 l 638 1257 "},"Ĵ":{"ha":833,"x_min":72,"x_max":884,"o":"m 566 987 l 730 987 l 730 302 q 704 175 730 233 q 634 75 679 117 q 530 9 590 33 q 400 -14 470 -14 q 269 6 328 -14 q 167 64 210 26 q 99 159 124 102 q 72 288 75 215 l 236 288 q 247 220 237 250 q 275 169 257 190 q 328 132 296 144 q 400 120 359 120 q 469 134 438 120 q 521 173 499 149 q 554 231 542 197 q 566 302 566 264 l 566 987 m 884 1093 l 884 1074 l 753 1074 l 650 1167 l 547 1074 l 418 1074 l 418 1093 l 602 1256 l 697 1256 l 884 1093 "},"Ķ":{"ha":833,"x_min":100,"x_max":833,"o":"m 371 428 l 264 309 l 264 0 l 100 0 l 100 987 l 264 987 l 264 523 l 357 643 l 617 987 l 817 987 l 479 553 l 833 0 l 638 0 l 371 428 m 490 -91 q 465 -216 490 -152 q 389 -325 439 -280 l 314 -275 q 352 -188 339 -232 q 364 -93 364 -144 l 364 -44 l 490 -44 l 490 -91 "},"Ĺ":{"ha":833,"x_min":115,"x_max":750,"o":"m 279 134 l 750 134 l 750 0 l 115 0 l 115 987 l 279 987 l 279 134 m 255 1216 l 439 1216 l 254 1031 l 130 1031 l 255 1216 "},"Ľ":{"ha":833,"x_min":115,"x_max":750,"o":"m 279 134 l 750 134 l 750 0 l 115 0 l 115 987 l 279 987 l 279 134 m 684 878 q 675 808 684 844 q 650 737 666 772 q 611 671 633 703 q 562 616 589 640 l 484 667 q 528 763 512 713 q 545 877 545 814 l 545 987 l 684 987 l 684 878 "},"Ļ":{"ha":833,"x_min":115,"x_max":750,"o":"m 279 134 l 750 134 l 750 0 l 115 0 l 115 987 l 279 987 l 279 134 m 492 -83 q 467 -209 492 -144 q 391 -317 442 -273 l 317 -267 q 354 -181 342 -224 q 367 -85 367 -137 l 367 -37 l 492 -37 l 492 -83 "},"Ŀ":{"ha":833,"x_min":115,"x_max":750,"o":"m 279 134 l 750 134 l 750 0 l 115 0 l 115 987 l 279 987 l 279 134 m 416 545 q 440 607 416 583 q 508 632 465 632 q 576 607 552 632 q 600 545 600 583 q 576 484 600 509 q 508 459 552 459 q 440 484 465 459 q 416 545 416 509 "},"Ł":{"ha":833,"x_min":37,"x_max":763,"o":"m 292 589 l 458 640 l 458 517 l 292 467 l 292 134 l 763 134 l 763 0 l 128 0 l 128 417 l 37 390 l 37 513 l 128 540 l 128 987 l 292 987 l 292 589 "},"Ń":{"ha":833,"x_min":89,"x_max":739,"o":"m 739 0 l 575 0 l 254 680 l 254 0 l 89 0 l 89 987 l 254 987 l 573 311 l 574 987 l 739 987 l 739 0 m 465 1236 l 649 1236 l 464 1051 l 339 1051 l 465 1236 "},"Ň":{"ha":833,"x_min":89,"x_max":739,"o":"m 739 0 l 575 0 l 254 680 l 254 0 l 89 0 l 89 987 l 254 987 l 573 311 l 574 987 l 739 987 l 739 0 m 410 1173 l 510 1265 l 649 1265 l 649 1253 l 460 1083 l 359 1083 l 171 1252 l 171 1265 l 309 1265 l 410 1173 "},"Ņ":{"ha":833,"x_min":89,"x_max":739,"o":"m 739 0 l 575 0 l 254 680 l 254 0 l 89 0 l 89 987 l 254 987 l 573 311 l 574 987 l 739 987 l 739 0 m 477 -86 q 452 -211 477 -147 q 376 -320 427 -275 l 302 -270 q 339 -183 327 -227 q 352 -88 352 -140 l 352 -39 l 477 -39 l 477 -86 "},"Ñ":{"ha":833,"x_min":89,"x_max":739,"o":"m 739 0 l 575 0 l 254 680 l 254 0 l 89 0 l 89 987 l 254 987 l 573 311 l 574 987 l 739 987 l 739 0 m 650 1257 q 640 1198 650 1227 q 611 1147 629 1168 q 566 1111 592 1124 q 507 1097 539 1097 q 457 1105 479 1097 q 418 1122 436 1112 q 381 1140 399 1131 q 343 1152 363 1149 q 318 1154 330 1154 q 293 1148 305 1154 q 264 1127 275 1143 q 253 1088 254 1111 l 168 1107 q 179 1166 168 1137 q 208 1218 189 1196 q 253 1255 227 1241 q 311 1269 279 1269 q 362 1259 339 1269 q 408 1239 386 1250 q 453 1217 430 1227 q 501 1208 475 1208 q 527 1213 515 1208 q 548 1229 540 1219 q 561 1250 556 1238 q 566 1278 566 1263 l 650 1257 "},"Ó":{"ha":833,"x_min":62,"x_max":770,"o":"m 770 428 q 760 313 770 368 q 730 208 749 257 q 677 116 709 158 q 606 45 646 75 q 518 2 566 18 q 414 -14 471 -14 q 306 3 355 -14 q 218 49 256 20 q 149 121 178 79 q 100 213 119 163 q 71 316 81 261 q 62 428 62 370 l 62 558 q 72 675 62 618 q 102 781 82 731 q 151 870 122 829 q 219 940 180 910 q 306 985 257 969 q 412 1001 354 1001 q 521 985 471 1001 q 610 939 570 968 q 678 871 649 910 q 727 785 707 831 q 760 677 749 734 q 770 558 770 620 l 770 428 m 606 559 q 602 633 606 597 q 589 701 598 669 q 563 769 579 739 q 522 822 546 800 q 474 852 501 841 q 412 863 447 863 q 353 852 379 863 q 307 823 326 842 q 267 770 283 801 q 241 701 250 739 q 230 632 233 669 q 226 559 226 596 l 226 428 q 229 357 226 392 q 241 289 233 321 q 265 221 250 252 q 302 168 280 189 q 350 135 323 147 q 414 123 378 123 q 476 135 448 123 q 525 166 505 146 q 565 219 549 189 q 590 288 581 250 q 602 356 598 320 q 606 428 606 391 l 606 559 m 477 1251 l 662 1251 l 477 1065 l 352 1065 l 477 1251 "},"Ŏ":{"ha":833,"x_min":62,"x_max":770,"o":"m 770 428 q 760 313 770 368 q 730 208 749 257 q 677 116 709 158 q 606 45 646 75 q 518 2 566 18 q 414 -14 471 -14 q 306 3 355 -14 q 218 49 256 20 q 149 121 178 79 q 100 213 119 163 q 71 316 81 261 q 62 428 62 370 l 62 558 q 72 675 62 618 q 102 781 82 731 q 151 870 122 829 q 219 940 180 910 q 306 985 257 969 q 412 1001 354 1001 q 521 985 471 1001 q 610 939 570 968 q 678 871 649 910 q 727 785 707 831 q 760 677 749 734 q 770 558 770 620 l 770 428 m 606 559 q 602 633 606 597 q 589 701 598 669 q 563 769 579 739 q 522 822 546 800 q 474 852 501 841 q 412 863 447 863 q 353 852 379 863 q 307 823 326 842 q 267 770 283 801 q 241 701 250 739 q 230 632 233 669 q 226 559 226 596 l 226 428 q 229 357 226 392 q 241 289 233 321 q 265 221 250 252 q 302 168 280 189 q 350 135 323 147 q 414 123 378 123 q 476 135 448 123 q 525 166 505 146 q 565 219 549 189 q 590 288 581 250 q 602 356 598 320 q 606 428 606 391 l 606 559 m 642 1276 q 626 1199 642 1234 q 583 1138 611 1163 q 514 1099 554 1113 q 423 1085 473 1085 q 332 1099 372 1085 q 263 1138 292 1113 q 219 1198 235 1163 q 203 1276 203 1234 l 325 1276 q 331 1240 325 1257 q 348 1209 336 1223 q 378 1188 359 1196 q 423 1181 397 1181 q 467 1188 449 1181 q 498 1210 486 1196 q 515 1240 509 1223 q 520 1276 520 1257 l 642 1276 "},"Ô":{"ha":833,"x_min":62,"x_max":770,"o":"m 770 428 q 760 313 770 368 q 730 208 749 257 q 677 116 709 158 q 606 45 646 75 q 518 2 566 18 q 414 -14 471 -14 q 306 3 355 -14 q 218 49 256 20 q 149 121 178 79 q 100 213 119 163 q 71 316 81 261 q 62 428 62 370 l 62 558 q 72 675 62 618 q 102 781 82 731 q 151 870 122 829 q 219 940 180 910 q 306 985 257 969 q 412 1001 354 1001 q 521 985 471 1001 q 610 939 570 968 q 678 871 649 910 q 727 785 707 831 q 760 677 749 734 q 770 558 770 620 l 770 428 m 606 559 q 602 633 606 597 q 589 701 598 669 q 563 769 579 739 q 522 822 546 800 q 474 852 501 841 q 412 863 447 863 q 353 852 379 863 q 307 823 326 842 q 267 770 283 801 q 241 701 250 739 q 230 632 233 669 q 226 559 226 596 l 226 428 q 229 357 226 392 q 241 289 233 321 q 265 221 250 252 q 302 168 280 189 q 350 135 323 147 q 414 123 378 123 q 476 135 448 123 q 525 166 505 146 q 565 219 549 189 q 590 288 581 250 q 602 356 598 320 q 606 428 606 391 l 606 559 m 656 1115 l 656 1097 l 526 1097 l 422 1190 l 320 1097 l 191 1097 l 191 1116 l 375 1278 l 470 1278 l 656 1115 "},"Ö":{"ha":833,"x_min":62,"x_max":770,"o":"m 770 428 q 760 313 770 368 q 730 208 749 257 q 677 116 709 158 q 606 45 646 75 q 518 2 566 18 q 414 -14 471 -14 q 306 3 355 -14 q 218 49 256 20 q 149 121 178 79 q 100 213 119 163 q 71 316 81 261 q 62 428 62 370 l 62 558 q 72 675 62 618 q 102 781 82 731 q 151 870 122 829 q 219 940 180 910 q 306 985 257 969 q 412 1001 354 1001 q 521 985 471 1001 q 610 939 570 968 q 678 871 649 910 q 727 785 707 831 q 760 677 749 734 q 770 558 770 620 l 770 428 m 606 559 q 602 633 606 597 q 589 701 598 669 q 563 769 579 739 q 522 822 546 800 q 474 852 501 841 q 412 863 447 863 q 353 852 379 863 q 307 823 326 842 q 267 770 283 801 q 241 701 250 739 q 230 632 233 669 q 226 559 226 596 l 226 428 q 229 357 226 392 q 241 289 233 321 q 265 221 250 252 q 302 168 280 189 q 350 135 323 147 q 414 123 378 123 q 476 135 448 123 q 525 166 505 146 q 565 219 549 189 q 590 288 581 250 q 602 356 598 320 q 606 428 606 391 l 606 559 m 179 1178 q 202 1234 179 1211 q 264 1257 224 1257 q 326 1234 302 1257 q 349 1178 349 1211 q 326 1121 349 1144 q 264 1099 302 1099 q 202 1121 225 1099 q 179 1178 179 1144 m 490 1177 q 513 1233 490 1210 q 575 1257 536 1257 q 637 1233 614 1257 q 660 1177 660 1210 q 637 1120 660 1143 q 575 1097 614 1097 q 513 1120 536 1097 q 490 1177 490 1143 "},"Ò":{"ha":833,"x_min":62,"x_max":770,"o":"m 770 428 q 760 313 770 368 q 730 208 749 257 q 677 116 709 158 q 606 45 646 75 q 518 2 566 18 q 414 -14 471 -14 q 306 3 355 -14 q 218 49 256 20 q 149 121 178 79 q 100 213 119 163 q 71 316 81 261 q 62 428 62 370 l 62 558 q 72 675 62 618 q 102 781 82 731 q 151 870 122 829 q 219 940 180 910 q 306 985 257 969 q 412 1001 354 1001 q 521 985 471 1001 q 610 939 570 968 q 678 871 649 910 q 727 785 707 831 q 760 677 749 734 q 770 558 770 620 l 770 428 m 606 559 q 602 633 606 597 q 589 701 598 669 q 563 769 579 739 q 522 822 546 800 q 474 852 501 841 q 412 863 447 863 q 353 852 379 863 q 307 823 326 842 q 267 770 283 801 q 241 701 250 739 q 230 632 233 669 q 226 559 226 596 l 226 428 q 229 357 226 392 q 241 289 233 321 q 265 221 250 252 q 302 168 280 189 q 350 135 323 147 q 414 123 378 123 q 476 135 448 123 q 525 166 505 146 q 565 219 549 189 q 590 288 581 250 q 602 356 598 320 q 606 428 606 391 l 606 559 m 490 1067 l 361 1067 l 186 1253 l 370 1253 l 490 1067 "},"Ơ":{"ha":833,"x_min":65,"x_max":839,"o":"m 774 428 q 750 258 773 339 q 682 117 728 176 q 570 21 636 56 q 416 -14 504 -14 q 263 22 329 -14 q 153 119 197 58 q 87 259 110 180 q 65 428 65 339 l 65 558 q 91 739 65 653 q 165 885 116 824 q 271 970 209 939 q 416 1001 334 1001 q 498 992 460 1001 q 570 966 536 983 q 621 933 597 952 q 665 890 645 914 q 687 910 677 898 q 702 939 696 922 q 711 979 708 956 q 715 1027 715 1001 l 839 1027 q 830 945 839 983 q 806 880 822 908 q 771 833 792 853 q 724 800 750 812 q 761 685 749 746 q 774 558 773 624 l 774 428 m 610 559 q 598 680 610 623 q 560 780 586 738 q 501 840 537 818 q 416 863 465 863 q 333 841 367 863 q 278 784 299 820 q 240 680 251 740 q 229 559 229 621 l 229 428 q 239 312 229 369 q 273 211 250 254 q 329 148 294 172 q 416 123 364 123 q 505 148 469 123 q 565 214 542 172 q 598 312 587 256 q 610 428 609 369 l 610 559 "},"Ő":{"ha":833,"x_min":62,"x_max":786,"o":"m 770 428 q 760 313 770 368 q 730 208 749 257 q 677 116 709 158 q 606 45 646 75 q 518 2 566 18 q 414 -14 471 -14 q 306 3 355 -14 q 218 49 256 20 q 149 121 178 79 q 100 213 119 163 q 71 316 81 261 q 62 428 62 370 l 62 558 q 72 675 62 618 q 102 781 82 731 q 151 870 122 829 q 219 940 180 910 q 306 985 257 969 q 412 1001 354 1001 q 521 985 471 1001 q 610 939 570 968 q 678 871 649 910 q 727 785 707 831 q 760 677 749 734 q 770 558 770 620 l 770 428 m 606 559 q 602 633 606 597 q 589 701 598 669 q 563 769 579 739 q 522 822 546 800 q 474 852 501 841 q 412 863 447 863 q 353 852 379 863 q 307 823 326 842 q 267 770 283 801 q 241 701 250 739 q 230 632 233 669 q 226 559 226 596 l 226 428 q 229 357 226 392 q 241 289 233 321 q 265 221 250 252 q 302 168 280 189 q 350 135 323 147 q 414 123 378 123 q 476 135 448 123 q 525 166 505 146 q 565 219 549 189 q 590 288 581 250 q 602 356 598 320 q 606 428 606 391 l 606 559 m 614 1280 l 786 1280 l 579 1099 l 448 1099 l 614 1280 m 378 1280 l 540 1280 l 369 1099 l 245 1099 l 378 1280 "},"Ō":{"ha":833,"x_min":62,"x_max":770,"o":"m 770 428 q 760 313 770 368 q 730 208 749 257 q 677 116 709 158 q 606 45 646 75 q 518 2 566 18 q 414 -14 471 -14 q 306 3 355 -14 q 218 49 256 20 q 149 121 178 79 q 100 213 119 163 q 71 316 81 261 q 62 428 62 370 l 62 558 q 72 675 62 618 q 102 781 82 731 q 151 870 122 829 q 219 940 180 910 q 306 985 257 969 q 412 1001 354 1001 q 521 985 471 1001 q 610 939 570 968 q 678 871 649 910 q 727 785 707 831 q 760 677 749 734 q 770 558 770 620 l 770 428 m 606 559 q 602 633 606 597 q 589 701 598 669 q 563 769 579 739 q 522 822 546 800 q 474 852 501 841 q 412 863 447 863 q 353 852 379 863 q 307 823 326 842 q 267 770 283 801 q 241 701 250 739 q 230 632 233 669 q 226 559 226 596 l 226 428 q 229 357 226 392 q 241 289 233 321 q 265 221 250 252 q 302 168 280 189 q 350 135 323 147 q 414 123 378 123 q 476 135 448 123 q 525 166 505 146 q 565 219 549 189 q 590 288 581 250 q 602 356 598 320 q 606 428 606 391 l 606 559 m 670 1117 l 179 1117 l 179 1222 l 670 1222 l 670 1117 "},"Ø":{"ha":833,"x_min":39,"x_max":781,"o":"m 770 428 q 746 255 770 337 q 675 112 722 172 q 564 20 629 54 q 413 -14 498 -14 q 305 3 353 -14 q 217 50 256 19 l 151 -64 l 39 -64 l 146 122 q 109 188 125 153 q 83 262 93 223 q 66 342 72 300 q 61 428 61 385 l 61 558 q 84 730 62 648 q 153 873 107 812 q 260 966 195 931 q 412 1001 326 1001 q 478 995 447 1001 q 537 978 510 989 q 577 959 558 970 q 613 934 596 947 l 668 1029 l 781 1029 l 684 861 q 749 722 727 800 q 770 558 770 644 l 770 428 m 225 428 q 227 386 225 407 q 232 344 229 365 q 237 318 234 331 q 243 292 239 304 l 538 804 q 516 827 528 817 q 488 845 503 838 q 453 858 472 853 q 412 863 434 863 q 324 838 359 863 q 267 773 289 812 q 235 674 245 730 q 225 559 225 618 l 225 428 m 606 559 q 602 629 606 594 q 589 696 598 664 l 291 178 q 343 138 313 153 q 413 123 373 123 q 496 145 462 123 q 554 203 531 166 q 594 307 583 248 q 606 428 606 366 l 606 559 "},"Ǿ":{"ha":833,"x_min":39,"x_max":781,"o":"m 770 428 q 746 255 770 337 q 675 112 722 172 q 564 20 629 54 q 413 -14 498 -14 q 305 3 353 -14 q 217 50 256 19 l 151 -64 l 39 -64 l 146 122 q 109 188 125 153 q 83 262 93 223 q 66 342 72 300 q 61 428 61 385 l 61 558 q 84 730 62 648 q 153 873 107 812 q 260 966 195 931 q 412 1001 326 1001 q 478 995 447 1001 q 537 978 510 989 q 577 959 558 970 q 613 934 596 947 l 668 1029 l 781 1029 l 684 861 q 749 722 727 800 q 770 558 770 644 l 770 428 m 225 428 q 227 386 225 407 q 232 344 229 365 q 237 318 234 331 q 243 292 239 304 l 538 804 q 516 827 528 817 q 488 845 503 838 q 453 858 472 853 q 412 863 434 863 q 324 838 359 863 q 267 773 289 812 q 235 674 245 730 q 225 559 225 618 l 225 428 m 606 559 q 602 629 606 594 q 589 696 598 664 l 291 178 q 343 138 313 153 q 413 123 373 123 q 496 145 462 123 q 554 203 531 166 q 594 307 583 248 q 606 428 606 366 l 606 559 m 473 1278 l 658 1278 l 473 1093 l 348 1093 l 473 1278 "},"Õ":{"ha":833,"x_min":62,"x_max":770,"o":"m 770 428 q 760 313 770 368 q 730 208 749 257 q 677 116 709 158 q 606 45 646 75 q 518 2 566 18 q 414 -14 471 -14 q 306 3 355 -14 q 218 49 256 20 q 149 121 178 79 q 100 213 119 163 q 71 316 81 261 q 62 428 62 370 l 62 558 q 72 675 62 618 q 102 781 82 731 q 151 870 122 829 q 219 940 180 910 q 306 985 257 969 q 412 1001 354 1001 q 521 985 471 1001 q 610 939 570 968 q 678 871 649 910 q 727 785 707 831 q 760 677 749 734 q 770 558 770 620 l 770 428 m 606 559 q 602 633 606 597 q 589 701 598 669 q 563 769 579 739 q 522 822 546 800 q 474 852 501 841 q 412 863 447 863 q 353 852 379 863 q 307 823 326 842 q 267 770 283 801 q 241 701 250 739 q 230 632 233 669 q 226 559 226 596 l 226 428 q 229 357 226 392 q 241 289 233 321 q 265 221 250 252 q 302 168 280 189 q 350 135 323 147 q 414 123 378 123 q 476 135 448 123 q 525 166 505 146 q 565 219 549 189 q 590 288 581 250 q 602 356 598 320 q 606 428 606 391 l 606 559 m 663 1272 q 653 1212 663 1241 q 624 1161 642 1183 q 578 1125 605 1138 q 520 1112 552 1112 q 470 1119 492 1112 q 431 1136 449 1126 q 394 1154 412 1145 q 356 1166 376 1163 q 331 1168 343 1168 q 306 1162 318 1168 q 277 1141 288 1158 q 266 1103 267 1125 l 181 1121 q 192 1181 181 1152 q 221 1232 202 1210 q 266 1269 239 1255 q 324 1283 292 1283 q 375 1274 352 1283 q 421 1253 399 1264 q 466 1232 443 1241 q 514 1222 488 1222 q 540 1227 528 1222 q 561 1243 553 1233 q 574 1264 569 1252 q 579 1292 579 1277 l 663 1272 "},"Ŕ":{"ha":833,"x_min":103,"x_max":796,"o":"m 433 383 l 266 383 l 266 0 l 103 0 l 103 987 l 416 987 q 557 968 493 987 q 669 912 622 949 q 741 820 715 875 q 766 690 766 764 q 753 598 766 640 q 716 524 740 557 q 659 465 692 490 q 585 422 626 440 l 796 9 l 796 0 l 622 0 l 433 383 m 266 516 l 418 516 q 497 529 462 517 q 556 566 532 542 q 590 616 578 586 q 602 684 602 646 q 589 759 602 726 q 550 812 576 791 q 492 843 526 833 q 416 854 458 854 l 266 854 l 266 516 m 464 1228 l 648 1228 l 463 1043 l 338 1043 l 464 1228 "},"Ř":{"ha":833,"x_min":103,"x_max":796,"o":"m 433 383 l 266 383 l 266 0 l 103 0 l 103 987 l 416 987 q 557 968 493 987 q 669 912 622 949 q 741 820 715 875 q 766 690 766 764 q 753 598 766 640 q 716 524 740 557 q 659 465 692 490 q 585 422 626 440 l 796 9 l 796 0 l 622 0 l 433 383 m 266 516 l 418 516 q 497 529 462 517 q 556 566 532 542 q 590 616 578 586 q 602 684 602 646 q 589 759 602 726 q 550 812 576 791 q 492 843 526 833 q 416 854 458 854 l 266 854 l 266 516 m 409 1164 l 509 1257 l 648 1257 l 648 1244 l 460 1075 l 358 1075 l 170 1244 l 170 1257 l 309 1257 l 409 1164 "},"Ŗ":{"ha":833,"x_min":103,"x_max":796,"o":"m 433 383 l 266 383 l 266 0 l 103 0 l 103 987 l 416 987 q 557 968 493 987 q 669 912 622 949 q 741 820 715 875 q 766 690 766 764 q 753 598 766 640 q 716 524 740 557 q 659 465 692 490 q 585 422 626 440 l 796 9 l 796 0 l 622 0 l 433 383 m 266 516 l 418 516 q 497 529 462 517 q 556 566 532 542 q 590 616 578 586 q 602 684 602 646 q 589 759 602 726 q 550 812 576 791 q 492 843 526 833 q 416 854 458 854 l 266 854 l 266 516 m 480 -83 q 455 -209 480 -144 q 379 -317 430 -273 l 304 -267 q 342 -181 330 -224 q 355 -85 355 -137 l 355 -37 l 480 -37 l 480 -83 "},"Ś":{"ha":833,"x_min":68,"x_max":779,"o":"m 616 254 q 602 315 616 289 q 562 363 587 342 q 497 398 534 382 q 415 427 460 414 q 287 476 345 447 q 186 541 228 505 q 122 624 145 577 q 98 728 98 670 q 125 842 98 791 q 199 928 153 892 q 306 982 245 964 q 435 1001 368 1001 q 569 979 507 1001 q 677 918 631 957 q 750 822 724 878 q 777 700 777 767 l 616 700 q 600 768 612 737 q 565 821 587 799 q 509 856 542 843 q 433 868 476 868 q 365 858 396 868 q 310 831 333 848 q 274 787 287 812 q 261 729 261 761 q 279 670 262 695 q 324 625 296 644 q 391 592 353 606 q 470 566 429 578 q 572 529 522 551 q 664 475 622 507 q 748 381 716 436 q 779 256 779 327 q 752 140 779 190 q 678 56 724 90 q 570 4 631 22 q 439 -13 508 -13 q 296 10 367 -13 q 174 76 226 33 q 97 172 125 117 q 68 298 69 227 l 231 298 q 251 219 235 252 q 294 163 267 185 q 358 130 321 141 q 439 119 395 119 q 509 128 477 119 q 565 155 541 137 q 602 197 588 172 q 616 254 616 222 m 488 1251 l 672 1251 l 487 1065 l 362 1065 l 488 1251 "},"Š":{"ha":833,"x_min":68,"x_max":779,"o":"m 616 254 q 602 315 616 289 q 562 363 587 342 q 497 398 534 382 q 415 427 460 414 q 287 476 345 447 q 186 541 228 505 q 122 624 145 577 q 98 728 98 670 q 125 842 98 791 q 199 928 153 892 q 306 982 245 964 q 435 1001 368 1001 q 569 979 507 1001 q 677 918 631 957 q 750 822 724 878 q 777 700 777 767 l 616 700 q 600 768 612 737 q 565 821 587 799 q 509 856 542 843 q 433 868 476 868 q 365 858 396 868 q 310 831 333 848 q 274 787 287 812 q 261 729 261 761 q 279 670 262 695 q 324 625 296 644 q 391 592 353 606 q 470 566 429 578 q 572 529 522 551 q 664 475 622 507 q 748 381 716 436 q 779 256 779 327 q 752 140 779 190 q 678 56 724 90 q 570 4 631 22 q 439 -13 508 -13 q 296 10 367 -13 q 174 76 226 33 q 97 172 125 117 q 68 298 69 227 l 231 298 q 251 219 235 252 q 294 163 267 185 q 358 130 321 141 q 439 119 395 119 q 509 128 477 119 q 565 155 541 137 q 602 197 588 172 q 616 254 616 222 m 432 1187 l 532 1280 l 671 1280 l 671 1267 l 483 1097 l 381 1097 l 193 1266 l 193 1280 l 332 1280 l 432 1187 "},"Ş":{"ha":833,"x_min":68,"x_max":779,"o":"m 616 254 q 602 315 616 289 q 562 363 587 342 q 497 398 534 382 q 415 427 460 414 q 287 476 345 447 q 186 541 228 505 q 122 624 145 577 q 98 728 98 670 q 125 842 98 791 q 199 928 153 892 q 306 982 245 964 q 435 1001 368 1001 q 569 979 507 1001 q 677 918 631 957 q 750 822 724 878 q 777 700 777 767 l 616 700 q 600 768 612 737 q 565 821 587 799 q 509 856 542 843 q 433 868 476 868 q 365 858 396 868 q 310 831 333 848 q 274 787 287 812 q 261 729 261 761 q 279 670 262 695 q 324 625 296 644 q 391 592 353 606 q 470 566 429 578 q 572 529 522 551 q 664 475 622 507 q 748 381 716 436 q 779 256 779 327 q 752 140 779 190 q 678 56 724 90 q 570 4 631 22 q 439 -13 508 -13 q 296 10 367 -13 q 174 76 226 33 q 97 172 125 117 q 68 298 69 227 l 231 298 q 251 219 235 252 q 294 163 267 185 q 358 130 321 141 q 439 119 395 119 q 509 128 477 119 q 565 155 541 137 q 602 197 588 172 q 616 254 616 222 m 503 -4 l 494 -41 q 532 -52 514 -44 q 566 -74 551 -60 q 589 -108 580 -87 q 597 -158 597 -129 q 581 -224 597 -195 q 533 -273 564 -254 q 466 -300 505 -290 q 376 -310 427 -310 l 371 -217 q 408 -214 391 -217 q 437 -203 425 -210 q 457 -184 450 -196 q 465 -156 465 -173 q 459 -131 465 -141 q 441 -113 453 -120 q 408 -103 428 -106 q 362 -98 389 -100 l 383 -4 l 503 -4 "},"Ŝ":{"ha":833,"x_min":68,"x_max":779,"o":"m 616 254 q 602 315 616 289 q 562 363 587 342 q 497 398 534 382 q 415 427 460 414 q 287 476 345 447 q 186 541 228 505 q 122 624 145 577 q 98 728 98 670 q 125 842 98 791 q 199 928 153 892 q 306 982 245 964 q 435 1001 368 1001 q 569 979 507 1001 q 677 918 631 957 q 750 822 724 878 q 777 700 777 767 l 616 700 q 600 768 612 737 q 565 821 587 799 q 509 856 542 843 q 433 868 476 868 q 365 858 396 868 q 310 831 333 848 q 274 787 287 812 q 261 729 261 761 q 279 670 262 695 q 324 625 296 644 q 391 592 353 606 q 470 566 429 578 q 572 529 522 551 q 664 475 622 507 q 748 381 716 436 q 779 256 779 327 q 752 140 779 190 q 678 56 724 90 q 570 4 631 22 q 439 -13 508 -13 q 296 10 367 -13 q 174 76 226 33 q 97 172 125 117 q 68 298 69 227 l 231 298 q 251 219 235 252 q 294 163 267 185 q 358 130 321 141 q 439 119 395 119 q 509 128 477 119 q 565 155 541 137 q 602 197 588 172 q 616 254 616 222 m 667 1115 l 667 1097 l 536 1097 l 433 1190 l 330 1097 l 201 1097 l 201 1116 l 385 1278 l 480 1278 l 667 1115 "},"Ŧ":{"ha":833,"x_min":33,"x_max":802,"o":"m 654 532 l 497 532 l 497 0 l 335 0 l 335 532 l 181 532 l 181 646 l 335 646 l 335 852 l 33 852 l 33 987 l 802 987 l 802 852 l 497 852 l 497 646 l 654 646 l 654 532 "},"Ť":{"ha":833,"x_min":33,"x_max":802,"o":"m 802 852 l 497 852 l 497 0 l 335 0 l 335 852 l 33 852 l 33 987 l 802 987 l 802 852 m 420 1168 l 520 1261 l 659 1261 l 659 1248 l 471 1078 l 369 1078 l 181 1247 l 181 1261 l 319 1261 l 420 1168 "},"Ú":{"ha":833,"x_min":89,"x_max":744,"o":"m 743 987 l 744 327 q 721 188 744 250 q 654 80 697 125 q 550 11 611 35 q 414 -14 490 -14 q 281 11 340 -14 q 179 79 221 35 q 113 187 136 124 q 89 327 90 250 l 90 987 l 251 987 l 252 327 q 264 241 253 280 q 296 175 275 202 q 346 135 316 149 q 414 120 375 120 q 485 135 454 120 q 537 176 516 149 q 569 242 558 204 q 581 327 580 281 l 583 987 l 743 987 m 488 1232 l 672 1232 l 487 1046 l 362 1046 l 488 1232 "},"Ŭ":{"ha":833,"x_min":89,"x_max":744,"o":"m 743 987 l 744 327 q 721 188 744 250 q 654 80 697 125 q 550 11 611 35 q 414 -14 490 -14 q 281 11 340 -14 q 179 79 221 35 q 113 187 136 124 q 89 327 90 250 l 90 987 l 251 987 l 252 327 q 264 241 253 280 q 296 175 275 202 q 346 135 316 149 q 414 120 375 120 q 485 135 454 120 q 537 176 516 149 q 569 242 558 204 q 581 327 580 281 l 583 987 l 743 987 m 652 1257 q 637 1180 652 1215 q 594 1119 622 1144 q 525 1080 565 1094 q 434 1066 484 1066 q 343 1080 383 1066 q 274 1119 302 1094 q 230 1179 245 1144 q 214 1257 214 1215 l 336 1257 q 341 1221 336 1238 q 359 1190 347 1204 q 389 1170 370 1177 q 434 1162 408 1162 q 478 1170 460 1162 q 509 1191 496 1177 q 526 1221 520 1204 q 531 1257 531 1238 l 652 1257 "},"Û":{"ha":833,"x_min":89,"x_max":744,"o":"m 743 987 l 744 327 q 721 188 744 250 q 654 80 697 125 q 550 11 611 35 q 414 -14 490 -14 q 281 11 340 -14 q 179 79 221 35 q 113 187 136 124 q 89 327 90 250 l 90 987 l 251 987 l 252 327 q 264 241 253 280 q 296 175 275 202 q 346 135 316 149 q 414 120 375 120 q 485 135 454 120 q 537 176 516 149 q 569 242 558 204 q 581 327 580 281 l 583 987 l 743 987 m 667 1096 l 667 1078 l 536 1078 l 433 1171 l 330 1078 l 201 1078 l 201 1097 l 385 1259 l 480 1259 l 667 1096 "},"Ü":{"ha":833,"x_min":89,"x_max":744,"o":"m 743 987 l 744 327 q 721 188 744 250 q 654 80 697 125 q 550 11 611 35 q 414 -14 490 -14 q 281 11 340 -14 q 179 79 221 35 q 113 187 136 124 q 89 327 90 250 l 90 987 l 251 987 l 252 327 q 264 241 253 280 q 296 175 275 202 q 346 135 316 149 q 414 120 375 120 q 485 135 454 120 q 537 176 516 149 q 569 242 558 204 q 581 327 580 281 l 583 987 l 743 987 m 190 1159 q 213 1215 190 1192 q 275 1238 235 1238 q 336 1215 313 1238 q 359 1159 359 1192 q 336 1102 359 1125 q 275 1080 313 1080 q 213 1102 236 1080 q 190 1159 190 1125 m 501 1158 q 524 1214 501 1191 q 586 1238 547 1238 q 648 1214 625 1238 q 671 1158 671 1191 q 648 1101 671 1124 q 586 1078 625 1078 q 524 1101 547 1078 q 501 1158 501 1124 "},"Ù":{"ha":833,"x_min":89,"x_max":744,"o":"m 743 987 l 744 327 q 721 188 744 250 q 654 80 697 125 q 550 11 611 35 q 414 -14 490 -14 q 281 11 340 -14 q 179 79 221 35 q 113 187 136 124 q 89 327 90 250 l 90 987 l 251 987 l 252 327 q 264 241 253 280 q 296 175 275 202 q 346 135 316 149 q 414 120 375 120 q 485 135 454 120 q 537 176 516 149 q 569 242 558 204 q 581 327 580 281 l 583 987 l 743 987 m 500 1048 l 372 1048 l 197 1234 l 381 1234 l 500 1048 "},"Ư":{"ha":833,"x_min":92,"x_max":977,"o":"m 746 987 l 746 858 q 800 872 779 861 q 832 905 821 884 q 847 955 844 924 q 851 1024 851 985 l 977 1024 q 964 910 977 959 q 922 827 950 861 q 850 778 894 795 q 746 758 806 760 l 746 327 q 723 188 746 250 q 657 80 700 125 q 553 11 614 35 q 417 -14 492 -14 q 284 11 343 -14 q 182 79 224 35 q 116 187 139 124 q 92 327 92 250 l 93 987 l 254 987 l 255 327 q 266 246 256 283 q 294 182 275 209 q 346 136 315 153 q 417 120 376 120 q 487 135 456 120 q 539 176 517 149 q 572 241 561 202 q 584 327 583 280 l 585 987 l 746 987 "},"Ű":{"ha":833,"x_min":89,"x_max":797,"o":"m 743 987 l 744 327 q 721 188 744 250 q 654 80 697 125 q 550 11 611 35 q 414 -14 490 -14 q 281 11 340 -14 q 179 79 221 35 q 113 187 136 124 q 89 327 90 250 l 90 987 l 251 987 l 252 327 q 264 241 253 280 q 296 175 275 202 q 346 135 316 149 q 414 120 375 120 q 485 135 454 120 q 537 176 516 149 q 569 242 558 204 q 581 327 580 281 l 583 987 l 743 987 m 625 1261 l 797 1261 l 590 1080 l 458 1080 l 625 1261 m 389 1261 l 551 1261 l 380 1080 l 256 1080 l 389 1261 "},"Ū":{"ha":833,"x_min":89,"x_max":744,"o":"m 743 987 l 744 327 q 721 188 744 250 q 654 80 697 125 q 550 11 611 35 q 414 -14 490 -14 q 281 11 340 -14 q 179 79 221 35 q 113 187 136 124 q 89 327 90 250 l 90 987 l 251 987 l 252 327 q 264 241 253 280 q 296 175 275 202 q 346 135 316 149 q 414 120 375 120 q 485 135 454 120 q 537 176 516 149 q 569 242 558 204 q 581 327 580 281 l 583 987 l 743 987 m 681 1099 l 190 1099 l 190 1204 l 681 1204 l 681 1099 "},"Ų":{"ha":833,"x_min":89,"x_max":744,"o":"m 743 987 l 744 327 q 730 216 744 267 q 690 124 715 165 q 632 59 666 87 q 557 14 599 31 q 528 -11 541 2 q 507 -38 515 -24 q 496 -65 500 -51 q 493 -94 493 -79 q 504 -128 493 -115 q 541 -142 515 -142 q 577 -136 562 -142 q 603 -126 593 -131 l 630 -221 q 582 -241 611 -232 q 507 -251 552 -251 q 451 -242 477 -251 q 406 -216 425 -234 q 375 -174 387 -199 q 364 -115 364 -149 q 368 -85 364 -100 q 378 -54 372 -69 q 389 -34 382 -44 q 402 -13 395 -23 q 399 -13 401 -13 q 397 -13 397 -13 q 272 15 328 -10 q 176 83 216 40 q 112 190 135 127 q 89 327 90 252 l 90 987 l 251 987 l 252 327 q 263 243 252 281 q 294 178 274 205 q 344 135 314 151 q 414 120 374 120 q 486 135 454 120 q 538 178 517 151 q 570 243 559 205 q 581 327 581 281 l 583 987 l 743 987 "},"Ů":{"ha":833,"x_min":89,"x_max":744,"o":"m 743 987 l 744 327 q 721 188 744 250 q 654 80 697 125 q 550 11 611 35 q 414 -14 490 -14 q 281 11 340 -14 q 179 79 221 35 q 113 187 136 124 q 89 327 90 250 l 90 987 l 251 987 l 252 327 q 264 241 253 280 q 296 175 275 202 q 346 135 316 149 q 414 120 375 120 q 485 135 454 120 q 537 176 516 149 q 569 242 558 204 q 581 327 580 281 l 583 987 l 743 987 m 291 1170 q 302 1223 291 1198 q 333 1265 313 1248 q 378 1293 352 1283 q 433 1303 404 1303 q 488 1293 463 1303 q 532 1265 513 1283 q 562 1223 551 1248 q 572 1170 572 1198 q 562 1117 572 1141 q 532 1076 551 1093 q 488 1048 513 1058 q 433 1039 463 1039 q 377 1048 404 1039 q 333 1076 351 1058 q 302 1117 313 1093 q 291 1170 291 1141 m 364 1170 q 370 1142 364 1155 q 385 1120 375 1130 q 406 1106 393 1112 q 433 1101 418 1101 q 459 1106 447 1101 q 480 1120 471 1111 q 495 1142 490 1129 q 500 1170 500 1154 q 495 1199 500 1185 q 481 1221 490 1212 q 460 1235 472 1230 q 433 1240 448 1240 q 406 1235 419 1240 q 384 1221 393 1230 q 370 1198 375 1211 q 364 1170 364 1185 "},"Ũ":{"ha":833,"x_min":89,"x_max":744,"o":"m 743 987 l 744 327 q 721 188 744 250 q 654 80 697 125 q 550 11 611 35 q 414 -14 490 -14 q 281 11 340 -14 q 179 79 221 35 q 113 187 136 124 q 89 327 90 250 l 90 987 l 251 987 l 252 327 q 264 241 253 280 q 296 175 275 202 q 346 135 316 149 q 414 120 375 120 q 485 135 454 120 q 537 176 516 149 q 569 242 558 204 q 581 327 580 281 l 583 987 l 743 987 m 673 1253 q 663 1193 673 1222 q 634 1142 652 1164 q 589 1106 615 1119 q 530 1093 562 1093 q 480 1100 502 1093 q 441 1117 459 1107 q 404 1135 422 1126 q 366 1147 387 1144 q 341 1149 353 1149 q 316 1143 328 1149 q 288 1122 298 1139 q 276 1084 277 1106 l 191 1102 q 202 1162 191 1133 q 231 1213 212 1191 q 276 1250 250 1236 q 334 1264 302 1264 q 386 1255 362 1264 q 431 1234 409 1245 q 476 1213 453 1222 q 524 1203 498 1203 q 550 1208 538 1203 q 571 1224 563 1214 q 584 1245 579 1233 q 589 1273 589 1258 l 673 1253 "},"Ẃ":{"ha":833,"x_min":31,"x_max":812,"o":"m 160 0 l 31 987 l 182 987 l 250 381 l 255 342 l 262 383 l 357 987 l 481 987 l 580 380 l 587 340 l 591 381 l 660 987 l 812 987 l 682 0 l 528 0 l 427 604 l 420 651 l 413 604 l 314 0 l 160 0 m 471 1236 l 656 1236 l 471 1051 l 346 1051 l 471 1236 "},"Ŵ":{"ha":833,"x_min":31,"x_max":812,"o":"m 160 0 l 31 987 l 182 987 l 250 381 l 255 342 l 262 383 l 357 987 l 481 987 l 580 380 l 587 340 l 591 381 l 660 987 l 812 987 l 682 0 l 528 0 l 427 604 l 420 651 l 413 604 l 314 0 l 160 0 m 650 1101 l 650 1082 l 519 1082 l 416 1175 l 314 1082 l 185 1082 l 185 1101 l 369 1264 l 464 1264 l 650 1101 "},"Ẅ":{"ha":833,"x_min":31,"x_max":812,"o":"m 160 0 l 31 987 l 182 987 l 250 381 l 255 342 l 262 383 l 357 987 l 481 987 l 580 380 l 587 340 l 591 381 l 660 987 l 812 987 l 682 0 l 528 0 l 427 604 l 420 651 l 413 604 l 314 0 l 160 0 m 173 1164 q 196 1220 173 1197 q 258 1243 218 1243 q 319 1220 296 1243 q 342 1164 342 1197 q 319 1107 342 1130 q 258 1084 296 1084 q 196 1107 219 1084 q 173 1164 173 1130 m 484 1163 q 507 1219 484 1196 q 569 1242 530 1242 q 631 1219 608 1242 q 654 1163 654 1196 q 631 1106 654 1129 q 569 1083 608 1083 q 507 1106 530 1083 q 484 1163 484 1129 "},"Ẁ":{"ha":833,"x_min":31,"x_max":812,"o":"m 160 0 l 31 987 l 182 987 l 250 381 l 255 342 l 262 383 l 357 987 l 481 987 l 580 380 l 587 340 l 591 381 l 660 987 l 812 987 l 682 0 l 528 0 l 427 604 l 420 651 l 413 604 l 314 0 l 160 0 m 484 1053 l 355 1053 l 180 1238 l 364 1238 l 484 1053 "},"Ý":{"ha":833,"x_min":31,"x_max":808,"o":"m 419 515 l 626 987 l 808 987 l 498 353 l 497 0 l 338 0 l 337 357 l 31 987 l 212 987 l 419 515 m 475 1236 l 660 1236 l 475 1051 l 350 1051 l 475 1236 "},"Ŷ":{"ha":833,"x_min":31,"x_max":808,"o":"m 419 515 l 626 987 l 808 987 l 498 353 l 497 0 l 338 0 l 337 357 l 31 987 l 212 987 l 419 515 m 654 1101 l 654 1082 l 524 1082 l 420 1175 l 318 1082 l 189 1082 l 189 1101 l 373 1264 l 468 1264 l 654 1101 "},"Ÿ":{"ha":833,"x_min":31,"x_max":808,"o":"m 419 515 l 626 987 l 808 987 l 498 353 l 497 0 l 338 0 l 337 357 l 31 987 l 212 987 l 419 515 m 177 1164 q 200 1220 177 1197 q 262 1243 222 1243 q 323 1220 300 1243 q 347 1164 347 1197 q 323 1107 347 1130 q 262 1084 300 1084 q 200 1107 223 1084 q 177 1164 177 1130 m 488 1163 q 511 1219 488 1196 q 573 1242 534 1242 q 635 1219 612 1242 q 658 1163 658 1196 q 635 1106 658 1129 q 573 1083 612 1083 q 511 1106 534 1083 q 488 1163 488 1129 "},"Ỳ":{"ha":833,"x_min":31,"x_max":808,"o":"m 419 515 l 626 987 l 808 987 l 498 353 l 497 0 l 338 0 l 337 357 l 31 987 l 212 987 l 419 515 m 488 1053 l 359 1053 l 184 1238 l 368 1238 l 488 1053 "},"Ź":{"ha":833,"x_min":67,"x_max":761,"o":"m 262 134 l 761 134 l 761 0 l 68 0 l 67 109 l 551 852 l 72 852 l 72 987 l 745 987 l 747 882 l 262 134 m 488 1232 l 673 1232 l 488 1046 l 363 1046 l 488 1232 "},"Ž":{"ha":833,"x_min":67,"x_max":761,"o":"m 262 134 l 761 134 l 761 0 l 68 0 l 67 109 l 551 852 l 72 852 l 72 987 l 745 987 l 747 882 l 262 134 m 433 1168 l 534 1261 l 673 1261 l 673 1248 l 484 1078 l 382 1078 l 195 1247 l 195 1261 l 333 1261 l 433 1168 "},"Ż":{"ha":833,"x_min":67,"x_max":761,"o":"m 262 134 l 761 134 l 761 0 l 68 0 l 67 109 l 551 852 l 72 852 l 72 987 l 745 987 l 747 882 l 262 134 m 340 1161 q 365 1223 340 1198 q 432 1248 389 1248 q 500 1223 476 1248 q 524 1161 524 1198 q 500 1100 524 1124 q 432 1075 476 1075 q 365 1100 389 1075 q 340 1161 340 1124 "},"á":{"ha":833,"x_min":90,"x_max":739,"o":"m 574 0 q 562 33 566 14 q 554 73 557 52 q 516 40 537 56 q 468 12 494 24 q 411 -7 441 0 q 345 -14 380 -14 q 241 3 288 -14 q 161 49 194 20 q 108 118 127 77 q 90 205 90 158 q 114 312 90 265 q 184 389 138 358 q 289 432 227 417 q 431 447 352 447 l 549 447 l 549 496 q 539 548 549 525 q 511 588 530 571 q 464 614 492 605 q 399 623 435 623 q 341 615 366 623 q 300 593 316 607 q 276 561 283 580 q 268 522 268 543 l 105 522 q 126 606 106 566 q 186 678 146 647 q 280 729 224 710 q 408 747 336 747 q 528 731 472 747 q 625 684 584 715 q 688 605 665 653 q 711 495 711 557 l 711 169 q 719 80 711 119 q 739 12 726 40 l 739 0 l 574 0 m 376 117 q 436 125 408 117 q 486 146 463 133 q 524 175 508 159 q 549 209 541 191 l 549 345 l 445 345 q 353 335 392 345 q 292 307 315 325 q 261 269 271 291 q 252 220 252 248 q 260 179 252 198 q 283 146 268 159 q 322 124 299 132 q 376 117 345 117 m 467 1018 l 652 1018 l 467 833 l 342 833 l 467 1018 "},"ă":{"ha":833,"x_min":90,"x_max":739,"o":"m 574 0 q 562 33 566 14 q 554 73 557 52 q 516 40 537 56 q 468 12 494 24 q 411 -7 441 0 q 345 -14 380 -14 q 241 3 288 -14 q 161 49 194 20 q 108 118 127 77 q 90 205 90 158 q 114 312 90 265 q 184 389 138 358 q 289 432 227 417 q 431 447 352 447 l 549 447 l 549 496 q 539 548 549 525 q 511 588 530 571 q 464 614 492 605 q 399 623 435 623 q 341 615 366 623 q 300 593 316 607 q 276 561 283 580 q 268 522 268 543 l 105 522 q 126 606 106 566 q 186 678 146 647 q 280 729 224 710 q 408 747 336 747 q 528 731 472 747 q 625 684 584 715 q 688 605 665 653 q 711 495 711 557 l 711 169 q 719 80 711 119 q 739 12 726 40 l 739 0 l 574 0 m 376 117 q 436 125 408 117 q 486 146 463 133 q 524 175 508 159 q 549 209 541 191 l 549 345 l 445 345 q 353 335 392 345 q 292 307 315 325 q 261 269 271 291 q 252 220 252 248 q 260 179 252 198 q 283 146 268 159 q 322 124 299 132 q 376 117 345 117 m 632 1044 q 617 966 632 1002 q 574 905 602 930 q 504 866 545 880 q 414 852 464 852 q 322 866 363 852 q 254 905 282 880 q 210 966 225 930 q 194 1044 194 1001 l 315 1044 q 321 1007 315 1025 q 338 977 327 990 q 369 956 350 964 q 414 948 387 948 q 458 956 439 948 q 488 977 476 964 q 505 1007 500 990 q 511 1044 511 1025 l 632 1044 "},"â":{"ha":833,"x_min":90,"x_max":739,"o":"m 574 0 q 562 33 566 14 q 554 73 557 52 q 516 40 537 56 q 468 12 494 24 q 411 -7 441 0 q 345 -14 380 -14 q 241 3 288 -14 q 161 49 194 20 q 108 118 127 77 q 90 205 90 158 q 114 312 90 265 q 184 389 138 358 q 289 432 227 417 q 431 447 352 447 l 549 447 l 549 496 q 539 548 549 525 q 511 588 530 571 q 464 614 492 605 q 399 623 435 623 q 341 615 366 623 q 300 593 316 607 q 276 561 283 580 q 268 522 268 543 l 105 522 q 126 606 106 566 q 186 678 146 647 q 280 729 224 710 q 408 747 336 747 q 528 731 472 747 q 625 684 584 715 q 688 605 665 653 q 711 495 711 557 l 711 169 q 719 80 711 119 q 739 12 726 40 l 739 0 l 574 0 m 376 117 q 436 125 408 117 q 486 146 463 133 q 524 175 508 159 q 549 209 541 191 l 549 345 l 445 345 q 353 335 392 345 q 292 307 315 325 q 261 269 271 291 q 252 220 252 248 q 260 179 252 198 q 283 146 268 159 q 322 124 299 132 q 376 117 345 117 m 646 882 l 646 864 l 515 864 l 412 957 l 310 864 l 181 864 l 181 883 l 365 1046 l 460 1046 l 646 882 "},"ä":{"ha":833,"x_min":90,"x_max":739,"o":"m 574 0 q 562 33 566 14 q 554 73 557 52 q 516 40 537 56 q 468 12 494 24 q 411 -7 441 0 q 345 -14 380 -14 q 241 3 288 -14 q 161 49 194 20 q 108 118 127 77 q 90 205 90 158 q 114 312 90 265 q 184 389 138 358 q 289 432 227 417 q 431 447 352 447 l 549 447 l 549 496 q 539 548 549 525 q 511 588 530 571 q 464 614 492 605 q 399 623 435 623 q 341 615 366 623 q 300 593 316 607 q 276 561 283 580 q 268 522 268 543 l 105 522 q 126 606 106 566 q 186 678 146 647 q 280 729 224 710 q 408 747 336 747 q 528 731 472 747 q 625 684 584 715 q 688 605 665 653 q 711 495 711 557 l 711 169 q 719 80 711 119 q 739 12 726 40 l 739 0 l 574 0 m 376 117 q 436 125 408 117 q 486 146 463 133 q 524 175 508 159 q 549 209 541 191 l 549 345 l 445 345 q 353 335 392 345 q 292 307 315 325 q 261 269 271 291 q 252 220 252 248 q 260 179 252 198 q 283 146 268 159 q 322 124 299 132 q 376 117 345 117 m 170 945 q 192 1002 170 979 q 254 1025 215 1025 q 316 1002 293 1025 q 339 945 339 979 q 316 889 339 911 q 254 866 293 866 q 193 889 216 866 q 170 945 170 911 m 481 945 q 504 1001 481 977 q 566 1024 526 1024 q 628 1001 605 1024 q 650 945 650 977 q 627 888 650 911 q 566 865 604 865 q 504 888 526 865 q 481 945 481 911 "},"à":{"ha":833,"x_min":90,"x_max":739,"o":"m 574 0 q 562 33 566 14 q 554 73 557 52 q 516 40 537 56 q 468 12 494 24 q 411 -7 441 0 q 345 -14 380 -14 q 241 3 288 -14 q 161 49 194 20 q 108 118 127 77 q 90 205 90 158 q 114 312 90 265 q 184 389 138 358 q 289 432 227 417 q 431 447 352 447 l 549 447 l 549 496 q 539 548 549 525 q 511 588 530 571 q 464 614 492 605 q 399 623 435 623 q 341 615 366 623 q 300 593 316 607 q 276 561 283 580 q 268 522 268 543 l 105 522 q 126 606 106 566 q 186 678 146 647 q 280 729 224 710 q 408 747 336 747 q 528 731 472 747 q 625 684 584 715 q 688 605 665 653 q 711 495 711 557 l 711 169 q 719 80 711 119 q 739 12 726 40 l 739 0 l 574 0 m 376 117 q 436 125 408 117 q 486 146 463 133 q 524 175 508 159 q 549 209 541 191 l 549 345 l 445 345 q 353 335 392 345 q 292 307 315 325 q 261 269 271 291 q 252 220 252 248 q 260 179 252 198 q 283 146 268 159 q 322 124 299 132 q 376 117 345 117 m 480 835 l 351 835 l 177 1020 l 361 1020 l 480 835 "},"ā":{"ha":833,"x_min":90,"x_max":739,"o":"m 574 0 q 562 33 566 14 q 554 73 557 52 q 516 40 537 56 q 468 12 494 24 q 411 -7 441 0 q 345 -14 380 -14 q 241 3 288 -14 q 161 49 194 20 q 108 118 127 77 q 90 205 90 158 q 114 312 90 265 q 184 389 138 358 q 289 432 227 417 q 431 447 352 447 l 549 447 l 549 496 q 539 548 549 525 q 511 588 530 571 q 464 614 492 605 q 399 623 435 623 q 341 615 366 623 q 300 593 316 607 q 276 561 283 580 q 268 522 268 543 l 105 522 q 126 606 106 566 q 186 678 146 647 q 280 729 224 710 q 408 747 336 747 q 528 731 472 747 q 625 684 584 715 q 688 605 665 653 q 711 495 711 557 l 711 169 q 719 80 711 119 q 739 12 726 40 l 739 0 l 574 0 m 376 117 q 436 125 408 117 q 486 146 463 133 q 524 175 508 159 q 549 209 541 191 l 549 345 l 445 345 q 353 335 392 345 q 292 307 315 325 q 261 269 271 291 q 252 220 252 248 q 260 179 252 198 q 283 146 268 159 q 322 124 299 132 q 376 117 345 117 m 661 884 l 170 884 l 170 989 l 661 989 l 661 884 "},"ą":{"ha":833,"x_min":90,"x_max":739,"o":"m 570 8 q 561 38 564 22 q 554 73 557 55 q 516 40 537 56 q 468 12 494 24 q 411 -7 441 0 q 345 -14 380 -14 q 241 3 288 -14 q 161 49 194 20 q 108 118 127 77 q 90 205 90 158 q 115 314 90 267 q 189 392 140 361 q 293 433 232 419 q 431 447 355 447 l 549 447 l 549 496 q 540 547 549 524 q 514 585 531 569 q 465 613 494 603 q 399 623 436 623 q 344 616 368 623 q 304 597 320 609 q 277 564 286 583 q 268 522 268 545 l 105 522 q 126 606 106 566 q 186 678 146 647 q 280 729 224 710 q 408 747 336 747 q 528 731 472 747 q 625 684 584 715 q 688 605 665 653 q 711 495 711 557 l 711 169 q 719 80 711 119 q 739 12 726 40 l 739 0 l 709 0 q 657 -29 678 -14 q 622 -62 635 -45 q 604 -96 610 -78 q 598 -132 598 -113 q 609 -167 598 -153 q 647 -180 620 -180 q 683 -175 667 -181 q 708 -165 698 -170 l 735 -260 q 687 -280 716 -271 q 612 -290 657 -290 q 556 -281 582 -290 q 511 -256 530 -273 q 480 -213 492 -239 q 469 -155 469 -188 q 478 -105 469 -130 q 503 -57 487 -80 q 532 -23 515 -39 q 570 8 549 -7 m 376 117 q 436 125 408 117 q 486 146 463 133 q 524 175 508 159 q 549 209 541 191 l 549 345 l 445 345 q 353 335 391 345 q 291 306 314 325 q 261 269 271 290 q 252 220 252 248 q 259 181 252 199 q 279 149 266 162 q 319 125 295 134 q 376 117 343 117 "},"å":{"ha":833,"x_min":90,"x_max":739,"o":"m 574 0 q 562 33 566 14 q 554 73 557 52 q 516 40 537 56 q 468 12 494 24 q 411 -7 441 0 q 345 -14 380 -14 q 241 3 288 -14 q 161 49 194 20 q 108 118 127 77 q 90 205 90 158 q 114 312 90 265 q 184 389 138 358 q 289 432 227 417 q 431 447 352 447 l 549 447 l 549 496 q 539 548 549 525 q 511 588 530 571 q 464 614 492 605 q 399 623 435 623 q 341 615 366 623 q 300 593 316 607 q 276 561 283 580 q 268 522 268 543 l 105 522 q 126 606 106 566 q 186 678 146 647 q 280 729 224 710 q 408 747 336 747 q 528 731 472 747 q 625 684 584 715 q 688 605 665 653 q 711 495 711 557 l 711 169 q 719 80 711 119 q 739 12 726 40 l 739 0 l 574 0 m 376 117 q 436 125 408 117 q 486 146 463 133 q 524 175 508 159 q 549 209 541 191 l 549 345 l 445 345 q 353 335 392 345 q 292 307 315 325 q 261 269 271 291 q 252 220 252 248 q 260 179 252 198 q 283 146 268 159 q 322 124 299 132 q 376 117 345 117 m 271 956 q 282 1009 271 985 q 313 1052 294 1034 q 358 1080 332 1069 q 414 1090 385 1090 q 468 1080 443 1090 q 512 1052 493 1069 q 542 1009 531 1034 q 553 956 553 985 q 542 903 553 927 q 512 862 531 879 q 468 835 493 844 q 414 825 443 825 q 358 835 384 825 q 313 862 332 844 q 282 903 294 879 q 271 956 271 927 m 345 956 q 350 929 345 941 q 365 907 355 916 q 386 893 374 898 q 414 888 399 888 q 439 892 427 888 q 460 906 452 897 q 475 928 470 916 q 480 956 480 941 q 475 985 480 972 q 461 1008 470 998 q 440 1022 452 1017 q 414 1027 428 1027 q 387 1022 399 1027 q 364 1007 374 1017 q 350 985 355 998 q 345 956 345 972 "},"ǻ":{"ha":833,"x_min":90,"x_max":739,"o":"m 574 0 q 562 33 566 14 q 554 73 557 52 q 516 40 537 56 q 468 12 494 24 q 411 -7 441 0 q 345 -14 380 -14 q 241 3 288 -14 q 161 49 194 20 q 108 118 127 77 q 90 205 90 158 q 114 312 90 265 q 184 389 138 358 q 289 432 227 417 q 431 447 352 447 l 549 447 l 549 496 q 539 548 549 525 q 511 588 530 571 q 464 614 492 605 q 399 623 435 623 q 341 615 366 623 q 300 593 316 607 q 276 561 283 580 q 268 522 268 543 l 105 522 q 126 606 106 566 q 186 678 146 647 q 280 729 224 710 q 408 747 336 747 q 528 731 472 747 q 625 684 584 715 q 688 605 665 653 q 711 495 711 557 l 711 169 q 719 80 711 119 q 739 12 726 40 l 739 0 l 574 0 m 376 117 q 436 125 408 117 q 486 146 463 133 q 524 175 508 159 q 549 209 541 191 l 549 345 l 445 345 q 353 335 392 345 q 292 307 315 325 q 261 269 271 291 q 252 220 252 248 q 260 179 252 198 q 283 146 268 159 q 322 124 299 132 q 376 117 345 117 m 486 1211 l 646 1211 l 479 1079 l 373 1079 l 486 1211 m 287 929 q 297 977 287 955 q 324 1015 307 999 q 365 1040 342 1031 q 414 1049 388 1049 q 463 1040 439 1049 q 503 1015 486 1031 q 529 977 519 999 q 538 929 538 955 q 529 882 538 903 q 503 844 519 860 q 463 820 486 829 q 414 812 439 812 q 365 820 388 812 q 324 845 342 829 q 297 882 307 860 q 287 929 287 903 m 354 929 q 372 887 355 904 q 414 870 389 870 q 455 887 439 870 q 471 929 471 904 q 455 972 471 956 q 414 989 439 989 q 372 972 389 989 q 354 929 355 956 "},"ã":{"ha":833,"x_min":90,"x_max":739,"o":"m 574 0 q 562 33 566 14 q 554 73 557 52 q 516 40 537 56 q 468 12 494 24 q 411 -7 441 0 q 345 -14 380 -14 q 241 3 288 -14 q 161 49 194 20 q 108 118 127 77 q 90 205 90 158 q 114 312 90 265 q 184 389 138 358 q 289 432 227 417 q 431 447 352 447 l 549 447 l 549 496 q 539 548 549 525 q 511 588 530 571 q 464 614 492 605 q 399 623 435 623 q 341 615 366 623 q 300 593 316 607 q 276 561 283 580 q 268 522 268 543 l 105 522 q 126 606 106 566 q 186 678 146 647 q 280 729 224 710 q 408 747 336 747 q 528 731 472 747 q 625 684 584 715 q 688 605 665 653 q 711 495 711 557 l 711 169 q 719 80 711 119 q 739 12 726 40 l 739 0 l 574 0 m 376 117 q 436 125 408 117 q 486 146 463 133 q 524 175 508 159 q 549 209 541 191 l 549 345 l 445 345 q 353 335 392 345 q 292 307 315 325 q 261 269 271 291 q 252 220 252 248 q 260 179 252 198 q 283 146 268 159 q 322 124 299 132 q 376 117 345 117 m 653 1039 q 643 979 653 1008 q 614 928 632 950 q 568 892 595 905 q 510 879 542 879 q 460 886 481 879 q 420 903 439 894 q 384 922 401 913 q 346 933 366 930 q 320 936 333 936 q 296 930 308 935 q 267 909 278 925 q 256 870 256 892 l 171 888 q 181 948 171 919 q 211 1000 192 977 q 256 1037 229 1023 q 314 1050 282 1050 q 365 1041 342 1050 q 411 1021 389 1031 q 455 999 433 1008 q 504 989 478 989 q 530 995 517 989 q 551 1010 543 1000 q 564 1032 559 1019 q 569 1059 569 1044 l 653 1039 "},"ǽ":{"ha":833,"x_min":31,"x_max":810,"o":"m 597 -14 q 524 -5 557 -14 q 465 20 491 3 q 433 44 448 31 q 406 75 418 58 q 377 41 393 57 q 340 13 360 24 q 293 -6 318 1 q 239 -14 269 -14 q 150 2 188 -14 q 85 44 111 17 q 44 111 58 71 q 31 198 31 150 q 46 292 31 250 q 92 363 62 334 q 187 417 129 399 q 323 436 245 436 l 342 436 l 342 525 q 337 568 342 549 q 321 597 332 586 q 301 611 313 606 q 275 616 290 616 q 240 610 255 616 q 216 591 225 604 q 202 566 207 581 q 198 531 198 551 l 45 536 q 60 624 45 585 q 105 690 76 663 q 176 732 134 718 q 269 747 217 747 q 328 742 300 747 q 378 725 355 736 q 406 709 393 718 q 430 688 419 699 q 454 708 441 699 q 482 724 467 718 q 530 742 504 736 q 587 747 557 748 q 680 729 639 747 q 750 676 722 710 q 794 593 779 642 q 810 483 810 544 l 810 320 l 488 320 l 488 260 q 491 224 488 241 q 498 193 494 207 q 513 165 503 178 q 536 142 522 152 q 574 123 551 130 q 626 117 597 117 q 669 120 650 117 q 704 130 688 124 q 733 142 720 136 q 759 156 746 149 l 793 42 q 763 23 782 33 q 720 5 745 13 q 664 -8 695 -3 q 597 -14 633 -14 m 277 110 q 297 113 286 110 q 317 121 307 116 q 331 131 324 125 q 342 142 337 136 q 342 182 342 165 q 342 224 342 198 q 342 272 342 253 q 342 323 342 291 l 324 323 q 268 313 292 323 q 226 286 243 302 q 200 244 209 267 q 191 195 191 221 q 196 161 191 177 q 212 135 201 146 q 239 116 222 123 q 277 110 255 110 m 659 435 l 659 515 q 653 555 659 537 q 639 587 648 574 q 614 608 629 600 q 578 616 599 616 q 550 612 563 616 q 528 600 537 608 q 507 575 515 589 q 495 542 499 560 q 490 512 492 528 q 488 479 488 496 l 488 435 l 659 435 m 498 1019 l 682 1019 l 497 833 l 372 833 l 498 1019 "},"ć":{"ha":833,"x_min":87,"x_max":732,"o":"m 425 117 q 483 126 455 117 q 533 152 511 135 q 567 192 554 169 q 579 243 579 215 l 732 243 q 708 142 732 189 q 641 61 683 95 q 543 6 598 26 q 427 -14 488 -14 q 278 15 342 -14 q 173 95 215 45 q 109 212 130 145 q 87 355 87 279 l 87 378 q 108 521 87 454 q 172 638 130 588 q 278 718 215 688 q 426 747 342 747 q 549 727 492 747 q 646 670 606 707 q 710 583 687 633 q 732 471 732 532 l 579 471 q 568 527 579 500 q 536 573 557 553 q 487 604 515 593 q 425 616 458 616 q 340 595 374 616 q 287 541 307 574 q 257 465 266 508 q 249 378 249 422 l 249 355 q 257 267 249 310 q 286 191 266 224 q 340 137 306 157 q 425 117 374 117 m 486 1018 l 670 1018 l 485 833 l 360 833 l 486 1018 "},"č":{"ha":833,"x_min":87,"x_max":732,"o":"m 425 117 q 483 126 455 117 q 533 152 511 135 q 567 192 554 169 q 579 243 579 215 l 732 243 q 708 142 732 189 q 641 61 683 95 q 543 6 598 26 q 427 -14 488 -14 q 278 15 342 -14 q 173 95 215 45 q 109 212 130 145 q 87 355 87 279 l 87 378 q 108 521 87 454 q 172 638 130 588 q 278 718 215 688 q 426 747 342 747 q 549 727 492 747 q 646 670 606 707 q 710 583 687 633 q 732 471 732 532 l 579 471 q 568 527 579 500 q 536 573 557 553 q 487 604 515 593 q 425 616 458 616 q 340 595 374 616 q 287 541 307 574 q 257 465 266 508 q 249 378 249 422 l 249 355 q 257 267 249 310 q 286 191 266 224 q 340 137 306 157 q 425 117 374 117 m 430 954 l 530 1047 l 669 1047 l 669 1034 l 481 865 l 379 865 l 191 1034 l 191 1047 l 330 1047 l 430 954 "},"ç":{"ha":833,"x_min":87,"x_max":732,"o":"m 425 117 q 483 126 455 117 q 533 152 511 135 q 567 192 554 169 q 579 243 579 215 l 732 243 q 708 142 732 189 q 641 61 683 95 q 543 6 598 26 q 427 -14 488 -14 q 278 15 342 -14 q 173 95 215 45 q 109 212 130 145 q 87 355 87 279 l 87 378 q 108 521 87 454 q 172 638 130 588 q 278 718 215 688 q 426 747 342 747 q 549 727 492 747 q 646 670 606 707 q 710 583 687 633 q 732 471 732 532 l 579 471 q 568 527 579 500 q 536 573 557 553 q 487 604 515 593 q 425 616 458 616 q 340 595 374 616 q 287 541 307 574 q 257 465 266 508 q 249 378 249 422 l 249 355 q 257 267 249 310 q 286 191 266 224 q 340 137 306 157 q 425 117 374 117 m 487 4 l 479 -33 q 517 -44 498 -36 q 550 -66 535 -52 q 573 -100 564 -79 q 582 -150 582 -121 q 565 -216 582 -187 q 517 -264 549 -245 q 450 -292 490 -282 q 360 -302 411 -302 l 355 -209 q 392 -205 375 -209 q 422 -195 409 -202 q 441 -176 434 -188 q 449 -148 449 -165 q 443 -122 449 -133 q 425 -105 437 -112 q 393 -95 412 -98 q 347 -90 373 -92 l 368 4 l 487 4 "},"ĉ":{"ha":833,"x_min":87,"x_max":732,"o":"m 425 117 q 483 126 455 117 q 533 152 511 135 q 567 192 554 169 q 579 243 579 215 l 732 243 q 708 142 732 189 q 641 61 683 95 q 543 6 598 26 q 427 -14 488 -14 q 278 15 342 -14 q 173 95 215 45 q 109 212 130 145 q 87 355 87 279 l 87 378 q 108 521 87 454 q 172 638 130 588 q 278 718 215 688 q 426 747 342 747 q 549 727 492 747 q 646 670 606 707 q 710 583 687 633 q 732 471 732 532 l 579 471 q 568 527 579 500 q 536 573 557 553 q 487 604 515 593 q 425 616 458 616 q 340 595 374 616 q 287 541 307 574 q 257 465 266 508 q 249 378 249 422 l 249 355 q 257 267 249 310 q 286 191 266 224 q 340 137 306 157 q 425 117 374 117 m 664 882 l 664 864 l 533 864 l 430 957 l 328 864 l 199 864 l 199 883 l 382 1046 l 477 1046 l 664 882 "},"ď":{"ha":833,"x_min":44,"x_max":970,"o":"m 44 372 q 64 525 44 456 q 122 643 84 593 q 213 720 159 692 q 335 747 267 747 q 442 726 396 747 q 523 665 488 705 l 523 1042 l 685 1042 l 685 0 l 538 0 l 530 77 q 446 10 495 33 q 334 -14 397 -14 q 213 15 267 -14 q 122 93 159 43 q 64 211 85 142 q 44 358 44 279 l 44 372 m 206 358 q 216 266 206 309 q 245 191 225 222 q 298 139 266 157 q 374 120 330 120 q 465 144 429 120 q 523 210 501 168 l 523 525 q 466 590 501 566 q 376 614 430 614 q 298 595 330 614 q 246 543 266 576 q 216 466 225 509 q 206 372 206 422 l 206 358 m 970 947 q 962 878 970 914 q 937 807 953 842 q 898 741 920 772 q 849 686 876 709 l 770 737 q 815 833 799 783 q 831 947 831 884 l 831 1057 l 970 1057 l 970 947 "},"đ":{"ha":833,"x_min":73,"x_max":837,"o":"m 837 831 l 714 831 l 714 0 l 567 0 l 559 77 q 527 44 545 58 q 490 18 510 29 q 432 -5 464 3 q 363 -14 400 -14 q 242 15 296 -14 q 151 93 189 43 q 94 211 114 142 q 73 358 73 279 l 73 372 q 93 525 73 456 q 151 643 113 593 q 242 720 189 692 q 364 747 296 747 q 436 739 403 747 q 497 712 469 730 q 526 691 512 703 q 552 665 539 679 l 552 831 l 383 831 l 383 945 l 552 945 l 552 1042 l 714 1042 l 714 945 l 837 945 l 837 831 m 235 358 q 245 266 235 309 q 275 191 254 222 q 327 139 295 157 q 404 120 359 120 q 454 126 431 120 q 496 145 477 133 q 527 173 513 157 q 552 210 541 190 l 552 525 q 525 564 541 547 q 489 593 509 582 q 451 608 472 603 q 405 614 430 614 q 327 595 359 614 q 275 543 295 576 q 245 466 254 509 q 235 372 235 422 l 235 358 "},"é":{"ha":833,"x_min":83,"x_max":755,"o":"m 448 -14 q 299 14 366 -14 q 183 89 231 41 q 109 201 135 136 q 83 341 83 266 l 83 369 q 110 525 83 455 q 184 644 137 595 q 295 721 232 694 q 429 747 357 747 q 569 721 508 747 q 671 646 630 694 q 734 532 713 598 q 755 387 755 465 l 755 317 l 246 317 l 246 313 q 269 233 254 265 q 312 174 285 200 q 376 132 339 147 q 457 117 413 117 q 570 141 517 117 q 656 208 622 164 l 743 123 q 630 28 706 71 q 448 -14 555 -14 m 428 616 q 364 603 393 616 q 311 568 334 591 q 273 511 288 544 q 250 435 257 477 l 595 435 l 595 446 q 583 510 595 478 q 551 565 572 541 q 499 602 530 588 q 428 616 469 616 m 468 1019 l 652 1019 l 467 833 l 342 833 l 468 1019 "},"ĕ":{"ha":833,"x_min":83,"x_max":755,"o":"m 448 -14 q 299 14 366 -14 q 183 89 231 41 q 109 201 135 136 q 83 341 83 266 l 83 369 q 110 525 83 455 q 184 644 137 595 q 295 721 232 694 q 429 747 357 747 q 569 721 508 747 q 671 646 630 694 q 734 532 713 598 q 755 387 755 465 l 755 317 l 246 317 l 246 313 q 269 233 254 265 q 312 174 285 200 q 376 132 339 147 q 457 117 413 117 q 570 141 517 117 q 656 208 622 164 l 743 123 q 630 28 706 71 q 448 -14 555 -14 m 428 616 q 364 603 393 616 q 311 568 334 591 q 273 511 288 544 q 250 435 257 477 l 595 435 l 595 446 q 583 510 595 478 q 551 565 572 541 q 499 602 530 588 q 428 616 469 616 m 633 1044 q 617 967 633 1002 q 574 906 602 931 q 505 867 545 881 q 414 853 465 853 q 323 867 363 853 q 254 906 283 881 q 210 966 226 931 q 195 1044 195 1002 l 316 1044 q 322 1008 316 1025 q 339 977 328 991 q 369 957 351 964 q 414 949 388 949 q 458 957 440 949 q 489 978 477 964 q 506 1008 500 991 q 511 1044 511 1025 l 633 1044 "},"ě":{"ha":833,"x_min":83,"x_max":755,"o":"m 448 -14 q 299 14 366 -14 q 183 89 231 41 q 109 201 135 136 q 83 341 83 266 l 83 369 q 110 525 83 455 q 184 644 137 595 q 295 721 232 694 q 429 747 357 747 q 569 721 508 747 q 671 646 630 694 q 734 532 713 598 q 755 387 755 465 l 755 317 l 246 317 l 246 313 q 269 233 254 265 q 312 174 285 200 q 376 132 339 147 q 457 117 413 117 q 570 141 517 117 q 656 208 622 164 l 743 123 q 630 28 706 71 q 448 -14 555 -14 m 428 616 q 364 603 393 616 q 311 568 334 591 q 273 511 288 544 q 250 435 257 477 l 595 435 l 595 446 q 583 510 595 478 q 551 565 572 541 q 499 602 530 588 q 428 616 469 616 m 413 955 l 513 1048 l 652 1048 l 652 1035 l 464 865 l 362 865 l 174 1034 l 174 1048 l 313 1048 l 413 955 "},"ê":{"ha":833,"x_min":83,"x_max":755,"o":"m 448 -14 q 299 14 366 -14 q 183 89 231 41 q 109 201 135 136 q 83 341 83 266 l 83 369 q 110 525 83 455 q 184 644 137 595 q 295 721 232 694 q 429 747 357 747 q 569 721 508 747 q 671 646 630 694 q 734 532 713 598 q 755 387 755 465 l 755 317 l 246 317 l 246 313 q 269 233 254 265 q 312 174 285 200 q 376 132 339 147 q 457 117 413 117 q 570 141 517 117 q 656 208 622 164 l 743 123 q 630 28 706 71 q 448 -14 555 -14 m 428 616 q 364 603 393 616 q 311 568 334 591 q 273 511 288 544 q 250 435 257 477 l 595 435 l 595 446 q 583 510 595 478 q 551 565 572 541 q 499 602 530 588 q 428 616 469 616 m 647 883 l 647 865 l 516 865 l 413 958 l 311 865 l 182 865 l 182 884 l 366 1046 l 460 1046 l 647 883 "},"ë":{"ha":833,"x_min":83,"x_max":755,"o":"m 448 -14 q 299 14 366 -14 q 183 89 231 41 q 109 201 135 136 q 83 341 83 266 l 83 369 q 110 525 83 455 q 184 644 137 595 q 295 721 232 694 q 429 747 357 747 q 569 721 508 747 q 671 646 630 694 q 734 532 713 598 q 755 387 755 465 l 755 317 l 246 317 l 246 313 q 269 233 254 265 q 312 174 285 200 q 376 132 339 147 q 457 117 413 117 q 570 141 517 117 q 656 208 622 164 l 743 123 q 630 28 706 71 q 448 -14 555 -14 m 428 616 q 364 603 393 616 q 311 568 334 591 q 273 511 288 544 q 250 435 257 477 l 595 435 l 595 446 q 583 510 595 478 q 551 565 572 541 q 499 602 530 588 q 428 616 469 616 m 170 946 q 192 1002 170 979 q 254 1025 215 1025 q 316 1002 293 1025 q 339 946 339 979 q 316 889 339 912 q 254 867 293 867 q 193 889 216 867 q 170 946 170 912 m 481 945 q 504 1001 481 978 q 566 1025 526 1025 q 628 1001 605 1025 q 650 945 650 978 q 627 888 650 911 q 566 865 604 865 q 504 888 526 865 q 481 945 481 911 "},"ė":{"ha":833,"x_min":83,"x_max":755,"o":"m 448 -14 q 299 14 366 -14 q 183 89 231 41 q 109 201 135 136 q 83 341 83 266 l 83 369 q 110 525 83 455 q 184 644 137 595 q 295 721 232 694 q 429 747 357 747 q 569 721 508 747 q 671 646 630 694 q 734 532 713 598 q 755 387 755 465 l 755 317 l 246 317 l 246 313 q 269 233 254 265 q 312 174 285 200 q 376 132 339 147 q 457 117 413 117 q 570 141 517 117 q 656 208 622 164 l 743 123 q 630 28 706 71 q 448 -14 555 -14 m 428 616 q 364 603 393 616 q 311 568 334 591 q 273 511 288 544 q 250 435 257 477 l 595 435 l 595 446 q 583 510 595 478 q 551 565 572 541 q 499 602 530 588 q 428 616 469 616 m 321 947 q 345 1009 321 985 q 412 1034 369 1034 q 480 1009 456 1034 q 505 947 505 985 q 480 886 505 911 q 412 861 456 861 q 345 886 369 861 q 321 947 321 911 "},"è":{"ha":833,"x_min":83,"x_max":755,"o":"m 448 -14 q 299 14 366 -14 q 183 89 231 41 q 109 201 135 136 q 83 341 83 266 l 83 369 q 110 525 83 455 q 184 644 137 595 q 295 721 232 694 q 429 747 357 747 q 569 721 508 747 q 671 646 630 694 q 734 532 713 598 q 755 387 755 465 l 755 317 l 246 317 l 246 313 q 269 233 254 265 q 312 174 285 200 q 376 132 339 147 q 457 117 413 117 q 570 141 517 117 q 656 208 622 164 l 743 123 q 630 28 706 71 q 448 -14 555 -14 m 428 616 q 364 603 393 616 q 311 568 334 591 q 273 511 288 544 q 250 435 257 477 l 595 435 l 595 446 q 583 510 595 478 q 551 565 572 541 q 499 602 530 588 q 428 616 469 616 m 481 836 l 352 836 l 178 1021 l 361 1021 l 481 836 "},"ē":{"ha":833,"x_min":83,"x_max":755,"o":"m 448 -14 q 299 14 366 -14 q 183 89 231 41 q 109 201 135 136 q 83 341 83 266 l 83 369 q 110 525 83 455 q 184 644 137 595 q 295 721 232 694 q 429 747 357 747 q 569 721 508 747 q 671 646 630 694 q 734 532 713 598 q 755 387 755 465 l 755 317 l 246 317 l 246 313 q 269 233 254 265 q 312 174 285 200 q 376 132 339 147 q 457 117 413 117 q 570 141 517 117 q 656 208 622 164 l 743 123 q 630 28 706 71 q 448 -14 555 -14 m 428 616 q 364 603 393 616 q 311 568 334 591 q 273 511 288 544 q 250 435 257 477 l 595 435 l 595 446 q 583 510 595 478 q 551 565 572 541 q 499 602 530 588 q 428 616 469 616 m 661 885 l 170 885 l 170 990 l 661 990 l 661 885 "},"ŋ":{"ha":833,"x_min":111,"x_max":723,"o":"m 111 0 l 111 734 l 260 734 l 268 637 l 269 630 q 300 671 283 652 q 337 703 317 689 q 403 736 367 724 q 481 747 439 747 q 581 731 536 747 q 657 680 626 714 q 706 588 689 644 q 723 455 723 532 l 723 -41 q 706 -152 723 -104 q 657 -233 689 -201 q 582 -280 626 -264 q 484 -296 538 -296 q 440 -294 460 -296 q 396 -285 420 -292 l 406 -152 q 439 -158 420 -156 q 473 -160 458 -160 q 506 -154 492 -160 q 532 -137 521 -149 q 553 -98 546 -123 q 560 -41 560 -74 l 560 454 q 552 527 560 496 q 528 576 543 557 q 485 605 511 596 q 425 614 460 614 q 368 607 394 614 q 323 588 342 600 q 295 566 308 578 q 273 539 283 553 l 273 0 l 111 0 "},"ę":{"ha":833,"x_min":83,"x_max":755,"o":"m 83 341 l 83 369 q 110 525 83 455 q 184 644 137 595 q 295 721 232 694 q 429 747 357 747 q 569 721 508 747 q 671 646 630 694 q 734 532 713 598 q 755 387 755 465 l 755 317 l 245 317 l 246 314 q 266 239 250 277 q 312 174 283 202 q 376 133 339 148 q 457 117 413 117 q 570 141 517 117 q 656 208 622 164 l 743 123 q 683 61 720 92 q 598 14 646 31 q 552 -12 571 2 q 519 -41 532 -26 q 496 -77 504 -58 q 489 -118 489 -97 q 500 -153 489 -139 q 538 -166 511 -166 q 573 -161 558 -167 q 599 -151 589 -156 l 626 -246 q 577 -266 607 -256 q 503 -276 548 -276 q 447 -267 473 -276 q 401 -241 421 -258 q 371 -199 382 -224 q 360 -140 360 -174 q 375 -75 360 -109 q 422 -13 391 -41 q 419 -13 420 -13 q 416 -12 418 -12 q 281 22 343 -7 q 176 98 219 50 q 107 207 131 144 q 83 341 83 269 m 428 616 q 364 603 393 616 q 311 568 334 591 q 273 511 288 544 q 250 435 257 477 l 595 435 l 595 446 q 582 511 594 479 q 551 565 570 543 q 499 602 530 588 q 428 616 469 616 "},"ğ":{"ha":833,"x_min":84,"x_max":730,"o":"m 84 372 q 104 525 84 456 q 163 643 125 593 q 257 720 202 692 q 380 747 311 747 q 454 739 420 747 q 514 714 487 730 q 547 690 532 704 q 576 660 563 676 l 583 734 l 730 734 l 730 20 q 706 -111 730 -54 q 639 -208 682 -168 q 533 -268 595 -248 q 398 -289 472 -289 q 330 -282 367 -289 q 255 -261 292 -275 q 184 -224 218 -247 q 125 -168 150 -201 l 202 -70 q 244 -111 222 -94 q 291 -139 267 -128 q 339 -155 315 -150 q 389 -160 363 -160 q 466 -148 432 -160 q 523 -113 499 -136 q 556 -58 545 -90 q 568 16 568 -25 l 568 67 q 539 39 554 52 q 506 17 524 26 q 448 -6 479 2 q 378 -14 416 -14 q 256 15 311 -14 q 163 93 202 43 q 105 211 125 142 q 84 358 84 279 l 84 372 m 247 358 q 257 266 247 309 q 288 191 267 222 q 342 139 309 157 q 419 120 374 120 q 470 126 447 120 q 511 143 492 132 q 543 171 529 155 q 568 207 557 187 l 568 528 q 542 565 557 549 q 507 593 527 581 q 468 608 490 602 q 420 614 446 614 q 342 595 375 614 q 289 543 310 576 q 257 466 267 509 q 247 372 247 422 l 247 358 m 627 1044 q 612 966 627 1002 q 569 905 597 930 q 499 866 540 880 q 409 852 459 852 q 318 866 358 852 q 249 905 277 880 q 205 966 220 930 q 189 1044 189 1001 l 311 1044 q 316 1007 311 1025 q 334 977 322 990 q 364 956 345 964 q 409 948 382 948 q 453 956 435 948 q 484 977 471 964 q 500 1007 495 990 q 506 1044 506 1025 l 627 1044 "},"ĝ":{"ha":833,"x_min":84,"x_max":730,"o":"m 84 372 q 104 525 84 456 q 163 643 125 593 q 257 720 202 692 q 380 747 311 747 q 454 739 420 747 q 514 714 487 730 q 547 690 532 704 q 576 660 563 676 l 583 734 l 730 734 l 730 20 q 706 -111 730 -54 q 639 -208 682 -168 q 533 -268 595 -248 q 398 -289 472 -289 q 330 -282 367 -289 q 255 -261 292 -275 q 184 -224 218 -247 q 125 -168 150 -201 l 202 -70 q 244 -111 222 -94 q 291 -139 267 -128 q 339 -155 315 -150 q 389 -160 363 -160 q 466 -148 432 -160 q 523 -113 499 -136 q 556 -58 545 -90 q 568 16 568 -25 l 568 67 q 539 39 554 52 q 506 17 524 26 q 448 -6 479 2 q 378 -14 416 -14 q 256 15 311 -14 q 163 93 202 43 q 105 211 125 142 q 84 358 84 279 l 84 372 m 247 358 q 257 266 247 309 q 288 191 267 222 q 342 139 309 157 q 419 120 374 120 q 470 126 447 120 q 511 143 492 132 q 543 171 529 155 q 568 207 557 187 l 568 528 q 542 565 557 549 q 507 593 527 581 q 468 608 490 602 q 420 614 446 614 q 342 595 375 614 q 289 543 310 576 q 257 466 267 509 q 247 372 247 422 l 247 358 m 642 882 l 642 864 l 511 864 l 408 957 l 305 864 l 176 864 l 176 883 l 360 1046 l 455 1046 l 642 882 "},"ģ":{"ha":833,"x_min":84,"x_max":730,"o":"m 84 372 q 104 525 84 456 q 163 643 125 593 q 257 720 202 692 q 380 747 311 747 q 454 739 420 747 q 514 714 487 730 q 547 690 532 704 q 576 660 563 676 l 583 734 l 730 734 l 730 20 q 706 -111 730 -54 q 639 -208 682 -168 q 533 -268 595 -248 q 398 -289 472 -289 q 330 -282 367 -289 q 255 -261 292 -275 q 184 -224 218 -247 q 125 -168 150 -201 l 202 -70 q 244 -111 222 -94 q 291 -139 267 -128 q 339 -155 315 -150 q 389 -160 363 -160 q 466 -148 432 -160 q 523 -113 499 -136 q 556 -58 545 -90 q 568 16 568 -25 l 568 67 q 539 39 554 52 q 506 17 524 26 q 448 -6 479 2 q 378 -14 416 -14 q 256 15 311 -14 q 163 93 202 43 q 105 211 125 142 q 84 358 84 279 l 84 372 m 247 358 q 257 266 247 309 q 288 191 267 222 q 342 139 309 157 q 419 120 374 120 q 470 126 447 120 q 511 143 492 132 q 543 171 529 155 q 568 207 557 187 l 568 528 q 542 565 557 549 q 507 593 527 581 q 468 608 490 602 q 420 614 446 614 q 342 595 375 614 q 289 543 310 576 q 257 466 267 509 q 247 372 247 422 l 247 358 m 336 942 q 365 1067 336 1008 q 433 1154 395 1126 l 520 1100 q 488 1024 499 1064 q 476 935 476 983 l 475 852 l 336 852 l 336 942 "},"ħ":{"ha":833,"x_min":1,"x_max":751,"o":"m 455 830 l 277 830 l 277 629 q 314 674 294 654 q 357 708 334 694 q 420 737 387 727 q 492 747 454 747 q 598 730 550 747 q 680 677 646 713 q 732 586 713 642 q 751 452 751 530 l 751 0 l 589 0 l 589 453 q 578 525 589 494 q 549 575 568 556 q 502 604 530 595 q 437 614 473 614 q 388 608 411 614 q 345 591 364 602 q 307 565 324 581 q 277 531 290 550 l 277 0 l 115 0 l 115 830 l 1 830 l 1 943 l 115 943 l 115 1042 l 277 1042 l 277 943 l 455 943 l 455 830 "},"ĥ":{"ha":833,"x_min":-43,"x_max":741,"o":"m 267 629 q 299 669 281 651 q 336 701 317 688 q 404 735 367 724 q 482 747 441 747 q 588 730 540 747 q 669 677 635 713 q 722 586 703 642 q 741 452 741 530 l 741 0 l 578 0 l 578 453 q 569 524 578 494 q 540 574 559 555 q 492 604 520 594 q 427 614 464 614 q 373 607 399 614 q 327 587 348 600 q 294 563 309 577 q 267 531 279 549 l 267 0 l 105 0 l 105 1042 l 267 1042 l 267 629 m 422 1149 l 422 1131 l 291 1131 l 188 1224 l 85 1131 l -43 1131 l -43 1150 l 140 1313 l 235 1313 l 422 1149 "},"í":{"ha":833,"x_min":136,"x_max":754,"o":"m 136 734 l 532 734 l 532 134 l 754 134 l 754 0 l 136 0 l 136 134 l 368 134 l 368 599 l 136 599 l 136 734 m 507 1002 l 692 1002 l 507 817 l 382 817 l 507 1002 "},"ĭ":{"ha":833,"x_min":136,"x_max":754,"o":"m 136 734 l 532 734 l 532 134 l 754 134 l 754 0 l 136 0 l 136 134 l 368 134 l 368 599 l 136 599 l 136 734 m 671 1027 q 656 950 671 985 q 613 889 641 914 q 544 850 584 864 q 453 836 503 836 q 362 850 402 836 q 293 889 321 864 q 249 949 264 914 q 233 1027 233 985 l 355 1027 q 360 991 355 1008 q 378 960 366 974 q 408 940 389 947 q 453 932 427 932 q 497 940 479 932 q 528 961 515 947 q 545 991 539 974 q 550 1027 550 1008 l 671 1027 "},"î":{"ha":833,"x_min":136,"x_max":754,"o":"m 136 734 l 532 734 l 532 134 l 754 134 l 754 0 l 136 0 l 136 134 l 368 134 l 368 599 l 136 599 l 136 734 m 686 866 l 686 848 l 555 848 l 452 941 l 350 848 l 221 848 l 221 867 l 405 1029 l 500 1029 l 686 866 "},"ï":{"ha":833,"x_min":136,"x_max":754,"o":"m 136 734 l 532 734 l 532 134 l 754 134 l 754 0 l 136 0 l 136 134 l 368 134 l 368 599 l 136 599 l 136 734 m 208 929 q 231 985 208 962 q 293 1008 254 1008 q 355 985 332 1008 q 378 929 378 962 q 355 872 378 895 q 293 850 332 850 q 231 872 254 850 q 208 929 208 895 m 519 928 q 542 984 519 961 q 604 1008 565 1008 q 666 984 644 1008 q 689 928 689 961 q 666 871 689 895 q 604 848 643 848 q 542 871 565 848 q 519 928 519 895 "},"ì":{"ha":833,"x_min":136,"x_max":754,"o":"m 136 734 l 532 734 l 532 134 l 754 134 l 754 0 l 136 0 l 136 134 l 368 134 l 368 599 l 136 599 l 136 734 m 519 819 l 391 819 l 216 1004 l 400 1004 l 519 819 "},"ī":{"ha":833,"x_min":136,"x_max":754,"o":"m 136 734 l 532 734 l 532 134 l 754 134 l 754 0 l 136 0 l 136 134 l 368 134 l 368 599 l 136 599 l 136 734 m 699 869 l 208 869 l 208 974 l 699 974 l 699 869 "},"į":{"ha":833,"x_min":142,"x_max":747,"o":"m 142 734 l 532 734 l 532 134 l 747 134 l 747 0 l 516 0 q 467 -27 488 -13 q 433 -58 447 -41 q 412 -93 419 -74 q 406 -132 406 -112 q 416 -167 406 -153 q 454 -180 427 -180 q 490 -175 475 -181 q 515 -165 505 -170 l 543 -260 q 494 -280 524 -271 q 419 -290 465 -290 q 363 -281 389 -290 q 318 -256 337 -273 q 288 -213 299 -239 q 277 -155 277 -188 q 286 -103 277 -129 q 314 -54 296 -77 q 337 -25 324 -39 q 366 0 351 -12 l 142 0 l 142 134 l 368 134 l 368 599 l 142 599 l 142 734 m 353 924 q 378 987 353 962 q 448 1013 404 1013 q 518 988 493 1013 q 543 924 543 962 q 518 860 543 885 q 448 836 493 836 q 379 860 404 836 q 353 924 353 885 "},"ĩ":{"ha":833,"x_min":136,"x_max":754,"o":"m 136 734 l 532 734 l 532 134 l 754 134 l 754 0 l 136 0 l 136 134 l 368 134 l 368 599 l 136 599 l 136 734 m 693 1023 q 683 963 693 992 q 654 912 672 934 q 608 876 635 889 q 550 863 582 863 q 500 870 522 863 q 460 887 479 878 q 424 905 441 897 q 386 917 406 914 q 360 919 373 920 q 336 913 348 919 q 307 892 318 909 q 296 854 296 876 l 211 872 q 221 932 211 903 q 251 983 232 961 q 296 1020 269 1006 q 354 1034 322 1034 q 405 1025 382 1034 q 451 1004 429 1015 q 495 983 473 992 q 544 973 518 973 q 570 979 557 973 q 591 994 583 984 q 604 1016 599 1003 q 609 1043 609 1028 l 693 1023 "},"ĵ":{"ha":833,"x_min":139,"x_max":725,"o":"m 196 734 l 570 734 l 570 -12 q 550 -137 570 -84 q 492 -226 530 -191 q 397 -279 453 -261 q 270 -296 341 -296 q 233 -296 251 -296 q 197 -294 214 -295 q 168 -290 182 -292 q 139 -285 154 -288 l 149 -153 q 174 -156 158 -155 q 206 -159 189 -158 q 237 -160 222 -160 q 260 -161 252 -161 q 318 -153 291 -161 q 365 -129 345 -146 q 396 -83 385 -111 q 408 -12 408 -54 l 408 599 l 196 599 l 196 734 m 725 858 l 725 840 l 594 840 l 491 932 l 389 840 l 260 840 l 260 859 l 444 1021 l 538 1021 l 725 858 "},"ķ":{"ha":833,"x_min":106,"x_max":792,"o":"m 357 319 l 269 236 l 269 0 l 106 0 l 106 1042 l 269 1042 l 269 429 l 336 503 l 555 734 l 751 734 l 465 428 l 792 0 l 591 0 l 357 319 m 457 -90 q 432 -215 457 -151 q 356 -324 407 -279 l 281 -274 q 319 -188 307 -231 q 332 -92 332 -144 l 332 -43 l 457 -43 l 457 -90 "},"ĺ":{"ha":833,"x_min":136,"x_max":754,"o":"m 136 1042 l 532 1042 l 532 134 l 754 134 l 754 0 l 136 0 l 136 134 l 368 134 l 368 907 l 136 907 l 136 1042 m 503 1284 l 688 1284 l 503 1099 l 378 1099 l 503 1284 "},"ľ":{"ha":833,"x_min":94,"x_max":815,"o":"m 94 1042 l 490 1042 l 490 134 l 712 134 l 712 0 l 94 0 l 94 134 l 326 134 l 326 907 l 94 907 l 94 1042 m 815 935 q 806 865 815 901 q 782 794 798 829 q 743 728 765 760 q 694 673 721 696 l 615 724 q 660 820 644 770 q 676 934 676 871 l 676 1044 l 815 1044 l 815 935 "},"ļ":{"ha":833,"x_min":136,"x_max":754,"o":"m 136 1042 l 532 1042 l 532 134 l 754 134 l 754 0 l 136 0 l 136 134 l 368 134 l 368 907 l 136 907 l 136 1042 m 520 -83 q 495 -208 520 -144 q 419 -317 470 -272 l 345 -267 q 382 -180 370 -224 q 395 -85 395 -136 l 395 -36 l 520 -36 l 520 -83 "},"ŀ":{"ha":833,"x_min":89,"x_max":740,"o":"m 89 1042 l 484 1042 l 484 134 l 707 134 l 707 0 l 89 0 l 89 134 l 321 134 l 321 907 l 89 907 l 89 1042 m 556 553 q 580 615 556 591 q 648 640 604 640 q 716 615 692 640 q 740 553 740 591 q 716 492 740 517 q 648 467 692 467 q 580 492 604 467 q 556 553 556 517 "},"ł":{"ha":833,"x_min":142,"x_max":760,"o":"m 537 678 l 730 765 l 730 642 l 537 555 l 537 134 l 760 134 l 760 0 l 142 0 l 142 134 l 374 134 l 374 482 l 155 384 l 155 507 l 374 605 l 374 907 l 142 907 l 142 1042 l 537 1042 l 537 678 "},"ń":{"ha":833,"x_min":105,"x_max":739,"o":"m 105 0 l 105 734 l 252 734 l 262 629 q 295 668 277 650 q 333 701 313 686 q 404 735 366 723 q 486 747 443 747 q 589 731 542 747 q 669 680 635 715 q 720 590 702 644 q 739 458 739 535 l 739 0 l 576 0 l 576 455 q 566 531 576 500 q 536 580 556 562 q 489 606 517 598 q 425 614 461 614 q 370 606 395 614 q 323 584 344 598 q 292 557 307 573 q 267 524 278 542 l 267 0 l 105 0 m 466 1018 l 650 1018 l 465 833 l 340 833 l 466 1018 "},"ň":{"ha":833,"x_min":105,"x_max":739,"o":"m 105 0 l 105 734 l 252 734 l 262 629 q 295 668 277 650 q 333 701 313 686 q 404 735 366 723 q 486 747 443 747 q 589 731 542 747 q 669 680 635 715 q 720 590 702 644 q 739 458 739 535 l 739 0 l 576 0 l 576 455 q 566 531 576 500 q 536 580 556 562 q 489 606 517 598 q 425 614 461 614 q 370 606 395 614 q 323 584 344 598 q 292 557 307 573 q 267 524 278 542 l 267 0 l 105 0 m 412 954 l 512 1047 l 651 1047 l 651 1034 l 463 865 l 361 865 l 173 1034 l 173 1047 l 311 1047 l 412 954 "},"ņ":{"ha":833,"x_min":105,"x_max":739,"o":"m 105 0 l 105 734 l 252 734 l 262 629 q 295 668 277 650 q 333 701 313 686 q 404 735 366 723 q 486 747 443 747 q 589 731 542 747 q 669 680 635 715 q 720 590 702 644 q 739 458 739 535 l 739 0 l 576 0 l 576 455 q 566 531 576 500 q 536 580 556 562 q 489 606 517 598 q 425 614 461 614 q 370 606 395 614 q 323 584 344 598 q 292 557 307 573 q 267 524 278 542 l 267 0 l 105 0 m 481 -83 q 456 -209 481 -144 q 380 -317 431 -273 l 305 -267 q 343 -181 330 -224 q 355 -85 355 -137 l 355 -37 l 481 -37 l 481 -83 "},"ñ":{"ha":833,"x_min":105,"x_max":739,"o":"m 105 0 l 105 734 l 252 734 l 262 629 q 295 668 277 650 q 333 701 313 686 q 404 735 366 723 q 486 747 443 747 q 589 731 542 747 q 669 680 635 715 q 720 590 702 644 q 739 458 739 535 l 739 0 l 576 0 l 576 455 q 566 531 576 500 q 536 580 556 562 q 489 606 517 598 q 425 614 461 614 q 370 606 395 614 q 323 584 344 598 q 292 557 307 573 q 267 524 278 542 l 267 0 l 105 0 m 652 1039 q 641 979 652 1008 q 612 928 631 950 q 567 892 593 905 q 509 879 541 879 q 459 886 480 879 q 419 903 437 894 q 382 922 400 913 q 345 933 365 930 q 319 936 332 936 q 294 930 307 935 q 266 909 277 925 q 254 870 255 892 l 170 888 q 180 948 170 919 q 210 1000 191 977 q 254 1037 228 1023 q 313 1050 281 1050 q 364 1041 340 1050 q 410 1021 387 1031 q 454 999 431 1008 q 503 989 477 989 q 529 995 516 989 q 549 1010 541 1000 q 563 1032 557 1019 q 568 1059 568 1044 l 652 1039 "},"ó":{"ha":833,"x_min":75,"x_max":757,"o":"m 75 374 q 98 522 75 454 q 165 640 121 590 q 272 719 209 690 q 416 747 335 747 q 560 719 496 747 q 667 640 623 690 q 734 522 711 590 q 757 374 757 454 l 757 359 q 734 211 757 279 q 667 93 711 143 q 561 14 624 43 q 417 -14 497 -14 q 273 14 336 -14 q 165 93 209 43 q 98 211 121 143 q 75 359 75 279 l 75 374 m 237 359 q 248 266 237 310 q 281 189 258 222 q 336 136 302 155 q 417 117 370 117 q 496 136 463 117 q 552 189 530 155 q 584 266 574 222 q 595 359 595 310 l 595 374 q 584 466 595 422 q 552 543 573 510 q 496 596 530 576 q 416 616 463 616 q 336 596 370 616 q 281 543 302 576 q 248 466 258 510 q 237 374 237 422 l 237 359 m 474 1018 l 659 1018 l 473 833 l 349 833 l 474 1018 "},"ŏ":{"ha":833,"x_min":75,"x_max":757,"o":"m 75 374 q 98 522 75 454 q 165 640 121 590 q 272 719 209 690 q 416 747 335 747 q 560 719 496 747 q 667 640 623 690 q 734 522 711 590 q 757 374 757 454 l 757 359 q 734 211 757 279 q 667 93 711 143 q 561 14 624 43 q 417 -14 497 -14 q 273 14 336 -14 q 165 93 209 43 q 98 211 121 143 q 75 359 75 279 l 75 374 m 237 359 q 248 266 237 310 q 281 189 258 222 q 336 136 302 155 q 417 117 370 117 q 496 136 463 117 q 552 189 530 155 q 584 266 574 222 q 595 359 595 310 l 595 374 q 584 466 595 422 q 552 543 573 510 q 496 596 530 576 q 416 616 463 616 q 336 596 370 616 q 281 543 302 576 q 248 466 258 510 q 237 374 237 422 l 237 359 m 638 1044 q 623 966 638 1002 q 580 905 608 930 q 510 866 551 880 q 420 852 470 852 q 329 866 369 852 q 260 905 288 880 q 216 966 231 930 q 200 1044 200 1001 l 321 1044 q 327 1007 321 1025 q 345 977 333 990 q 375 956 356 964 q 420 948 393 948 q 464 956 446 948 q 494 977 482 964 q 511 1007 506 990 q 517 1044 517 1025 l 638 1044 "},"ô":{"ha":833,"x_min":75,"x_max":757,"o":"m 75 374 q 98 522 75 454 q 165 640 121 590 q 272 719 209 690 q 416 747 335 747 q 560 719 496 747 q 667 640 623 690 q 734 522 711 590 q 757 374 757 454 l 757 359 q 734 211 757 279 q 667 93 711 143 q 561 14 624 43 q 417 -14 497 -14 q 273 14 336 -14 q 165 93 209 43 q 98 211 121 143 q 75 359 75 279 l 75 374 m 237 359 q 248 266 237 310 q 281 189 258 222 q 336 136 302 155 q 417 117 370 117 q 496 136 463 117 q 552 189 530 155 q 584 266 574 222 q 595 359 595 310 l 595 374 q 584 466 595 422 q 552 543 573 510 q 496 596 530 576 q 416 616 463 616 q 336 596 370 616 q 281 543 302 576 q 248 466 258 510 q 237 374 237 422 l 237 359 m 653 882 l 653 864 l 522 864 l 419 957 l 317 864 l 188 864 l 188 883 l 372 1046 l 467 1046 l 653 882 "},"ö":{"ha":833,"x_min":75,"x_max":757,"o":"m 75 374 q 98 522 75 454 q 165 640 121 590 q 272 719 209 690 q 416 747 335 747 q 560 719 496 747 q 667 640 623 690 q 734 522 711 590 q 757 374 757 454 l 757 359 q 734 211 757 279 q 667 93 711 143 q 561 14 624 43 q 417 -14 497 -14 q 273 14 336 -14 q 165 93 209 43 q 98 211 121 143 q 75 359 75 279 l 75 374 m 237 359 q 248 266 237 310 q 281 189 258 222 q 336 136 302 155 q 417 117 370 117 q 496 136 463 117 q 552 189 530 155 q 584 266 574 222 q 595 359 595 310 l 595 374 q 584 466 595 422 q 552 543 573 510 q 496 596 530 576 q 416 616 463 616 q 336 596 370 616 q 281 543 302 576 q 248 466 258 510 q 237 374 237 422 l 237 359 m 176 945 q 198 1002 176 979 q 260 1025 221 1025 q 322 1002 299 1025 q 345 945 345 979 q 322 889 345 911 q 260 866 299 866 q 199 889 222 866 q 176 945 176 911 m 487 945 q 510 1001 487 977 q 572 1024 532 1024 q 634 1001 611 1024 q 656 945 656 977 q 633 888 656 911 q 572 865 610 865 q 510 888 532 865 q 487 945 487 911 "},"ò":{"ha":833,"x_min":75,"x_max":757,"o":"m 75 374 q 98 522 75 454 q 165 640 121 590 q 272 719 209 690 q 416 747 335 747 q 560 719 496 747 q 667 640 623 690 q 734 522 711 590 q 757 374 757 454 l 757 359 q 734 211 757 279 q 667 93 711 143 q 561 14 624 43 q 417 -14 497 -14 q 273 14 336 -14 q 165 93 209 43 q 98 211 121 143 q 75 359 75 279 l 75 374 m 237 359 q 248 266 237 310 q 281 189 258 222 q 336 136 302 155 q 417 117 370 117 q 496 136 463 117 q 552 189 530 155 q 584 266 574 222 q 595 359 595 310 l 595 374 q 584 466 595 422 q 552 543 573 510 q 496 596 530 576 q 416 616 463 616 q 336 596 370 616 q 281 543 302 576 q 248 466 258 510 q 237 374 237 422 l 237 359 m 486 835 l 357 835 l 183 1020 l 367 1020 l 486 835 "},"ơ":{"ha":833,"x_min":71,"x_max":809,"o":"m 71 374 q 94 522 71 454 q 161 640 117 590 q 268 719 205 690 q 412 747 331 747 q 535 727 479 747 q 632 671 590 707 q 654 690 644 678 q 671 715 664 701 q 682 755 678 733 q 686 804 686 777 l 809 804 q 801 728 809 763 q 779 667 793 694 q 745 621 765 641 q 700 588 725 602 q 740 489 726 543 q 753 374 753 435 l 753 359 q 730 211 753 279 q 663 93 707 143 q 556 14 620 43 q 413 -14 493 -14 q 269 14 332 -14 q 161 93 205 43 q 94 211 117 143 q 71 359 71 279 l 71 374 m 233 359 q 244 266 233 310 q 277 189 254 222 q 332 136 298 155 q 413 117 366 117 q 492 136 458 117 q 548 189 526 155 q 580 266 570 222 q 591 359 591 310 l 591 374 q 580 466 591 422 q 548 543 570 510 q 492 596 526 576 q 412 616 458 616 q 332 596 366 616 q 277 543 298 576 q 244 466 254 510 q 233 374 233 422 l 233 359 "},"ő":{"ha":833,"x_min":75,"x_max":783,"o":"m 75 374 q 98 522 75 454 q 165 640 121 590 q 272 719 209 690 q 416 747 335 747 q 560 719 496 747 q 667 640 623 690 q 734 522 711 590 q 757 374 757 454 l 757 359 q 734 211 757 279 q 667 93 711 143 q 561 14 624 43 q 417 -14 497 -14 q 273 14 336 -14 q 165 93 209 43 q 98 211 121 143 q 75 359 75 279 l 75 374 m 237 359 q 248 266 237 310 q 281 189 258 222 q 336 136 302 155 q 417 117 370 117 q 496 136 463 117 q 552 189 530 155 q 584 266 574 222 q 595 359 595 310 l 595 374 q 584 466 595 422 q 552 543 573 510 q 496 596 530 576 q 416 616 463 616 q 336 596 370 616 q 281 543 302 576 q 248 466 258 510 q 237 374 237 422 l 237 359 m 611 1047 l 783 1047 l 576 867 l 444 867 l 611 1047 m 375 1047 l 536 1047 l 366 867 l 241 867 l 375 1047 "},"ō":{"ha":833,"x_min":75,"x_max":757,"o":"m 75 374 q 98 522 75 454 q 165 640 121 590 q 272 719 209 690 q 416 747 335 747 q 560 719 496 747 q 667 640 623 690 q 734 522 711 590 q 757 374 757 454 l 757 359 q 734 211 757 279 q 667 93 711 143 q 561 14 624 43 q 417 -14 497 -14 q 273 14 336 -14 q 165 93 209 43 q 98 211 121 143 q 75 359 75 279 l 75 374 m 237 359 q 248 266 237 310 q 281 189 258 222 q 336 136 302 155 q 417 117 370 117 q 496 136 463 117 q 552 189 530 155 q 584 266 574 222 q 595 359 595 310 l 595 374 q 584 466 595 422 q 552 543 573 510 q 496 596 530 576 q 416 616 463 616 q 336 596 370 616 q 281 543 302 576 q 248 466 258 510 q 237 374 237 422 l 237 359 m 667 884 l 176 884 l 176 989 l 667 989 l 667 884 "},"ø":{"ha":833,"x_min":75,"x_max":757,"o":"m 75 374 q 98 522 75 454 q 165 640 121 590 q 272 719 209 690 q 416 747 335 747 q 486 741 452 747 q 549 723 519 735 l 597 822 l 694 822 l 625 680 q 677 629 654 658 q 716 566 700 600 q 747 476 736 525 q 757 374 757 427 l 757 359 q 734 211 757 279 q 667 93 711 143 q 561 14 624 43 q 417 -14 497 -14 q 353 -9 383 -14 q 294 7 322 -3 l 245 -94 l 148 -94 l 216 46 q 112 177 148 96 q 75 359 75 258 l 75 374 m 237 359 q 249 262 237 307 q 284 184 260 217 l 488 600 q 454 612 472 608 q 416 616 436 616 q 336 596 370 616 q 281 543 302 576 q 248 466 258 510 q 237 374 237 422 l 237 359 m 595 374 q 591 426 595 401 q 581 474 588 451 q 570 507 576 491 q 554 537 563 523 l 353 128 q 384 120 368 123 q 417 117 400 117 q 496 136 463 117 q 552 189 530 155 q 584 266 574 222 q 595 359 595 310 l 595 374 "},"ǿ":{"ha":833,"x_min":75,"x_max":757,"o":"m 75 374 q 98 522 75 454 q 165 640 121 590 q 272 719 209 690 q 416 747 335 747 q 486 741 452 747 q 549 723 519 735 l 597 822 l 694 822 l 625 680 q 677 629 654 658 q 716 566 700 600 q 747 476 736 525 q 757 374 757 427 l 757 359 q 734 211 757 279 q 667 93 711 143 q 561 14 624 43 q 417 -14 497 -14 q 353 -9 383 -14 q 294 7 322 -3 l 245 -94 l 148 -94 l 216 46 q 112 177 148 96 q 75 359 75 258 l 75 374 m 237 359 q 249 262 237 307 q 284 184 260 217 l 488 600 q 454 612 472 608 q 416 616 436 616 q 336 596 370 616 q 281 543 302 576 q 248 466 258 510 q 237 374 237 422 l 237 359 m 595 374 q 591 426 595 401 q 581 474 588 451 q 570 507 576 491 q 554 537 563 523 l 353 128 q 384 120 368 123 q 417 117 400 117 q 496 136 463 117 q 552 189 530 155 q 584 266 574 222 q 595 359 595 310 l 595 374 m 446 1016 l 631 1016 l 446 831 l 321 831 l 446 1016 "},"õ":{"ha":833,"x_min":75,"x_max":757,"o":"m 75 374 q 98 522 75 454 q 165 640 121 590 q 272 719 209 690 q 416 747 335 747 q 560 719 496 747 q 667 640 623 690 q 734 522 711 590 q 757 374 757 454 l 757 359 q 734 211 757 279 q 667 93 711 143 q 561 14 624 43 q 417 -14 497 -14 q 273 14 336 -14 q 165 93 209 43 q 98 211 121 143 q 75 359 75 279 l 75 374 m 237 359 q 248 266 237 310 q 281 189 258 222 q 336 136 302 155 q 417 117 370 117 q 496 136 463 117 q 552 189 530 155 q 584 266 574 222 q 595 359 595 310 l 595 374 q 584 466 595 422 q 552 543 573 510 q 496 596 530 576 q 416 616 463 616 q 336 596 370 616 q 281 543 302 576 q 248 466 258 510 q 237 374 237 422 l 237 359 m 660 1039 q 649 979 660 1008 q 621 928 639 950 q 575 892 602 905 q 517 879 549 879 q 467 886 488 879 q 427 903 446 894 q 391 922 408 913 q 353 933 373 930 q 327 936 340 936 q 302 930 315 935 q 274 909 285 925 q 262 870 263 892 l 178 888 q 188 948 178 919 q 218 1000 199 977 q 262 1037 236 1023 q 321 1050 289 1050 q 372 1041 349 1050 q 418 1021 395 1031 q 462 999 439 1008 q 511 989 485 989 q 537 995 524 989 q 557 1010 549 1000 q 571 1032 566 1019 q 576 1059 576 1044 l 660 1039 "},"ŕ":{"ha":833,"x_min":207,"x_max":747,"o":"m 612 747 q 689 742 652 747 q 747 729 726 736 l 724 569 q 650 581 686 577 q 578 585 614 585 q 505 577 537 585 q 447 552 472 569 q 401 511 420 536 q 369 453 382 486 l 369 0 l 207 0 l 207 734 l 359 734 l 366 632 l 366 615 q 474 712 411 677 q 612 747 536 747 m 450 1018 l 634 1018 l 449 833 l 324 833 l 450 1018 "},"ř":{"ha":833,"x_min":156,"x_max":747,"o":"m 612 747 q 689 742 652 747 q 747 729 726 736 l 724 569 q 650 581 686 577 q 578 585 614 585 q 505 577 537 585 q 447 552 472 569 q 401 511 420 536 q 369 453 382 486 l 369 0 l 207 0 l 207 734 l 359 734 l 366 632 l 366 615 q 474 712 411 677 q 612 747 536 747 m 395 954 l 495 1047 l 634 1047 l 634 1034 l 446 865 l 344 865 l 156 1034 l 156 1047 l 294 1047 l 395 954 "},"ŗ":{"ha":833,"x_min":182,"x_max":747,"o":"m 612 747 q 689 742 652 747 q 747 729 726 736 l 724 569 q 650 581 686 577 q 578 585 614 585 q 505 577 537 585 q 447 552 472 569 q 401 511 420 536 q 369 453 382 486 l 369 0 l 207 0 l 207 734 l 359 734 l 366 632 l 366 615 q 474 712 411 677 q 612 747 536 747 m 358 -83 q 333 -209 358 -144 q 257 -317 308 -273 l 182 -267 q 220 -181 208 -224 q 233 -85 233 -137 l 233 -37 l 358 -37 l 358 -83 "},"ś":{"ha":833,"x_min":98,"x_max":743,"o":"m 585 199 q 576 233 585 218 q 548 261 568 248 q 493 284 527 273 q 408 304 459 295 q 292 336 345 317 q 201 382 239 355 q 143 444 164 408 q 122 526 122 479 q 143 611 122 570 q 205 682 165 651 q 300 730 244 712 q 425 747 356 747 q 556 729 498 747 q 655 680 614 711 q 717 606 695 649 q 739 514 739 564 l 576 514 q 568 553 576 534 q 543 587 559 572 q 494 615 524 604 q 425 625 465 625 q 360 617 388 625 q 315 596 333 610 q 289 567 298 584 q 280 532 280 551 q 288 498 280 513 q 314 471 295 483 q 363 449 332 459 q 443 431 395 439 q 566 401 510 418 q 661 357 621 383 q 722 294 700 330 q 743 207 743 257 q 721 117 743 158 q 656 47 698 77 q 556 2 614 18 q 427 -14 498 -14 q 286 7 347 -14 q 183 62 224 28 q 119 140 141 96 q 98 230 98 184 l 255 230 q 273 173 257 196 q 313 135 289 149 q 368 114 337 120 q 429 107 398 107 q 503 116 471 107 q 553 140 534 125 q 577 166 569 152 q 585 199 585 181 m 467 1018 l 651 1018 l 466 833 l 341 833 l 467 1018 "},"š":{"ha":833,"x_min":98,"x_max":743,"o":"m 585 199 q 576 233 585 218 q 548 261 568 248 q 493 284 527 273 q 408 304 459 295 q 292 336 345 317 q 201 382 239 355 q 143 444 164 408 q 122 526 122 479 q 143 611 122 570 q 205 682 165 651 q 300 730 244 712 q 425 747 356 747 q 556 729 498 747 q 655 680 614 711 q 717 606 695 649 q 739 514 739 564 l 576 514 q 568 553 576 534 q 543 587 559 572 q 494 615 524 604 q 425 625 465 625 q 360 617 388 625 q 315 596 333 610 q 289 567 298 584 q 280 532 280 551 q 288 498 280 513 q 314 471 295 483 q 363 449 332 459 q 443 431 395 439 q 566 401 510 418 q 661 357 621 383 q 722 294 700 330 q 743 207 743 257 q 721 117 743 158 q 656 47 698 77 q 556 2 614 18 q 427 -14 498 -14 q 286 7 347 -14 q 183 62 224 28 q 119 140 141 96 q 98 230 98 184 l 255 230 q 273 173 257 196 q 313 135 289 149 q 368 114 337 120 q 429 107 398 107 q 503 116 471 107 q 553 140 534 125 q 577 166 569 152 q 585 199 585 181 m 412 954 l 512 1047 l 651 1047 l 651 1034 l 463 865 l 361 865 l 173 1034 l 173 1047 l 311 1047 l 412 954 "},"ş":{"ha":833,"x_min":98,"x_max":743,"o":"m 585 199 q 576 233 585 218 q 548 261 568 248 q 493 284 527 273 q 408 304 459 295 q 292 336 345 317 q 201 382 239 355 q 143 444 164 408 q 122 526 122 479 q 143 611 122 570 q 205 682 165 651 q 300 730 244 712 q 425 747 356 747 q 556 729 498 747 q 655 680 614 711 q 717 606 695 649 q 739 514 739 564 l 576 514 q 568 553 576 534 q 543 587 559 572 q 494 615 524 604 q 425 625 465 625 q 360 617 388 625 q 315 596 333 610 q 289 567 298 584 q 280 532 280 551 q 288 498 280 513 q 314 471 295 483 q 363 449 332 459 q 443 431 395 439 q 566 401 510 418 q 661 357 621 383 q 722 294 700 330 q 743 207 743 257 q 721 117 743 158 q 656 47 698 77 q 556 2 614 18 q 427 -14 498 -14 q 286 7 347 -14 q 183 62 224 28 q 119 140 141 96 q 98 230 98 184 l 255 230 q 273 173 257 196 q 313 135 289 149 q 368 114 337 120 q 429 107 398 107 q 503 116 471 107 q 553 140 534 125 q 577 166 569 152 q 585 199 585 181 m 473 -4 l 465 -41 q 503 -52 485 -44 q 536 -74 522 -60 q 559 -108 551 -87 q 568 -158 568 -129 q 552 -224 568 -195 q 504 -273 535 -254 q 437 -300 476 -290 q 347 -310 397 -310 l 342 -217 q 378 -214 361 -217 q 408 -203 395 -210 q 428 -184 420 -196 q 435 -156 435 -173 q 430 -131 435 -141 q 412 -113 424 -120 q 379 -103 399 -106 q 333 -98 359 -100 l 354 -4 l 473 -4 "},"ŝ":{"ha":833,"x_min":98,"x_max":743,"o":"m 585 199 q 576 233 585 218 q 548 261 568 248 q 493 284 527 273 q 408 304 459 295 q 292 336 345 317 q 201 382 239 355 q 143 444 164 408 q 122 526 122 479 q 143 611 122 570 q 205 682 165 651 q 300 730 244 712 q 425 747 356 747 q 556 729 498 747 q 655 680 614 711 q 717 606 695 649 q 739 514 739 564 l 576 514 q 568 553 576 534 q 543 587 559 572 q 494 615 524 604 q 425 625 465 625 q 360 617 388 625 q 315 596 333 610 q 289 567 298 584 q 280 532 280 551 q 288 498 280 513 q 314 471 295 483 q 363 449 332 459 q 443 431 395 439 q 566 401 510 418 q 661 357 621 383 q 722 294 700 330 q 743 207 743 257 q 721 117 743 158 q 656 47 698 77 q 556 2 614 18 q 427 -14 498 -14 q 286 7 347 -14 q 183 62 224 28 q 119 140 141 96 q 98 230 98 184 l 255 230 q 273 173 257 196 q 313 135 289 149 q 368 114 337 120 q 429 107 398 107 q 503 116 471 107 q 553 140 534 125 q 577 166 569 152 q 585 199 585 181 m 646 882 l 646 864 l 515 864 l 412 957 l 309 864 l 180 864 l 180 883 l 364 1046 l 459 1046 l 646 882 "},"ŧ":{"ha":833,"x_min":90,"x_max":736,"o":"m 431 913 l 431 734 l 707 734 l 707 612 l 431 612 l 431 497 l 583 497 l 583 383 l 431 383 l 431 262 q 440 194 431 221 q 468 151 450 166 q 510 127 486 134 q 564 121 534 121 q 607 123 585 121 q 650 128 629 125 q 689 135 671 131 q 719 141 707 138 l 736 29 q 694 11 719 18 q 641 -3 669 3 q 582 -11 612 -8 q 520 -14 551 -14 q 418 1 465 -14 q 338 49 372 16 q 287 131 305 81 q 268 252 268 181 l 268 383 l 130 383 l 130 497 l 268 497 l 268 612 l 90 612 l 90 734 l 268 734 l 268 913 l 431 913 "},"ť":{"ha":833,"x_min":77,"x_max":803,"o":"m 417 911 l 417 732 l 693 732 l 693 611 l 417 611 l 417 260 q 427 192 417 220 q 454 149 437 165 q 496 126 472 133 q 550 119 521 119 q 593 121 571 119 q 637 127 616 123 q 675 133 657 130 q 705 140 693 137 l 723 28 q 681 9 705 17 q 627 -4 656 1 q 568 -13 599 -9 q 507 -16 537 -16 q 405 0 451 -16 q 325 47 358 15 q 273 130 292 79 q 254 250 254 180 l 254 611 l 77 611 l 77 732 l 254 732 l 254 911 l 417 911 m 803 1055 q 794 986 803 1022 q 770 915 785 949 q 731 849 753 880 q 682 793 709 817 l 603 845 q 648 941 631 890 q 664 1055 664 991 l 664 1165 l 803 1165 l 803 1055 "},"ú":{"ha":833,"x_min":111,"x_max":733,"o":"m 586 0 l 576 102 q 486 17 539 47 q 366 -14 432 -14 q 261 4 309 -14 q 180 60 214 22 q 129 157 147 98 q 111 299 111 216 l 111 734 l 273 734 l 273 298 q 280 213 273 247 q 304 158 288 178 q 345 128 320 137 q 404 119 370 119 q 467 127 439 119 q 516 149 495 135 q 547 177 534 161 q 570 214 561 194 l 570 734 l 733 734 l 733 0 l 586 0 m 474 1004 l 659 1004 l 473 819 l 349 819 l 474 1004 "},"ŭ":{"ha":833,"x_min":111,"x_max":733,"o":"m 586 0 l 576 102 q 486 17 539 47 q 366 -14 432 -14 q 261 4 309 -14 q 180 60 214 22 q 129 157 147 98 q 111 299 111 216 l 111 734 l 273 734 l 273 298 q 280 213 273 247 q 304 158 288 178 q 345 128 320 137 q 404 119 370 119 q 467 127 439 119 q 516 149 495 135 q 547 177 534 161 q 570 214 561 194 l 570 734 l 733 734 l 733 0 l 586 0 m 639 1029 q 624 952 639 987 q 581 891 608 916 q 511 852 551 866 q 420 838 471 838 q 329 852 370 838 q 260 891 289 866 q 216 951 232 916 q 201 1029 201 987 l 322 1029 q 328 993 322 1010 q 345 962 334 976 q 375 942 357 949 q 420 934 394 934 q 465 942 446 934 q 495 963 483 949 q 512 993 507 976 q 517 1029 517 1010 l 639 1029 "},"û":{"ha":833,"x_min":111,"x_max":733,"o":"m 586 0 l 576 102 q 486 17 539 47 q 366 -14 432 -14 q 261 4 309 -14 q 180 60 214 22 q 129 157 147 98 q 111 299 111 216 l 111 734 l 273 734 l 273 298 q 280 213 273 247 q 304 158 288 178 q 345 128 320 137 q 404 119 370 119 q 467 127 439 119 q 516 149 495 135 q 547 177 534 161 q 570 214 561 194 l 570 734 l 733 734 l 733 0 l 586 0 m 653 869 l 653 850 l 522 850 l 419 943 l 317 850 l 188 850 l 188 869 l 372 1032 l 467 1032 l 653 869 "},"ü":{"ha":833,"x_min":111,"x_max":733,"o":"m 586 0 l 576 102 q 486 17 539 47 q 366 -14 432 -14 q 261 4 309 -14 q 180 60 214 22 q 129 157 147 98 q 111 299 111 216 l 111 734 l 273 734 l 273 298 q 280 213 273 247 q 304 158 288 178 q 345 128 320 137 q 404 119 370 119 q 467 127 439 119 q 516 149 495 135 q 547 177 534 161 q 570 214 561 194 l 570 734 l 733 734 l 733 0 l 586 0 m 176 932 q 199 988 176 965 q 261 1011 222 1011 q 323 988 300 1011 q 346 932 346 965 q 323 875 346 898 q 261 852 300 852 q 199 875 222 852 q 176 932 176 898 m 488 931 q 510 987 488 964 q 572 1010 533 1010 q 634 987 612 1010 q 657 931 657 964 q 634 874 657 897 q 572 851 611 851 q 510 874 533 851 q 488 931 488 897 "},"ù":{"ha":833,"x_min":111,"x_max":733,"o":"m 586 0 l 576 102 q 486 17 539 47 q 366 -14 432 -14 q 261 4 309 -14 q 180 60 214 22 q 129 157 147 98 q 111 299 111 216 l 111 734 l 273 734 l 273 298 q 280 213 273 247 q 304 158 288 178 q 345 128 320 137 q 404 119 370 119 q 467 127 439 119 q 516 149 495 135 q 547 177 534 161 q 570 214 561 194 l 570 734 l 733 734 l 733 0 l 586 0 m 487 821 l 358 821 l 184 1006 l 368 1006 l 487 821 "},"ư":{"ha":833,"x_min":98,"x_max":924,"o":"m 924 797 q 873 611 923 676 q 720 530 823 546 l 720 0 l 573 0 l 564 102 q 473 17 527 47 q 353 -14 420 -14 q 249 4 296 -14 q 168 60 201 22 q 116 157 134 98 q 98 299 98 216 l 98 734 l 260 734 l 260 298 q 268 213 260 247 q 292 158 275 178 q 333 128 308 137 q 392 119 357 119 q 461 129 431 119 q 513 157 492 139 q 538 183 528 168 q 557 214 549 197 l 557 734 l 720 734 l 720 637 q 752 654 739 643 q 775 680 766 665 q 792 730 787 701 q 798 797 798 759 l 924 797 "},"ű":{"ha":833,"x_min":111,"x_max":783,"o":"m 586 0 l 576 102 q 486 17 539 47 q 366 -14 432 -14 q 261 4 309 -14 q 180 60 214 22 q 129 157 147 98 q 111 299 111 216 l 111 734 l 273 734 l 273 298 q 280 213 273 247 q 304 158 288 178 q 345 128 320 137 q 404 119 370 119 q 467 127 439 119 q 516 149 495 135 q 547 177 534 161 q 570 214 561 194 l 570 734 l 733 734 l 733 0 l 586 0 m 612 1034 l 783 1034 l 576 853 l 445 853 l 612 1034 m 376 1034 l 537 1034 l 366 853 l 242 853 l 376 1034 "},"ū":{"ha":833,"x_min":111,"x_max":733,"o":"m 586 0 l 576 102 q 486 17 539 47 q 366 -14 432 -14 q 261 4 309 -14 q 180 60 214 22 q 129 157 147 98 q 111 299 111 216 l 111 734 l 273 734 l 273 298 q 280 213 273 247 q 304 158 288 178 q 345 128 320 137 q 404 119 370 119 q 467 127 439 119 q 516 149 495 135 q 547 177 534 161 q 570 214 561 194 l 570 734 l 733 734 l 733 0 l 586 0 m 667 871 l 176 871 l 176 977 l 667 977 l 667 871 "},"ų":{"ha":833,"x_min":111,"x_max":752,"o":"m 725 0 q 675 -28 696 -14 q 640 -60 654 -43 q 621 -95 627 -77 q 614 -132 614 -113 q 626 -167 614 -153 q 663 -180 637 -180 q 699 -175 684 -181 q 725 -165 715 -170 l 752 -260 q 704 -280 733 -271 q 628 -290 674 -290 q 572 -281 598 -290 q 528 -256 547 -273 q 497 -213 508 -239 q 486 -155 486 -188 q 496 -100 486 -127 q 527 -47 507 -73 q 553 -19 538 -33 q 585 7 568 -5 l 576 102 q 486 17 539 47 q 366 -14 432 -14 q 261 4 309 -14 q 180 60 214 22 q 129 157 147 98 q 111 299 111 216 l 111 734 l 273 734 l 273 298 q 280 213 273 247 q 304 158 288 178 q 345 128 320 137 q 404 119 370 119 q 469 127 441 119 q 519 151 498 136 q 548 179 536 163 q 570 214 561 195 l 570 734 l 733 734 l 733 0 l 725 0 "},"ů":{"ha":833,"x_min":111,"x_max":733,"o":"m 586 0 l 576 102 q 486 17 539 47 q 366 -14 432 -14 q 261 4 309 -14 q 180 60 214 22 q 129 157 147 98 q 111 299 111 216 l 111 734 l 273 734 l 273 298 q 280 213 273 247 q 304 158 288 178 q 345 128 320 137 q 404 119 370 119 q 467 127 439 119 q 516 149 495 135 q 547 177 534 161 q 570 214 561 194 l 570 734 l 733 734 l 733 0 l 586 0 m 278 942 q 289 995 278 970 q 320 1038 300 1020 q 365 1065 339 1055 q 420 1076 391 1076 q 475 1065 450 1076 q 519 1038 500 1055 q 549 995 538 1020 q 559 942 559 970 q 549 889 559 913 q 519 848 538 865 q 475 821 500 830 q 420 811 450 811 q 365 821 391 811 q 320 848 338 830 q 289 889 300 865 q 278 942 278 913 m 351 942 q 357 915 351 927 q 372 892 362 902 q 393 879 380 884 q 420 873 406 873 q 446 878 434 873 q 467 892 458 883 q 482 914 477 901 q 487 942 487 926 q 482 971 487 958 q 468 994 477 984 q 447 1007 459 1002 q 420 1013 435 1013 q 393 1007 406 1013 q 371 993 380 1002 q 357 970 362 983 q 351 942 351 958 "},"ũ":{"ha":833,"x_min":111,"x_max":733,"o":"m 586 0 l 576 102 q 486 17 539 47 q 366 -14 432 -14 q 261 4 309 -14 q 180 60 214 22 q 129 157 147 98 q 111 299 111 216 l 111 734 l 273 734 l 273 298 q 280 213 273 247 q 304 158 288 178 q 345 128 320 137 q 404 119 370 119 q 467 127 439 119 q 516 149 495 135 q 547 177 534 161 q 570 214 561 194 l 570 734 l 733 734 l 733 0 l 586 0 m 660 1025 q 649 966 660 995 q 621 915 639 937 q 575 879 602 892 q 517 865 549 865 q 467 873 488 865 q 427 890 446 880 q 391 908 408 899 q 353 920 373 917 q 327 922 340 922 q 302 916 315 922 q 274 895 285 911 q 262 857 263 879 l 178 875 q 188 935 178 905 q 218 986 199 964 q 262 1023 236 1009 q 321 1037 289 1037 q 372 1027 349 1037 q 418 1007 395 1018 q 462 985 439 995 q 511 976 485 976 q 537 981 524 976 q 557 997 549 987 q 571 1018 566 1006 q 576 1046 576 1031 l 660 1025 "},"ẃ":{"ha":833,"x_min":24,"x_max":804,"o":"m 166 0 l 24 734 l 171 734 l 239 284 l 250 199 l 265 284 l 361 734 l 467 734 l 563 286 l 578 197 l 591 286 l 657 734 l 804 734 l 663 0 l 525 0 l 430 416 l 413 507 l 397 416 l 304 0 l 166 0 m 469 1004 l 653 1004 l 468 819 l 343 819 l 469 1004 "},"ŵ":{"ha":833,"x_min":24,"x_max":804,"o":"m 166 0 l 24 734 l 171 734 l 239 284 l 250 199 l 265 284 l 361 734 l 467 734 l 563 286 l 578 197 l 591 286 l 657 734 l 804 734 l 663 0 l 525 0 l 430 416 l 413 507 l 397 416 l 304 0 l 166 0 m 648 869 l 648 850 l 517 850 l 414 943 l 311 850 l 182 850 l 182 869 l 366 1032 l 461 1032 l 648 869 "},"ẅ":{"ha":833,"x_min":24,"x_max":804,"o":"m 166 0 l 24 734 l 171 734 l 239 284 l 250 199 l 265 284 l 361 734 l 467 734 l 563 286 l 578 197 l 591 286 l 657 734 l 804 734 l 663 0 l 525 0 l 430 416 l 413 507 l 397 416 l 304 0 l 166 0 m 171 932 q 194 988 171 965 q 256 1011 216 1011 q 317 988 294 1011 q 340 932 340 965 q 317 875 340 898 q 256 852 294 852 q 194 875 217 852 q 171 932 171 898 m 482 931 q 505 987 482 964 q 567 1010 528 1010 q 629 987 606 1010 q 652 931 652 964 q 629 874 652 897 q 567 851 606 851 q 505 874 528 851 q 482 931 482 897 "},"ẁ":{"ha":833,"x_min":24,"x_max":804,"o":"m 166 0 l 24 734 l 171 734 l 239 284 l 250 199 l 265 284 l 361 734 l 467 734 l 563 286 l 578 197 l 591 286 l 657 734 l 804 734 l 663 0 l 525 0 l 430 416 l 413 507 l 397 416 l 304 0 l 166 0 m 481 821 l 353 821 l 178 1006 l 362 1006 l 481 821 "},"ý":{"ha":833,"x_min":40,"x_max":813,"o":"m 197 -296 q 152 -293 174 -296 q 111 -284 131 -289 l 134 -157 q 164 -159 147 -158 q 193 -160 182 -160 q 235 -146 216 -160 q 269 -115 254 -132 q 291 -83 282 -97 q 307 -55 299 -70 l 353 33 l 40 734 l 218 734 l 401 286 l 426 205 l 456 283 l 633 734 l 813 734 l 441 -111 q 409 -172 428 -140 q 360 -231 389 -204 q 291 -278 331 -259 q 197 -296 251 -296 m 490 1004 l 674 1004 l 489 819 l 364 819 l 490 1004 "},"ŷ":{"ha":833,"x_min":40,"x_max":813,"o":"m 197 -296 q 152 -293 174 -296 q 111 -284 131 -289 l 134 -157 q 164 -159 147 -158 q 193 -160 182 -160 q 235 -146 216 -160 q 269 -115 254 -132 q 291 -83 282 -97 q 307 -55 299 -70 l 353 33 l 40 734 l 218 734 l 401 286 l 426 205 l 456 283 l 633 734 l 813 734 l 441 -111 q 409 -172 428 -140 q 360 -231 389 -204 q 291 -278 331 -259 q 197 -296 251 -296 m 669 869 l 669 850 l 538 850 l 435 943 l 332 850 l 203 850 l 203 869 l 387 1032 l 482 1032 l 669 869 "},"ÿ":{"ha":833,"x_min":40,"x_max":813,"o":"m 197 -296 q 152 -293 174 -296 q 111 -284 131 -289 l 134 -157 q 164 -159 147 -158 q 193 -160 182 -160 q 235 -146 216 -160 q 269 -115 254 -132 q 291 -83 282 -97 q 307 -55 299 -70 l 353 33 l 40 734 l 218 734 l 401 286 l 426 205 l 456 283 l 633 734 l 813 734 l 441 -111 q 409 -172 428 -140 q 360 -231 389 -204 q 291 -278 331 -259 q 197 -296 251 -296 m 191 932 q 214 988 191 965 q 276 1011 237 1011 q 338 988 315 1011 q 361 932 361 965 q 338 875 361 898 q 276 852 315 852 q 214 875 237 852 q 191 932 191 898 m 503 931 q 525 987 503 964 q 587 1010 548 1010 q 649 987 627 1010 q 672 931 672 964 q 649 874 672 897 q 587 851 626 851 q 525 874 548 851 q 503 931 503 897 "},"ỳ":{"ha":833,"x_min":40,"x_max":813,"o":"m 197 -296 q 152 -293 174 -296 q 111 -284 131 -289 l 134 -157 q 164 -159 147 -158 q 193 -160 182 -160 q 235 -146 216 -160 q 269 -115 254 -132 q 291 -83 282 -97 q 307 -55 299 -70 l 353 33 l 40 734 l 218 734 l 401 286 l 426 205 l 456 283 l 633 734 l 813 734 l 441 -111 q 409 -172 428 -140 q 360 -231 389 -204 q 291 -278 331 -259 q 197 -296 251 -296 m 502 821 l 373 821 l 199 1006 l 382 1006 l 502 821 "},"ź":{"ha":833,"x_min":92,"x_max":755,"o":"m 309 131 l 755 131 l 755 0 l 92 0 l 92 106 l 514 602 l 100 602 l 100 734 l 735 734 l 735 631 l 309 131 m 498 1004 l 683 1004 l 498 819 l 373 819 l 498 1004 "},"ž":{"ha":833,"x_min":92,"x_max":755,"o":"m 309 131 l 755 131 l 755 0 l 92 0 l 92 106 l 514 602 l 100 602 l 100 734 l 735 734 l 735 631 l 309 131 m 443 940 l 543 1033 l 682 1033 l 682 1020 l 494 850 l 392 850 l 204 1019 l 204 1033 l 342 1033 l 443 940 "},"ż":{"ha":833,"x_min":92,"x_max":755,"o":"m 309 131 l 755 131 l 755 0 l 92 0 l 92 106 l 514 602 l 100 602 l 100 734 l 735 734 l 735 631 l 309 131 m 351 933 q 375 995 351 970 q 442 1020 399 1020 q 510 995 486 1020 q 534 933 534 970 q 510 872 534 897 q 442 847 486 847 q 375 872 399 847 q 351 933 351 897 "},"`":{"ha":833,"x_min":280,"x_max":583,"o":"m 583 818 l 454 818 l 280 1003 l 464 1003 l 583 818 "},"´":{"ha":833,"x_min":267,"x_max":577,"o":"m 393 1003 l 577 1003 l 392 818 l 267 818 l 393 1003 "},"ˆ":{"ha":833,"x_min":106,"x_max":571,"o":"m 571 865 l 571 846 l 440 846 l 337 939 l 235 846 l 106 846 l 106 865 l 290 1028 l 385 1028 l 571 865 "},"˜":{"ha":833,"x_min":90,"x_max":572,"o":"m 572 1019 q 561 960 572 989 q 532 909 551 930 q 487 872 513 886 q 429 859 460 859 q 379 867 400 859 q 339 884 357 874 q 302 902 320 893 q 264 913 285 911 q 239 916 252 916 q 214 910 227 916 q 186 889 197 905 q 174 850 175 873 l 90 869 q 100 928 90 899 q 130 980 111 958 q 174 1017 148 1003 q 233 1031 201 1031 q 284 1021 260 1031 q 330 1001 307 1012 q 374 979 351 989 q 422 970 397 970 q 449 975 436 970 q 469 991 461 981 q 483 1012 477 1000 q 488 1040 488 1025 l 572 1019 "},"¯":{"ha":833,"x_min":180,"x_max":671,"o":"m 671 882 l 180 882 l 180 987 l 671 987 l 671 882 "},"ˉ":{"ha":833,"x_min":180,"x_max":671,"o":"m 671 882 l 671 987 l 180 987 l 180 882 l 671 882 "},"˘":{"ha":833,"x_min":205,"x_max":643,"o":"m 643 983 q 628 905 643 941 q 585 844 612 869 q 515 805 555 819 q 425 791 475 791 q 333 805 374 791 q 264 844 293 819 q 220 905 236 869 q 205 983 205 940 l 326 983 q 332 946 326 964 q 349 916 338 929 q 379 895 361 903 q 425 887 398 887 q 469 895 450 887 q 499 916 487 903 q 516 946 511 929 q 522 983 522 964 l 643 983 "},"˙":{"ha":833,"x_min":328,"x_max":511,"o":"m 328 923 q 352 985 328 960 q 419 1010 376 1010 q 487 985 463 1010 q 511 923 511 960 q 487 862 511 886 q 419 837 463 837 q 352 862 376 837 q 328 923 328 886 "},"¨":{"ha":833,"x_min":186,"x_max":667,"o":"m 186 928 q 209 984 186 961 q 271 1007 231 1007 q 332 984 309 1007 q 355 928 355 961 q 332 871 355 894 q 271 848 309 848 q 209 871 232 848 q 186 928 186 894 m 497 927 q 520 983 497 960 q 582 1006 543 1006 q 644 983 621 1006 q 667 927 667 960 q 644 870 667 893 q 582 847 621 847 q 520 870 543 847 q 497 927 497 893 "},"˚":{"ha":833,"x_min":275,"x_max":557,"o":"m 275 858 q 287 911 275 886 q 317 954 298 936 q 362 981 336 971 q 418 991 389 991 q 472 981 447 991 q 516 954 497 971 q 546 911 535 936 q 557 858 557 886 q 546 805 557 829 q 516 764 535 781 q 472 736 497 746 q 418 727 447 727 q 362 736 388 727 q 317 764 336 746 q 287 805 298 781 q 275 858 275 829 m 349 858 q 354 830 349 843 q 369 808 359 818 q 390 794 378 800 q 418 789 403 789 q 444 794 431 789 q 465 808 456 799 q 479 830 474 817 q 484 858 484 842 q 479 887 484 873 q 465 909 474 900 q 444 923 456 918 q 418 928 432 928 q 391 923 404 928 q 368 909 378 918 q 354 886 359 899 q 349 858 349 873 "},"˝":{"ha":833,"x_min":153,"x_max":694,"o":"m 522 1029 l 694 1029 l 487 849 l 355 849 l 522 1029 m 286 1029 l 448 1029 l 277 849 l 153 849 l 286 1029 "},"ˇ":{"ha":833,"x_min":184,"x_max":663,"o":"m 423 936 l 524 1029 l 663 1029 l 663 1016 l 474 846 l 372 846 l 184 1015 l 184 1029 l 323 1029 l 423 936 "},"̣":{"ha":833,"x_min":-505,"x_max":-312,"o":"m -505 -155 q -479 -93 -505 -118 q -408 -68 -454 -68 q -337 -93 -362 -68 q -312 -155 -312 -118 q -337 -217 -312 -192 q -408 -241 -363 -241 q -479 -217 -454 -241 q -505 -155 -505 -192 "},"¸":{"ha":833,"x_min":305,"x_max":541,"o":"m 446 2 l 437 -35 q 475 -46 457 -38 q 509 -68 494 -54 q 532 -102 523 -81 q 541 -152 541 -123 q 524 -218 541 -189 q 476 -267 507 -248 q 409 -294 448 -284 q 319 -304 370 -304 l 314 -211 q 351 -208 334 -211 q 380 -197 368 -204 q 400 -178 393 -190 q 408 -150 408 -167 q 402 -124 408 -135 q 384 -107 396 -114 q 351 -97 371 -100 q 305 -92 332 -94 l 326 2 l 446 2 "},"˛":{"ha":833,"x_min":263,"x_max":530,"o":"m 503 0 q 455 -26 475 -12 q 422 -54 435 -39 q 399 -92 407 -72 q 392 -132 392 -111 q 403 -167 392 -153 q 441 -180 414 -180 q 476 -175 461 -181 q 502 -165 492 -170 l 530 -260 q 481 -280 511 -271 q 406 -290 451 -290 q 350 -281 376 -290 q 304 -256 324 -273 q 274 -213 286 -239 q 263 -155 263 -188 q 276 -95 263 -125 q 312 -38 288 -65 q 358 4 332 -16 q 418 39 385 24 l 503 0 "},"":{"ha":833,"x_min":195,"x_max":370,"o":"m 370 119 q 345 -6 370 58 q 269 -115 320 -70 l 195 -64 q 232 22 220 -22 q 245 117 245 66 l 245 166 l 370 166 l 370 119 "},"\r":{"ha":833,"x_min":0,"x_max":0,"o":""},"«":{"ha":833,"x_min":134,"x_max":685,"o":"m 272 340 l 440 70 l 329 70 l 134 334 l 134 347 l 329 611 l 440 611 l 272 340 m 516 340 l 684 70 l 573 70 l 378 334 l 378 347 l 573 611 l 684 611 l 516 340 "},"µ":{"ha":833,"x_min":121,"x_max":738,"o":"m 283 734 l 283 313 q 293 215 283 253 q 321 155 303 177 q 364 126 339 134 q 418 118 389 118 q 485 126 456 118 q 534 151 514 135 q 558 175 548 161 q 575 203 568 188 l 575 734 l 738 734 l 738 0 l 589 0 l 584 61 q 559 36 572 47 q 532 15 547 24 q 480 -7 508 1 q 419 -14 452 -14 q 343 -4 377 -14 q 283 26 309 6 l 283 -282 l 121 -282 l 121 734 l 283 734 "},"»":{"ha":833,"x_min":158,"x_max":711,"o":"m 269 635 l 465 370 l 465 357 l 269 93 l 158 93 l 326 363 l 158 635 l 269 635 m 516 635 l 711 370 l 711 357 l 516 93 l 405 93 l 573 363 l 405 635 l 516 635 "},"ı":{"ha":833,"x_min":136,"x_max":754,"o":"m 136 734 l 532 734 l 532 134 l 754 134 l 754 0 l 136 0 l 136 134 l 368 134 l 368 599 l 136 599 l 136 734 "},"Ĳ":{"ha":833,"x_min":86,"x_max":747,"o":"m 218 0 l 86 0 l 86 987 l 218 987 l 218 0 m 615 987 l 747 987 l 747 218 q 733 121 747 164 q 690 48 719 78 q 617 3 661 18 q 515 -13 574 -13 q 424 1 466 -13 q 353 43 382 15 q 306 115 323 72 q 289 218 289 159 l 420 218 q 446 123 420 153 q 515 93 472 93 q 563 102 544 93 q 595 127 583 111 q 611 166 606 143 q 615 218 615 190 l 615 987 "}}}
